<?xml version="1.0" encoding="utf-8"?>
<!-- Generator: Adobe Illustrator 23.0.6, SVG Export Plug-In . SVG Version: 6.00 Build 0)  -->
<svg version="1.1" id="Layer_1" xmlns="http://www.w3.org/2000/svg" xmlns:xlink="http://www.w3.org/1999/xlink" x="0px" y="0px"
	 viewBox="0 0 214.7 73" style="enable-background:new 0 0 214.7 73;" xml:space="preserve">
<style type="text/css">
	.st0{fill:#000000;}
</style>
<g>
	<g>
		<path class="st0" d="M21.5,73c-8.9,0-16.9-5.6-20.1-13.9c-0.6-1.7,0.2-3.6,1.9-4.2c1.7-0.6,3.5,0.2,4.2,1.9
			c2.2,5.8,7.8,9.7,14,9.7s11.8-3.9,14-9.7c0.6-1.7,2.5-2.5,4.2-1.9s2.5,2.5,1.9,4.2C38.4,67.4,30.4,73,21.5,73z"/>
	</g>
	<path class="st0" d="M84.1,18.4c8.3,0,15,6.7,15,15s-6.7,15-15,15s-15-6.7-15-15S75.8,18.4,84.1,18.4 M84.1,11.9
		c-11.9,0-21.5,9.6-21.5,21.5s9.6,21.5,21.5,21.5s21.5-9.6,21.5-21.5C105.6,21.5,95.9,11.9,84.1,11.9L84.1,11.9z"/>
	<path class="st0" d="M56.1,51.5c0,1.9-1.5,3.4-3.3,3.4s-3.3-1.5-3.3-3.4V3.4C49.5,1.5,51,0,52.8,0s3.3,1.5,3.3,3.4V51.5z"/>
	<path class="st0" d="M214.7,51.5c0,1.9-1.5,3.4-3.3,3.4s-3.3-1.5-3.3-3.4V3.4c0-1.9,1.5-3.4,3.3-3.4s3.3,1.5,3.3,3.4V51.5z"/>
	<path class="st0" d="M39.7,11.9c-1.8,0-3.3,1.5-3.3,3.4v2.7c-3.9-3.7-9.1-6-14.9-6C9.6,11.9,0,21.5,0,33.4s9.6,21.5,21.5,21.5
		S43,45.2,43,33.4V15.3C43,13.4,41.5,11.9,39.7,11.9z M21.5,48.3L21.5,48.3L21.5,48.3L21.5,48.3c-5.2,0-9.8-2.7-12.5-6.8
		c-1.6-2.4-2.5-5.2-2.5-8.2c0-8.3,6.7-15,15-15c3.1,0,6,1,8.4,2.6c0,0,0,0,0,0c0.4,0.2,0.7,0.5,1.1,0.8c0.1,0.1,0.1,0.1,0.2,0.2
		c0.3,0.2,0.6,0.5,0.8,0.8c0.1,0.1,0.2,0.2,0.3,0.3c0.2,0.2,0.4,0.5,0.7,0.7c0.1,0.1,0.2,0.3,0.3,0.4c0.2,0.2,0.3,0.4,0.5,0.7
		c0.1,0.2,0.2,0.3,0.3,0.5c0.1,0.2,0.3,0.4,0.4,0.7c0.1,0.2,0.2,0.4,0.3,0.6s0.2,0.4,0.3,0.6c0.1,0.2,0.2,0.5,0.3,0.7
		c0.1,0.2,0.2,0.4,0.2,0.6c0.1,0.2,0.2,0.5,0.2,0.8c0.1,0.2,0.1,0.4,0.2,0.6c0.1,0.3,0.1,0.5,0.2,0.8c0,0.2,0.1,0.4,0.1,0.6
		c0,0.3,0.1,0.6,0.1,0.9c0,0.1,0,0.1,0,0.2v0.2c0,0.3,0,0.5,0,0.8h0c0,3-0.9,5.9-2.5,8.2C31.3,45.7,26.7,48.3,21.5,48.3z"/>
	<path class="st0" d="M198.3,11.9c-1.8,0-3.3,1.5-3.3,3.4v2.7c-3.9-3.7-9.1-6-14.9-6c-11.9,0-21.5,9.6-21.5,21.5s9.6,21.5,21.5,21.5
		c5.8,0,11.1-2.3,14.9-6.1v2.7c0,1.9,1.5,3.4,3.3,3.4s3.3-1.5,3.3-3.4V40c0-1.9,0-4.9,0-6.7c0-1.8,0-4.8,0-6.7V15.3
		C201.6,13.4,200.1,11.9,198.3,11.9z M195.1,34.4c0,0.1,0,0.1,0,0.2c0,0.3-0.1,0.5-0.1,0.8c0,0.2-0.1,0.5-0.1,0.7
		c0,0.2-0.1,0.4-0.1,0.7c-0.1,0.3-0.1,0.5-0.2,0.8c-0.1,0.2-0.1,0.4-0.2,0.5c-0.1,0.3-0.2,0.6-0.3,0.9c-0.1,0.1-0.1,0.3-0.2,0.4
		c-0.1,0.3-0.3,0.6-0.5,0.9c-0.1,0.1-0.1,0.2-0.1,0.3c-0.2,0.3-0.4,0.7-0.6,1c0,0.1-0.1,0.1-0.1,0.1c-2.7,4-7.2,6.6-12.4,6.6
		c-8.3,0-15-6.7-15-15c0-1.6,0.2-3.1,0.7-4.5c1.9-6.1,7.6-10.5,14.3-10.5c6.4,0,11.9,4.1,14,9.8v0c0.1,0.4,0.3,0.8,0.4,1.3
		c0,0.1,0,0.1,0,0.2c0.1,0.4,0.2,0.8,0.3,1.2c0,0.1,0,0.2,0.1,0.3c0.1,0.4,0.1,0.7,0.1,1.1c0,0.1,0,0.1,0,0.2c0,0.1,0,0.1,0,0.2
		c0,0.3,0,0.5,0,0.8s0,0.5,0,0.8C195.1,34.2,195.1,34.3,195.1,34.4z"/>
	<path class="st0" d="M132.1,11.9c-5.8,0-11.1,2.3-14.9,6.1v-2.7c0-1.9-1.5-3.4-3.3-3.4s-3.3,1.5-3.3,3.4v48.1
		c0,1.9,1.5,3.4,3.3,3.4s3.3-1.5,3.3-3.4V48.8c3.9,3.7,9.1,6.1,14.9,6.1c11.9,0,21.5-9.6,21.5-21.5S144,11.9,132.1,11.9z
		 M132.1,48.3L132.1,48.3L132.1,48.3L132.1,48.3L132.1,48.3c-0.5,0-1,0-1.5-0.1c-0.2,0-0.4-0.1-0.6-0.1c-0.3,0-0.6-0.1-0.8-0.1
		c-0.3-0.1-0.5-0.1-0.8-0.2c-0.2-0.1-0.4-0.1-0.6-0.2c-0.3-0.1-0.6-0.2-0.9-0.3c-0.1-0.1-0.3-0.1-0.5-0.2c-0.3-0.1-0.6-0.3-0.9-0.4
		c-0.1-0.1-0.2-0.1-0.4-0.2c-0.3-0.2-0.6-0.3-0.9-0.5c-0.1-0.1-0.2-0.1-0.3-0.2c-0.3-0.2-0.6-0.4-0.9-0.7c-0.1-0.1-0.1-0.1-0.2-0.2
		c-0.3-0.2-0.6-0.5-0.9-0.8c-0.1-0.1-0.1-0.1-0.1-0.1c-0.3-0.3-0.6-0.6-0.8-0.9c0-0.1-0.1-0.1-0.1-0.1c-0.3-0.3-0.5-0.6-0.8-0.9
		c0-0.1-0.1-0.1-0.1-0.2c-0.2-0.3-0.4-0.7-0.7-1c0-0.1-0.1-0.1-0.1-0.2c-0.2-0.3-0.4-0.7-0.6-1c0-0.1-0.1-0.1-0.1-0.2
		c-0.2-0.3-0.3-0.7-0.4-1.1c0-0.1-0.1-0.2-0.1-0.3c-0.1-0.3-0.2-0.7-0.3-1.1c0-0.1-0.1-0.2-0.1-0.3c-0.1-0.3-0.2-0.7-0.2-1
		c0-0.2-0.1-0.3-0.1-0.4c-0.1-0.3-0.1-0.7-0.1-1c0-0.1,0-0.1,0-0.2v-0.2c0-0.3,0-0.5,0-0.8s0-0.5,0-0.8v-0.2c0-0.1,0-0.1,0-0.2
		c0-0.3,0.1-0.6,0.1-0.9c0-0.2,0.1-0.4,0.1-0.6c0.1-0.3,0.1-0.6,0.2-0.8c0.1-0.2,0.1-0.4,0.2-0.6c0.1-0.3,0.1-0.5,0.2-0.8
		c0.1-0.2,0.1-0.4,0.2-0.6c0.1-0.2,0.2-0.5,0.3-0.7c0.1-0.2,0.2-0.4,0.3-0.6c0.1-0.2,0.2-0.4,0.3-0.6c0.1-0.2,0.3-0.4,0.4-0.7
		c0.1-0.2,0.2-0.3,0.3-0.5c0.2-0.2,0.3-0.5,0.5-0.7c0.1-0.1,0.2-0.3,0.3-0.4c0.2-0.2,0.4-0.5,0.7-0.7c0.1-0.1,0.2-0.2,0.3-0.3
		c0.3-0.3,0.6-0.5,0.8-0.8c0.1-0.1,0.1-0.1,0.2-0.2c0.4-0.3,0.7-0.6,1.1-0.8c0,0,0,0,0,0c2.4-1.6,5.3-2.6,8.4-2.6
		c8.3,0,15,6.7,15,15c0,3-0.9,5.9-2.5,8.2C141.9,45.7,137.3,48.3,132.1,48.3z"/>
</g>
</svg>
