<?xml version="1.0" encoding="utf-8"?>
<!-- Generator: Adobe Illustrator 22.0.0, SVG Export Plug-In . SVG Version: 6.00 Build 0)  -->
<svg version="1.1" id="图层_1" xmlns="http://www.w3.org/2000/svg" xmlns:xlink="http://www.w3.org/1999/xlink" x="0px" y="0px"
	 viewBox="0 0 128 128" style="enable-background:new 0 0 128 128;" xml:space="preserve">
<style type="text/css">
	.st0{fill:#333333;}
	.st1{display:none;fill:#E81E63;}
</style>
<path class="st0" d="M37.3,95.6c-2.9,0-5.3,2.4-5.3,5.3c0,2.9,2.4,5.3,5.3,5.3c2.9,0,5.3-2.4,5.3-5.3C42.6,97.9,40.2,95.6,37.3,95.6
	z M89.9,95.6c-2.9,0-5.3,2.4-5.3,5.3c0,2.9,2.4,5.3,5.3,5.3c2.9,0,5.3-2.4,5.3-5.3C95.2,97.9,92.8,95.6,89.9,95.6z M95.7,85
	c-3.4,0-60.4,0-60.4,0S24,49.3,16.9,24.6C16,21.5,14.2,22,11.6,22C9.4,22,9,22,9,22c-2.9,0-5.3,0-5.3,2.6c0,2.4,2.5,2.6,5.3,2.6
	c0,0,1.4,0,2.6,0c2.5,0,21,63.1,21,63.1s59.5,0,63.1,0C99.4,90.3,99.1,85,95.7,85z M95.2,79.8l11.1-39.4H27.4l13.1,39.4H95.2z"/>
<circle class="st1" cx="106.2" cy="40.4" r="16.8"/>
</svg>
