<?xml version="1.0" encoding="utf-8"?>
<!-- Generator: Adobe Illustrator 19.1.0, SVG Export Plug-In . SVG Version: 6.00 Build 0)  -->
<svg version="1.1" id="Card" xmlns="http://www.w3.org/2000/svg" xmlns:xlink="http://www.w3.org/1999/xlink" x="0px" y="0px"
	 viewBox="31 -16 86 54" style="enable-background:new 31 -16 86 54;" xml:space="preserve">
<style type="text/css">
	.st0{fill:url(#SVGID_1_);}
	.st1{fill:url(#SVGID_2_);}
	.st2{fill:#FFFFFF;}
</style>
<linearGradient id="SVGID_1_" gradientUnits="userSpaceOnUse" x1="-166" y1="-166" x2="-80" y2="-166">
	<stop  offset="0" style="stop-color:#83CDF2"/>
	<stop  offset="1" style="stop-color:#E1E1E1"/>
</linearGradient>
<path class="st0" d="M-163-193h80c1.7,0,3,1.3,3,3v48c0,1.7-1.3,3-3,3h-80c-1.7,0-3-1.3-3-3v-48C-166-191.7-164.7-193-163-193z"/>
<linearGradient id="SVGID_2_" gradientUnits="userSpaceOnUse" x1="74" y1="38" x2="74" y2="-16" gradientTransform="matrix(1 0 0 -1 0 22)">
	<stop  offset="0" style="stop-color:#81CCF2"/>
	<stop  offset="1" style="stop-color:#297EC1"/>
</linearGradient>
<path class="st1" d="M34-16h80c1.7,0,3,1.3,3,3v48c0,1.7-1.3,3-3,3H34c-1.7,0-3-1.3-3-3v-48C31-14.7,32.3-16,34-16z"/>
<g>
	<path class="st2" d="M47.2,5l-1.2-3l-1.2,3 M74.7,3.8c-0.3,0.2-0.5,0.2-0.9,0.2h-2.2V2.2h2.2c0.3,0,0.6,0,0.9,0.1
		c0.2,0.1,0.4,0.3,0.4,0.7C75.1,3.4,74.9,3.6,74.7,3.8z M90.5,5l-1.3-3L88,5H90.5z M61.1,8.3h-1.9l0-6l-2.6,6h-1.6l-2.6-6v6h-3.7
		l-0.7-1.7h-3.8l-0.7,1.7h-2l3.3-7.6h2.7l3.1,7.2V0.6h3l2.4,5.2L58,0.6h3L61.1,8.3L61.1,8.3z M68.5,8.3h-6.1V0.6h6.1v1.6h-4.3v1.4
		h4.2v1.6h-4.2v1.5h4.3V8.3z M77.1,2.7c0,1.2-0.8,1.8-1.3,2c0.4,0.2,0.7,0.4,0.9,0.6C77,5.7,77,6.1,77,6.8v1.5h-1.8l0-1
		c0-0.5,0-1.1-0.3-1.5c-0.3-0.3-0.7-0.3-1.3-0.3h-2v2.8h-1.8V0.6H74c0.9,0,1.6,0,2.2,0.4C76.7,1.3,77.1,1.8,77.1,2.7z M80,8.3h-1.9
		V0.6H80V8.3z M101.6,8.3H99l-3.5-5.7v5.7h-3.7l-0.7-1.7h-3.8l-0.7,1.7h-2.1c-0.9,0-2-0.2-2.6-0.8c-0.6-0.6-1-1.5-1-2.9
		c0-1.1,0.2-2.2,1-3c0.6-0.6,1.5-0.9,2.8-0.9h1.8v1.6h-1.7c-0.7,0-1,0.1-1.4,0.5C83,3,82.7,3.6,82.7,4.4c0,0.8,0.2,1.4,0.5,1.8
		c0.3,0.3,0.8,0.4,1.3,0.4h0.8l2.6-6h2.7l3.1,7.2V0.6h2.8l3.2,5.3V0.6h1.9L101.6,8.3L101.6,8.3z M41.4,9.8h3.1l0.7-1.7h1.6l0.7,1.7
		h6.1V8.5l0.5,1.3h3.2l0.5-1.3v1.3h15.2l0-2.8h0.3c0.2,0,0.3,0,0.3,0.4v2.4h7.9V9.1c0.6,0.3,1.6,0.6,2.9,0.6h3.3l0.7-1.7H90l0.7,1.7
		h6.4V8.1l1,1.6h5.1V-0.9h-5.1v1.3l-0.7-1.3h-5.2v1.3l-0.7-1.3h-7c-1.2,0-2.2,0.2-3,0.6v-0.6h-4.8v0.6c-0.5-0.5-1.3-0.6-2.1-0.6
		H56.9l-1.2,2.7l-1.2-2.7h-5.6v1.3l-0.6-1.3h-4.8l-2.2,5.1L41.4,9.8L41.4,9.8z"/>
	<path class="st2" d="M106.2,15.4h-3.3c-0.3,0-0.6,0-0.7,0.1c-0.2,0.1-0.3,0.3-0.3,0.5c0,0.3,0.2,0.5,0.4,0.6
		c0.2,0.1,0.4,0.1,0.7,0.1l1,0c1,0,1.7,0.2,2.1,0.6c0.1,0.1,0.1,0.1,0.2,0.2c0,0,0.8,1.5,0,2.9c-0.8,1.4,0,0,0,0l0,2
		c0,0,1.6-1.1,1.7-3.5C107.9,18.9,108.1,16.6,106.2,15.4z M106.2,20.4c-0.4,0.6-1.3,1-2.5,1h-3.5v-1.6h3.5c0.3,0,0.6,0,0.7-0.2
		c0.1-0.1,0.2-0.3,0.2-0.5c0-0.2-0.1-0.4-0.2-0.5c-0.1-0.1-0.3-0.2-0.6-0.2c-1.7-0.1-3.8,0.1-3.8-2.4c0-1.1,0.7-2.3,2.6-2.3h3.6
		v-1.5h-3.4c-1,0-1.8,0.2-2.3,0.6v-0.6h-5c-0.8,0-1.7,0.2-2.2,0.6v-0.6h-8.9v0.6c-0.7-0.5-1.9-0.6-2.5-0.6h-5.9v0.6
		c-0.6-0.5-1.8-0.6-2.6-0.6H67l-1.5,1.6l-1.4-1.6h-9.8v10.6h9.6l1.6-1.7l1.5,1.7l5.9,0v-2.5h0.6c0.8,0,1.7,0,2.5-0.4v2.9h4.9v-2.8
		h0.2c0.3,0,0.3,0,0.3,0.3v2.5h14.9c0.9,0,1.9-0.2,2.5-0.7v0.7h4.7c1,0,1.9-0.1,2.7-0.5L106.2,20.4L106.2,20.4z M98.9,17.4
		c0.4,0.4,0.5,0.8,0.5,1.6c0,1.6-1,2.4-2.9,2.4h-3.5v-1.6h3.5c0.3,0,0.6,0,0.7-0.2c0.1-0.1,0.2-0.3,0.2-0.5c0-0.2-0.1-0.4-0.2-0.5
		c-0.1-0.1-0.3-0.2-0.6-0.2c-1.7-0.1-3.8,0.1-3.8-2.4c0-1.1,0.7-2.3,2.6-2.3h3.7v1.6h-3.3c-0.3,0-0.5,0-0.7,0.1
		c-0.2,0.1-0.3,0.3-0.3,0.5c0,0.3,0.2,0.5,0.4,0.6c0.2,0.1,0.4,0.1,0.7,0.1l1,0C97.8,16.8,98.5,16.9,98.9,17.4z M82.5,16.9
		C82.3,17,82,17,81.6,17h-2.2v-1.7h2.2c0.3,0,0.6,0,0.9,0.1c0.2,0.1,0.4,0.4,0.4,0.7C82.9,16.5,82.7,16.7,82.5,16.9z M83.6,17.8
		c0.4,0.1,0.7,0.4,0.9,0.6c0.3,0.4,0.3,0.7,0.3,1.4v1.5H83v-1c0-0.5,0-1.1-0.3-1.5c-0.3-0.3-0.7-0.3-1.3-0.3h-1.9v2.8h-1.8v-7.6h4.2
		c0.9,0,1.6,0,2.2,0.4c0.6,0.3,0.9,0.8,0.9,1.7C84.9,17,84.1,17.6,83.6,17.8z M85.9,13.8H92v1.6h-4.3v1.4h4.2v1.6h-4.2v1.5l4.3,0
		v1.6h-6.1V13.8z M73.6,17.3h-2.4v-1.9h2.4c0.7,0,1.1,0.3,1.1,0.9C74.7,16.9,74.3,17.3,73.6,17.3z M69.4,20.7l-2.8-3.1l2.8-3V20.7z
		 M62.2,19.8h-4.5v-1.5h4v-1.6h-4v-1.4h4.6l2,2.2L62.2,19.8z M76.7,16.3c0,2.1-1.6,2.6-3.2,2.6h-2.3v2.6h-3.5l-2.2-2.5l-2.3,2.5
		h-7.2v-7.6h7.3l2.2,2.5l2.3-2.5h5.8C75.1,13.8,76.7,14.2,76.7,16.3z"/>
	<polygon class="st2" points="42.2,9.8 38.9,9.8 41.7,3.4 41.4,6.6 41.4,8.7 	"/>
	<rect x="106.2" y="12.2" class="st2" width="1.2" height="4.4"/>
</g>
</svg>
