<?xml version="1.0" encoding="utf-8"?>
<!-- Generator: Adobe Illustrator 19.1.0, SVG Export Plug-In . SVG Version: 6.00 Build 0)  -->
<svg version="1.1" id="Card" xmlns="http://www.w3.org/2000/svg" xmlns:xlink="http://www.w3.org/1999/xlink" x="0px" y="0px"
	 viewBox="0 0 86 54" style="enable-background:new 0 0 86 54;" xml:space="preserve">
<style type="text/css">
	.st0{fill-rule:evenodd;clip-rule:evenodd;fill:url(#SVGID_1_);}
	.st1{display:none;}
	.st2{display:inline;fill:#105EA5;}
	.st3{display:inline;fill:#F4A636;}
	.st4{fill:#FBB131;}
	.st5{fill:#EC1C2E;}
	.st6{fill:#FFFFFF;}
	.st7{fill:none;stroke:#FFFFFF;stroke-width:0.215;}
</style>
<linearGradient id="SVGID_1_" gradientUnits="userSpaceOnUse" x1="43" y1="-2.996785e-09" x2="43" y2="54">
	<stop  offset="0" style="stop-color:#F9F9F9"/>
	<stop  offset="1" style="stop-color:#E1E1E1"/>
</linearGradient>
<path class="st0" d="M3,0h80c1.7,0,3,1.3,3,3v48c0,1.7-1.3,3-3,3H3c-1.7,0-3-1.3-3-3V3C0,1.3,1.3,0,3,0z"/>
<g id="Visa_1_" class="st1">
	<path class="st2" d="M27,16.6l-5.3,14.3L21.1,28c-1.3-3.6-4.2-7.3-7.5-8.8l4.9,18.4l5.7,0l8.5-20.9H27L27,16.6z"/>
	<polygon class="st2" points="31.5,37.5 34.9,16.5 40.3,16.5 36.9,37.5 31.5,37.5 	"/>
	<path class="st2" d="M56.6,17.1c-1.1-0.4-2.8-0.9-4.9-0.9c-5.4,0-9.1,2.8-9.2,6.9c0,3,2.7,4.7,4.7,5.7c2.1,1,2.8,1.7,2.8,2.6
		c0,1.4-1.7,2-3.2,2c-2.2,0-3.3-0.3-5.1-1.1L41.1,32l-0.8,4.7c1.3,0.6,3.6,1.1,6,1.1c5.7,0,9.4-2.8,9.4-7.2c0-2.4-1.4-4.2-4.6-5.7
		c-1.9-1-3.1-1.6-3-2.6c0-0.9,1-1.8,3.1-1.8c1.8,0,3.1,0.4,4.1,0.8l0.5,0.2L56.6,17.1L56.6,17.1z"/>
	<path class="st2" d="M70.5,16.6h-4.2c-1.3,0-2.3,0.4-2.8,1.7l-8,19.2h5.7c0,0,0.9-2.6,1.1-3.2c0.6,0,6.1,0,6.9,0
		c0.2,0.7,0.7,3.1,0.7,3.1h5L70.5,16.6L70.5,16.6z M63.8,30.1c0.4-1.2,2.2-5.9,2.2-5.9c0,0.1,0.4-1.2,0.7-2L67,24c0,0,1,5,1.3,6.1
		C67.4,30.1,64.8,30.1,63.8,30.1L63.8,30.1z"/>
	<path class="st3" d="M16.7,16.5H8l-0.1,0.4c6.8,1.7,11.3,6,13.1,11.1l-1.9-9.6C18.9,17,17.9,16.6,16.7,16.5L16.7,16.5z"/>
</g>
<g>
	<polygon class="st4" points="55.2,45.4 56.1,45.4 57.1,45.3 58,45.2 58.9,45 59.8,44.8 60.7,44.6 61.5,44.3 62.4,44 63.2,43.6 
		64,43.2 64.8,42.7 65.6,42.2 66.3,41.7 67,41.2 67.7,40.6 68.3,40 68.9,39.3 69.5,38.6 70.1,37.9 70.6,37.2 71.1,36.5 71.5,35.7 
		71.9,34.9 72.3,34.1 72.6,33.2 72.9,32.3 73.2,31.5 73.4,30.6 73.5,29.7 73.6,28.7 73.7,27.8 73.7,26.8 73.7,25.9 73.6,24.9 
		73.5,24 73.4,23.1 73.2,22.2 72.9,21.3 72.6,20.5 72.3,19.6 71.9,18.8 71.5,18 71.1,17.2 70.6,16.5 70.1,15.8 69.5,15.1 68.9,14.4 
		68.3,13.7 67.7,13.1 67,12.5 66.3,12 65.6,11.5 64.8,11 64,10.5 63.2,10.1 62.4,9.8 61.5,9.4 60.7,9.1 59.8,8.9 58.9,8.7 58,8.5 
		57.1,8.4 56.1,8.3 55.2,8.3 54.2,8.3 53.3,8.4 52.3,8.5 51.4,8.7 50.5,8.9 49.6,9.1 48.8,9.4 47.9,9.8 47.1,10.1 46.3,10.5 
		45.5,11 44.8,11.5 44.1,12 43.4,12.5 42.7,13.1 42.1,13.7 41.4,14.4 40.9,15.1 40.3,15.8 39.8,16.5 39.3,17.2 38.9,18 38.5,18.8 
		38.1,19.6 37.8,20.5 37.5,21.3 37.2,22.2 37,23.1 36.8,24 36.7,24.9 36.7,25.9 36.6,26.8 36.7,27.8 36.7,28.7 36.8,29.7 37,30.6 
		37.2,31.5 37.5,32.3 37.8,33.2 38.1,34.1 38.5,34.9 38.9,35.7 39.3,36.5 39.8,37.2 40.3,37.9 40.9,38.6 41.4,39.3 42.1,40 
		42.7,40.6 43.4,41.2 44.1,41.7 44.8,42.2 45.5,42.7 46.3,43.2 47.1,43.6 47.9,44 48.8,44.3 49.6,44.6 50.5,44.8 51.4,45 52.3,45.2 
		53.3,45.3 54.2,45.4 	"/>
	<polygon class="st5" points="30.3,45.4 31.3,45.4 32.2,45.3 33.2,45.2 34.1,45 35,44.8 35.8,44.6 36.7,44.3 37.5,44 38.4,43.6 
		39.2,43.2 39.9,42.7 40.7,42.2 41.4,41.7 42.1,41.2 42.8,40.6 43.4,40 44,39.3 44.6,38.6 45.2,37.9 45.7,37.2 46.2,36.5 46.6,35.7 
		47,34.9 47.4,34.1 47.7,33.2 48,32.3 48.3,31.5 48.5,30.6 48.6,29.7 48.8,28.7 48.8,27.8 48.9,26.8 48.8,25.9 48.8,24.9 48.6,24 
		48.5,23.1 48.3,22.2 48,21.3 47.7,20.5 47.4,19.6 47,18.8 46.6,18 46.2,17.2 45.7,16.5 45.2,15.8 44.6,15.1 44,14.4 43.4,13.7 
		42.8,13.1 42.1,12.5 41.4,12 40.7,11.5 39.9,11 39.2,10.5 38.4,10.1 37.5,9.8 36.7,9.4 35.8,9.1 35,8.9 34.1,8.7 33.2,8.5 
		32.2,8.4 31.3,8.3 30.3,8.3 29.4,8.3 28.4,8.4 27.5,8.5 26.6,8.7 25.7,8.9 24.8,9.1 23.9,9.4 23.1,9.8 22.3,10.1 21.5,10.5 
		20.7,11 19.9,11.5 19.2,12 18.5,12.5 17.8,13.1 17.2,13.7 16.6,14.4 16,15.1 15.4,15.8 14.9,16.5 14.4,17.2 14,18 13.6,18.8 
		13.2,19.6 12.9,20.5 12.6,21.3 12.3,22.2 12.1,23.1 12,24 11.8,24.9 11.8,25.9 11.7,26.8 11.8,27.8 11.8,28.7 12,29.7 12.1,30.6 
		12.3,31.5 12.6,32.3 12.9,33.2 13.2,34.1 13.6,34.9 14,35.7 14.4,36.5 14.9,37.2 15.4,37.9 16,38.6 16.6,39.3 17.2,40 17.8,40.6 
		18.5,41.2 19.2,41.7 19.9,42.2 20.7,42.7 21.5,43.2 22.3,43.6 23.1,44 23.9,44.3 24.8,44.6 25.7,44.8 26.6,45 27.5,45.2 28.4,45.3 
		29.4,45.4 	"/>
	<polygon class="st4" points="40.6,15.4 50.4,15.4 50.4,14.4 41.4,14.4 	"/>
	<polygon class="st4" points="39.1,17.7 50.4,17.7 50.4,16.7 39.7,16.7 	"/>
	<polygon class="st4" points="38,19.9 50.4,19.9 50.4,18.9 38.4,18.9 	"/>
	<polygon class="st4" points="37.2,22.1 50.4,22.1 50.4,21.1 37.5,21.1 	"/>
	<polygon class="st4" points="37.7,33 50.5,33 50.5,32 37.4,32 	"/>
	<polygon class="st4" points="38.6,35.2 50.5,35.2 50.5,34.2 38.1,34.2 	"/>
	<polygon class="st4" points="39.9,37.4 50.5,37.4 50.5,36.4 39.3,36.4 	"/>
	<polygon class="st4" points="41.8,39.7 50.5,39.7 50.5,38.7 40.9,38.7 	"/>
	<polygon class="st4" points="36.8,24.4 50.4,24.4 50.4,23.4 37,23.4 	"/>
	<polygon class="st4" points="45.1,30.7 50.3,30.7 50.3,29.7 45.3,29.7 	"/>
	<polygon class="st4" points="45.5,28.5 50.3,28.5 50.3,27.5 45.7,27.5 	"/>
	<polygon class="st4" points="36.4,27.5 37.8,27.5 37.8,28.5 36.5,28.5 	"/>
	<polygon class="st6" points="33.9,26.3 33.8,26.3 33.7,26.2 33.7,26.2 33.6,26.2 33.5,26.2 33.4,26.2 33.3,26.2 33.3,26.2 
		33.2,26.2 33.1,26.1 33,26.1 32.8,26.1 32.7,26.1 32.6,26.1 32.4,26.2 32.2,26.2 32.1,26.2 32,26.2 31.9,26.2 31.8,26.3 31.7,26.3 
		31.6,26.4 31.5,26.4 31.5,26.5 31.5,26.6 31.4,26.6 31.4,26.7 31.4,26.8 31.4,26.9 31.5,26.9 31.5,27 31.6,27.1 31.7,27.2 
		31.8,27.3 32,27.4 32.2,27.5 32.4,27.5 32.6,27.6 32.8,27.7 33,27.8 33.2,27.9 33.4,28 33.5,28.1 33.7,28.3 33.8,28.6 33.8,28.9 
		33.9,29.2 33.8,29.6 33.8,29.9 33.7,30.1 33.6,30.4 33.5,30.6 33.3,30.8 33.2,30.9 33,31.1 32.8,31.2 32.6,31.3 32.4,31.4 
		32.2,31.4 32,31.5 31.8,31.5 31.6,31.5 31.3,31.5 31.2,31.5 30.9,31.5 30.6,31.5 30.4,31.5 30.2,31.5 30,31.5 29.9,31.5 29.7,31.5 
		29.6,31.5 29.4,31.5 29.3,31.4 29.2,31.4 29.1,31.4 29,31.4 28.9,31.3 28.8,31.3 28.7,31.3 28.9,29.9 29,29.9 29.1,29.9 29.2,29.9 
		29.3,30 29.4,30 29.5,30 29.6,30 29.8,30.1 30,30.1 30.1,30.1 30.3,30.1 30.5,30.2 30.6,30.2 30.8,30.2 31,30.2 31.2,30.2 
		31.4,30.1 31.5,30.1 31.6,30 31.7,29.9 31.8,29.8 31.8,29.7 31.9,29.6 31.9,29.5 31.9,29.4 31.8,29.2 31.7,29.1 31.6,29 31.4,28.9 
		31.2,28.8 30.9,28.7 30.7,28.6 30.4,28.5 30.2,28.3 30,28.2 29.8,28 29.6,27.7 29.5,27.5 29.4,27.1 29.4,26.7 29.5,26.5 29.5,26.3 
		29.6,26 29.7,25.8 29.8,25.7 29.9,25.5 30,25.3 30.2,25.2 30.3,25.1 30.5,25 30.8,24.9 31,24.8 31.3,24.8 31.6,24.7 31.9,24.7 
		32.3,24.7 32.5,24.7 32.8,24.7 33,24.7 33.1,24.7 33.3,24.7 33.4,24.7 33.6,24.7 33.7,24.8 33.8,24.8 33.9,24.8 33.9,24.8 34,24.8 
		34.1,24.8 34.1,24.8 34.2,24.8 34.2,24.8 	"/>
	<g>
		<g>
			<polyline class="st7" points="33.9,26.3 33.9,26.3 33.8,26.3 33.7,26.2 33.7,26.2 33.6,26.2 33.5,26.2 33.4,26.2 33.3,26.2 
				33.3,26.2 33.2,26.2 33.1,26.1 33,26.1 32.8,26.1 32.7,26.1 32.6,26.1 32.4,26.2 32.2,26.2 32.2,26.2 32.1,26.2 32,26.2 
				31.9,26.2 31.8,26.3 31.7,26.3 31.6,26.4 31.5,26.4 31.5,26.5 31.5,26.6 31.4,26.6 31.4,26.7 31.4,26.8 31.4,26.9 31.5,26.9 
				31.5,27 31.6,27.1 31.6,27.1 31.7,27.2 31.8,27.3 32,27.4 32.2,27.5 32.4,27.5 32.6,27.6 32.8,27.7 33,27.8 33.2,27.9 33.4,28 
				33.5,28.1 33.7,28.3 33.8,28.6 33.8,28.9 33.9,29.2 33.8,29.6 33.8,29.6 33.8,29.9 33.7,30.1 33.6,30.4 33.5,30.6 33.3,30.8 
				33.2,30.9 33,31.1 32.8,31.2 32.6,31.3 32.4,31.4 32.2,31.4 32,31.5 31.8,31.5 31.6,31.5 31.3,31.5 31.2,31.5 31.2,31.5 
				30.9,31.5 30.6,31.5 30.4,31.5 30.2,31.5 30,31.5 29.9,31.5 29.7,31.5 29.6,31.5 29.4,31.5 29.3,31.4 29.2,31.4 29.1,31.4 
				29,31.4 28.9,31.3 28.8,31.3 28.7,31.3 28.9,29.9 28.9,29.9 29,29.9 29.1,29.9 29.2,29.9 29.3,30 29.4,30 29.5,30 29.6,30 
				29.8,30.1 30,30.1 30.1,30.1 30.3,30.1 30.5,30.2 30.6,30.2 30.8,30.2 31,30.2 31.2,30.2 31.2,30.2 31.4,30.1 31.5,30.1 31.6,30 
				31.7,29.9 31.8,29.8 31.8,29.7 31.9,29.6 31.9,29.5 31.9,29.5 31.9,29.4 31.8,29.2 31.7,29.1 31.6,29 31.4,28.9 31.2,28.8 
				30.9,28.7 30.7,28.6 30.4,28.5 30.2,28.3 30,28.2 29.8,28 29.6,27.7 29.5,27.5 29.4,27.1 29.4,26.7 29.4,26.7 29.5,26.5 
				29.5,26.3 29.6,26 29.7,25.8 29.8,25.7 29.9,25.5 30,25.3 30.2,25.2 30.3,25.1 30.5,25 30.8,24.9 31,24.8 31.3,24.8 31.6,24.7 
				31.9,24.7 32.3,24.7 32.3,24.7 32.5,24.7 32.8,24.7 33,24.7 33.1,24.7 33.3,24.7 33.4,24.7 33.6,24.7 33.7,24.8 33.8,24.8 
				33.9,24.8 33.9,24.8 34,24.8 34.1,24.8 34.1,24.8 34.2,24.8 34.2,24.8 33.9,26.3 			"/>
		</g>
	</g>
	<polygon class="st6" points="35.4,23.3 37.1,23.3 36.9,24.8 37.9,24.8 37.7,26.2 36.6,26.2 36,29.7 36,29.8 36,29.9 36.1,30 
		36.2,30.1 36.3,30.1 36.4,30.2 36.5,30.2 36.7,30.2 36.8,30.2 37,30.2 37.1,30.2 37.2,30.1 37.3,30.1 37.3,30.1 37.3,30.1 
		37.4,30.1 37.1,31.2 37.1,31.3 37.1,31.3 37,31.3 37,31.3 36.9,31.4 36.9,31.4 36.8,31.4 36.8,31.4 36.7,31.4 36.6,31.4 36.6,31.5 
		36.5,31.5 36.4,31.5 36.3,31.5 36.2,31.5 36.1,31.5 35.6,31.5 35.4,31.5 35.2,31.5 35,31.4 34.8,31.4 34.6,31.3 34.5,31.3 
		34.4,31.2 34.3,31.1 34.3,31 34.2,30.9 34.2,30.8 34.2,30.7 34.2,30.6 34.2,30.4 34.2,30.3 34.2,30.1 	"/>
	<g>
		<g>
			<polyline class="st7" points="35.4,23.3 37.1,23.3 36.9,24.8 37.9,24.8 37.7,26.2 36.6,26.2 36,29.7 36,29.7 36,29.8 36,29.9 
				36.1,30 36.2,30.1 36.3,30.1 36.4,30.2 36.5,30.2 36.7,30.2 36.7,30.2 36.8,30.2 37,30.2 37.1,30.2 37.2,30.1 37.3,30.1 
				37.3,30.1 37.3,30.1 37.4,30.1 37.1,31.2 37.1,31.2 37.1,31.3 37.1,31.3 37,31.3 37,31.3 36.9,31.4 36.9,31.4 36.8,31.4 
				36.8,31.4 36.7,31.4 36.6,31.4 36.6,31.5 36.5,31.5 36.4,31.5 36.3,31.5 36.2,31.5 36.1,31.5 35.6,31.5 35.6,31.5 35.4,31.5 
				35.2,31.5 35,31.4 34.8,31.4 34.6,31.3 34.5,31.3 34.4,31.2 34.3,31.1 34.3,31 34.2,30.9 34.2,30.8 34.2,30.7 34.2,30.6 
				34.2,30.4 34.2,30.3 34.2,30.1 35.4,23.3 			"/>
		</g>
	</g>
	<polygon class="st6" points="39.3,28.6 39.3,28.7 39.3,28.8 39.3,28.9 39.3,29 39.4,29.2 39.4,29.3 39.5,29.4 39.6,29.5 39.7,29.6 
		39.7,29.7 39.8,29.8 40,29.9 40.1,29.9 40.2,30 40.3,30 40.4,30.1 40.6,30.1 40.8,30.1 40.9,30.1 41.1,30.1 41.3,30.1 41.4,30.1 
		41.6,30.1 41.8,30.1 41.9,30.1 42.1,30.1 42.3,30 42.4,30 42.6,29.9 42.8,29.8 43,29.7 43.2,29.6 42.9,31.2 42.8,31.2 42.7,31.3 
		42.6,31.3 42.5,31.3 42.4,31.4 42.3,31.4 42.2,31.4 42.1,31.4 42,31.5 41.9,31.5 41.7,31.5 41.6,31.5 41.4,31.5 41.3,31.5 
		41.1,31.5 40.9,31.5 40.6,31.5 40.2,31.5 39.9,31.4 39.6,31.4 39.3,31.3 39,31.1 38.7,31 38.5,30.8 38.2,30.6 38,30.3 37.8,30.1 
		37.7,29.7 37.6,29.4 37.5,28.9 37.5,28.5 37.5,28 37.5,27.8 37.6,27.5 37.6,27.3 37.7,27 37.8,26.7 37.9,26.5 38,26.2 38.2,25.9 
		38.4,25.7 38.7,25.5 38.9,25.2 39.3,25.1 39.6,24.9 40,24.8 40.5,24.7 41,24.7 41.2,24.7 41.5,24.7 41.7,24.8 42,24.8 42.2,24.9 
		42.5,25 42.7,25.2 42.9,25.4 43.1,25.6 43.3,25.8 43.4,26.1 43.5,26.4 43.5,26.8 43.5,27.2 43.5,27.7 43.4,28.2 43.4,28.6 
		38.8,28.6 39.1,27.4 41.8,27.4 41.8,27.2 41.8,27.1 41.8,26.9 41.8,26.8 41.8,26.7 41.7,26.6 41.7,26.5 41.6,26.4 41.5,26.3 
		41.4,26.3 41.3,26.2 41.2,26.2 41.1,26.1 41,26.1 40.9,26.1 40.8,26.1 40.7,26.1 40.6,26.1 40.5,26.1 40.4,26.2 40.3,26.2 
		40.2,26.3 40.1,26.3 40,26.4 39.9,26.5 39.9,26.6 39.8,26.7 39.7,26.8 39.7,26.9 39.6,27 39.6,27.2 39.6,27.3 	"/>
	<g>
		<g>
			<polyline class="st7" points="39.3,28.6 39.3,28.6 39.3,28.7 39.3,28.8 39.3,28.9 39.3,29 39.4,29.2 39.4,29.3 39.5,29.4 
				39.6,29.5 39.7,29.6 39.7,29.7 39.8,29.8 40,29.9 40.1,29.9 40.2,30 40.3,30 40.4,30.1 40.4,30.1 40.6,30.1 40.8,30.1 40.9,30.1 
				41.1,30.1 41.3,30.1 41.4,30.1 41.6,30.1 41.8,30.1 41.9,30.1 42.1,30.1 42.3,30 42.4,30 42.6,29.9 42.8,29.8 43,29.7 43.2,29.6 
				42.9,31.2 42.9,31.2 42.8,31.2 42.7,31.3 42.6,31.3 42.5,31.3 42.4,31.4 42.3,31.4 42.2,31.4 42.1,31.4 42,31.5 41.9,31.5 
				41.7,31.5 41.6,31.5 41.4,31.5 41.3,31.5 41.1,31.5 40.9,31.5 40.9,31.5 40.6,31.5 40.2,31.5 39.9,31.4 39.6,31.4 39.3,31.3 
				39,31.1 38.7,31 38.5,30.8 38.2,30.6 38,30.3 37.8,30.1 37.7,29.7 37.6,29.4 37.5,28.9 37.5,28.5 37.5,28 37.5,28 37.5,27.8 
				37.6,27.5 37.6,27.3 37.7,27 37.8,26.7 37.9,26.5 38,26.2 38.2,25.9 38.4,25.7 38.7,25.5 38.9,25.2 39.3,25.1 39.6,24.9 40,24.8 
				40.5,24.7 41,24.7 41,24.7 41.2,24.7 41.5,24.7 41.7,24.8 42,24.8 42.2,24.9 42.5,25 42.7,25.2 42.9,25.4 43.1,25.6 43.3,25.8 
				43.4,26.1 43.5,26.4 43.5,26.8 43.5,27.2 43.5,27.7 43.4,28.2 43.4,28.6 38.8,28.6 39.1,27.4 41.8,27.4 41.8,27.4 41.8,27.2 
				41.8,27.1 41.8,26.9 41.8,26.8 41.8,26.7 41.7,26.6 41.7,26.5 41.6,26.4 41.5,26.3 41.4,26.3 41.3,26.2 41.2,26.2 41.1,26.1 
				41,26.1 40.9,26.1 40.8,26.1 40.8,26.1 40.7,26.1 40.6,26.1 40.5,26.1 40.4,26.2 40.3,26.2 40.2,26.3 40.1,26.3 40,26.4 
				39.9,26.5 39.9,26.6 39.8,26.7 39.7,26.8 39.7,26.9 39.6,27 39.6,27.2 39.6,27.3 39.3,28.6 			"/>
		</g>
	</g>
	<polygon class="st6" points="54.2,25.2 54.2,25.1 54.1,25.1 54,25.1 53.9,25 53.8,25 53.7,24.9 53.6,24.9 53.5,24.9 53.4,24.8 
		53.2,24.8 53.1,24.8 53,24.8 52.8,24.8 52.7,24.7 52.5,24.7 52.4,24.7 52.2,24.7 52.1,24.8 51.9,24.8 51.7,24.8 51.5,24.9 
		51.4,24.9 51.2,25 51,25.1 50.8,25.3 50.7,25.4 50.5,25.6 50.4,25.9 50.2,26.1 50.1,26.4 50,26.8 49.9,27.2 49.9,27.4 49.8,27.6 
		49.8,27.9 49.8,28.1 49.8,28.3 49.9,28.5 49.9,28.7 50,28.9 50.1,29 50.2,29.2 50.3,29.3 50.5,29.5 50.7,29.6 50.9,29.7 51.1,29.8 
		51.3,29.8 51.4,29.8 51.5,29.9 51.6,29.9 51.7,29.9 51.9,29.9 52,29.9 52.2,29.9 52.3,29.9 52.5,29.9 52.6,29.8 52.8,29.8 53,29.7 
		53.1,29.7 53.3,29.6 53.4,29.5 53.5,29.4 53.2,31 53.2,31.1 53.2,31.1 53.1,31.2 53.1,31.2 53,31.2 52.9,31.3 52.8,31.3 52.7,31.4 
		52.5,31.4 52.4,31.4 52.2,31.5 52,31.5 51.7,31.5 51.4,31.5 51.1,31.5 50.8,31.5 50.5,31.5 50.2,31.4 49.9,31.3 49.6,31.2 49.3,31 
		49.1,30.8 48.8,30.6 48.6,30.4 48.4,30.1 48.2,29.8 48.1,29.4 48,29 47.9,28.6 47.9,28.2 47.9,27.7 47.9,27.2 48,26.9 48,26.7 
		48.1,26.4 48.2,26.2 48.2,26 48.3,25.7 48.4,25.5 48.5,25.3 48.6,25.2 48.7,25 48.8,24.8 48.9,24.6 49,24.5 49.1,24.3 49.3,24.2 
		49.4,24.1 49.5,23.9 49.7,23.8 49.8,23.7 50,23.6 50.2,23.5 50.3,23.4 50.5,23.4 50.7,23.3 50.9,23.2 51.1,23.2 51.3,23.1 
		51.5,23.1 51.7,23.1 51.9,23 52.1,23 52.4,23 52.6,23 52.8,23 53,23.1 53.2,23.1 53.3,23.1 53.5,23.1 53.7,23.2 53.8,23.2 54,23.2 
		54.1,23.3 54.2,23.3 54.3,23.4 54.4,23.4 54.5,23.4 54.5,23.4 54.6,23.5 	"/>
	<g>
		<g>
			<polyline class="st7" points="54.2,25.2 54.2,25.2 54.2,25.1 54.1,25.1 54,25.1 53.9,25 53.8,25 53.7,24.9 53.6,24.9 53.5,24.9 
				53.4,24.8 53.2,24.8 53.1,24.8 53,24.8 52.8,24.8 52.7,24.7 52.5,24.7 52.4,24.7 52.4,24.7 52.2,24.7 52.1,24.8 51.9,24.8 
				51.7,24.8 51.5,24.9 51.4,24.9 51.2,25 51,25.1 50.8,25.3 50.7,25.4 50.5,25.6 50.4,25.9 50.2,26.1 50.1,26.4 50,26.8 49.9,27.2 
				49.9,27.2 49.9,27.4 49.8,27.6 49.8,27.9 49.8,28.1 49.8,28.3 49.9,28.5 49.9,28.7 50,28.9 50.1,29 50.2,29.2 50.3,29.3 
				50.5,29.5 50.7,29.6 50.9,29.7 51.1,29.8 51.3,29.8 51.3,29.8 51.4,29.8 51.5,29.9 51.6,29.9 51.7,29.9 51.9,29.9 52,29.9 
				52.2,29.9 52.3,29.9 52.5,29.9 52.6,29.8 52.8,29.8 53,29.7 53.1,29.7 53.3,29.6 53.4,29.5 53.5,29.4 53.2,31 53.2,31 53.2,31.1 
				53.2,31.1 53.1,31.2 53.1,31.2 53,31.2 52.9,31.3 52.8,31.3 52.7,31.4 52.5,31.4 52.4,31.4 52.2,31.5 52,31.5 51.7,31.5 
				51.4,31.5 51.1,31.5 50.8,31.5 50.8,31.5 50.5,31.5 50.2,31.4 49.9,31.3 49.6,31.2 49.3,31 49.1,30.8 48.8,30.6 48.6,30.4 
				48.4,30.1 48.2,29.8 48.1,29.4 48,29 47.9,28.6 47.9,28.2 47.9,27.7 47.9,27.2 47.9,27.2 48,26.9 48,26.7 48.1,26.4 48.2,26.2 
				48.2,26 48.3,25.7 48.4,25.5 48.5,25.3 48.6,25.2 48.7,25 48.8,24.8 48.9,24.6 49,24.5 49.1,24.3 49.3,24.2 49.4,24.1 49.5,23.9 
				49.7,23.8 49.8,23.7 50,23.6 50.2,23.5 50.3,23.4 50.5,23.4 50.7,23.3 50.9,23.2 51.1,23.2 51.3,23.1 51.5,23.1 51.7,23.1 
				51.9,23 52.1,23 52.4,23 52.4,23 52.6,23 52.8,23 53,23.1 53.2,23.1 53.3,23.1 53.5,23.1 53.7,23.2 53.8,23.2 54,23.2 54.1,23.3 
				54.2,23.3 54.3,23.4 54.4,23.4 54.5,23.4 54.5,23.4 54.6,23.5 54.2,25.2 			"/>
		</g>
	</g>
	<polygon class="st6" points="69.7,31.5 67.9,31.5 68,30.8 68,30.8 67.9,30.9 67.8,31 67.7,31.1 67.6,31.2 67.5,31.3 67.4,31.3 
		67.3,31.4 67.2,31.4 67,31.5 66.9,31.5 66.8,31.6 66.7,31.6 66.6,31.6 66.4,31.6 66.3,31.6 66.2,31.6 65.9,31.6 65.6,31.5 
		65.3,31.4 65,31.3 64.8,31.1 64.6,30.9 64.4,30.6 64.3,30.4 64.2,30.1 64.1,29.8 64,29.5 63.9,29.2 63.9,28.9 63.9,28.5 64,28.2 
		64,27.9 64.1,27.5 64.2,27.2 64.3,26.9 64.5,26.6 64.7,26.3 64.9,26 65.1,25.8 65.3,25.6 65.5,25.4 65.7,25.3 65.9,25.1 66.2,25 
		66.4,24.9 66.7,24.9 66.9,24.8 67.2,24.8 67.4,24.8 67.5,24.8 67.7,24.9 67.9,24.9 68,25 68.1,25 68.3,25.1 68.4,25.2 68.5,25.2 
		68.6,25.3 68.6,25.4 68.7,25.5 68.8,25.6 68.8,25.6 68.9,25.7 68.9,25.8 68.9,25.8 69.4,23.3 71.1,23.3 	"/>
	<g>
		<g>
			<polyline class="st7" points="69.7,31.5 67.9,31.5 68,30.8 68,30.8 68,30.8 67.9,30.9 67.8,31 67.7,31.1 67.6,31.2 67.5,31.3 
				67.4,31.3 67.3,31.4 67.2,31.4 67,31.5 66.9,31.5 66.8,31.6 66.7,31.6 66.6,31.6 66.4,31.6 66.3,31.6 66.2,31.6 66.2,31.6 
				65.9,31.6 65.6,31.5 65.3,31.4 65,31.3 64.8,31.1 64.6,30.9 64.4,30.6 64.3,30.4 64.2,30.1 64.1,29.8 64,29.5 63.9,29.2 
				63.9,28.9 63.9,28.5 64,28.2 64,27.9 64,27.9 64.1,27.5 64.2,27.2 64.3,26.9 64.5,26.6 64.7,26.3 64.9,26 65.1,25.8 65.3,25.6 
				65.5,25.4 65.7,25.3 65.9,25.1 66.2,25 66.4,24.9 66.7,24.9 66.9,24.8 67.2,24.8 67.2,24.8 67.4,24.8 67.5,24.8 67.7,24.9 
				67.9,24.9 68,25 68.1,25 68.3,25.1 68.4,25.2 68.5,25.2 68.6,25.3 68.6,25.4 68.7,25.5 68.8,25.6 68.8,25.6 68.9,25.7 68.9,25.8 
				68.9,25.8 69.4,23.3 71.1,23.3 69.7,31.5 			"/>
		</g>
	</g>
	<polygon class="st4" points="66.8,30 67,30 67.2,30 67.3,29.9 67.4,29.8 67.6,29.8 67.7,29.7 67.8,29.6 67.9,29.5 68,29.3 
		68.1,29.2 68.2,29 68.3,28.9 68.3,28.7 68.4,28.6 68.4,28.4 68.4,28.2 68.5,28.1 68.5,27.9 68.5,27.7 68.5,27.5 68.5,27.4 
		68.4,27.2 68.4,27.1 68.4,26.9 68.3,26.8 68.2,26.7 68.1,26.6 68,26.5 67.9,26.4 67.8,26.4 67.7,26.3 67.6,26.3 67.4,26.3 
		67.2,26.4 67.1,26.4 67,26.5 66.8,26.6 66.7,26.7 66.6,26.8 66.5,26.9 66.4,27 66.3,27.2 66.2,27.3 66.2,27.5 66.1,27.6 66.1,27.8 
		66,28 66,28.2 65.9,28.5 65.9,28.8 66,29.1 66.1,29.4 66.2,29.6 66.4,29.8 66.6,30 	"/>
	<polygon class="st6" points="28.4,30.1 28.1,31.5 26.6,31.5 26.6,31.3 26.6,31 26.7,30.9 26.7,30.8 26.6,30.9 26.5,31 26.4,31.1 
		26.2,31.1 26.1,31.2 25.9,31.3 25.8,31.4 25.6,31.4 25.4,31.5 25.2,31.5 25.1,31.6 24.9,31.6 24.7,31.6 24.5,31.6 24.3,31.6 
		24.2,31.6 23.9,31.5 23.7,31.5 23.6,31.4 23.4,31.3 23.3,31.2 23.1,31.1 23,31 23,30.8 22.9,30.7 22.8,30.6 22.8,30.4 22.7,30.3 
		22.7,30.1 22.7,30 22.7,29.9 22.7,29.7 22.7,29.5 22.7,29.2 22.8,29 22.9,28.8 23,28.6 23.1,28.4 23.2,28.3 23.4,28.1 23.5,28 
		23.7,27.8 23.9,27.7 24.1,27.6 24.3,27.5 24.5,27.4 24.7,27.4 24.9,27.4 24.9,27.4 25,27.3 25,27.3 25.1,27.3 25.1,27.3 25.2,27.3 
		25.3,27.3 25.4,27.3 25.5,27.3 25.6,27.3 25.8,27.3 25.9,27.2 26,27.2 26.1,27.2 26.1,27.2 26.2,27.2 26.4,27.2 26.5,27.2 
		26.6,27.2 26.8,27.2 26.9,27.2 27,27.3 27,27.3 27.1,27.3 27.1,27.2 27.1,27.1 27.1,27 27.2,26.9 27.1,26.7 27.1,26.6 27,26.5 
		26.9,26.4 26.8,26.3 26.6,26.2 26.5,26.2 26.3,26.2 26.2,26.2 26,26.2 25.8,26.2 25.6,26.2 25.4,26.2 25.2,26.2 25,26.2 24.8,26.3 
		24.6,26.3 24.4,26.3 24.2,26.4 24.1,26.4 24,26.4 23.8,26.5 23.8,26.5 23.7,26.5 24.1,25 24.3,25 24.4,24.9 24.6,24.9 24.7,24.9 
		24.9,24.8 25,24.8 25.2,24.8 25.4,24.8 25.5,24.7 25.7,24.7 25.9,24.7 26.1,24.7 26.3,24.7 26.5,24.7 26.7,24.7 26.9,24.7 
		27.1,24.8 27.3,24.8 27.5,24.8 27.7,24.9 27.9,25 28.1,25.1 28.3,25.2 28.4,25.3 28.6,25.4 28.7,25.6 28.9,25.7 28.9,25.9 29,26.1 
		29,26.3 29,26.6 29,26.8 	"/>
	<g>
		<g>
			<polyline class="st7" points="28.4,30.1 28.1,31.5 26.6,31.5 26.6,31.5 26.6,31.3 26.6,31 26.7,30.9 26.7,30.8 26.7,30.8 
				26.6,30.9 26.5,31 26.4,31.1 26.2,31.1 26.1,31.2 25.9,31.3 25.8,31.4 25.6,31.4 25.4,31.5 25.2,31.5 25.1,31.6 24.9,31.6 
				24.7,31.6 24.5,31.6 24.3,31.6 24.2,31.6 24.2,31.6 23.9,31.5 23.7,31.5 23.6,31.4 23.4,31.3 23.3,31.2 23.1,31.1 23,31 23,30.8 
				22.9,30.7 22.8,30.6 22.8,30.4 22.7,30.3 22.7,30.1 22.7,30 22.7,29.9 22.7,29.7 22.7,29.7 22.7,29.5 22.7,29.2 22.8,29 
				22.9,28.8 23,28.6 23.1,28.4 23.2,28.3 23.4,28.1 23.5,28 23.7,27.8 23.9,27.7 24.1,27.6 24.3,27.5 24.5,27.4 24.7,27.4 
				24.9,27.4 24.9,27.4 24.9,27.4 25,27.3 25,27.3 25.1,27.3 25.1,27.3 25.2,27.3 25.3,27.3 25.4,27.3 25.5,27.3 25.6,27.3 
				25.8,27.3 25.9,27.2 26,27.2 26.1,27.2 26.1,27.2 26.2,27.2 26.2,27.2 26.4,27.2 26.5,27.2 26.6,27.2 26.8,27.2 26.9,27.2 
				27,27.3 27,27.3 27.1,27.3 27.1,27.3 27.1,27.2 27.1,27.1 27.1,27 27.2,26.9 27.2,26.9 27.1,26.7 27.1,26.6 27,26.5 26.9,26.4 
				26.8,26.3 26.6,26.2 26.5,26.2 26.3,26.2 26.3,26.2 26.2,26.2 26,26.2 25.8,26.2 25.6,26.2 25.4,26.2 25.2,26.2 25,26.2 
				24.8,26.3 24.6,26.3 24.4,26.3 24.2,26.4 24.1,26.4 24,26.4 23.8,26.5 23.8,26.5 23.7,26.5 24.1,25 24.1,25 24.3,25 24.4,24.9 
				24.6,24.9 24.7,24.9 24.9,24.8 25,24.8 25.2,24.8 25.4,24.8 25.5,24.7 25.7,24.7 25.9,24.7 26.1,24.7 26.3,24.7 26.5,24.7 
				26.7,24.7 26.9,24.7 26.9,24.7 27.1,24.8 27.3,24.8 27.5,24.8 27.7,24.9 27.9,25 28.1,25.1 28.3,25.2 28.4,25.3 28.6,25.4 
				28.7,25.6 28.9,25.7 28.9,25.9 29,26.1 29,26.3 29,26.6 29,26.8 28.4,30.1 			"/>
		</g>
	</g>
	<polygon class="st5" points="26.9,28.5 26.9,28.5 26.8,28.4 26.8,28.4 26.7,28.4 26.7,28.4 26.6,28.4 26.5,28.4 26.4,28.4 
		26.3,28.4 26.2,28.4 26.1,28.4 26,28.4 25.9,28.4 25.8,28.5 25.7,28.5 25.7,28.5 25.6,28.5 25.6,28.5 25.5,28.6 25.4,28.6 
		25.4,28.6 25.3,28.7 25.2,28.7 25.1,28.8 25,28.8 24.9,28.9 24.9,29 24.8,29 24.7,29.1 24.7,29.2 24.6,29.3 24.6,29.4 24.6,29.6 
		24.7,29.8 24.7,29.9 24.8,30 24.9,30.1 25,30.1 25.1,30.1 25.2,30.1 25.4,30.1 25.6,30.1 25.7,30.1 25.9,30 26,30 26.1,29.9 
		26.2,29.9 26.3,29.8 26.4,29.8 26.5,29.7 26.5,29.6 26.6,29.5 26.6,29.5 26.7,29.4 26.7,29.3 26.7,29.2 26.8,29.1 26.8,28.9 
		26.8,28.7 	"/>
	<polygon class="st6" points="15.2,31.5 13.5,31.5 14.9,23.3 17.9,23.3 18.2,28.2 20.2,23.3 23.3,23.3 21.9,31.5 20.2,31.5 
		21.2,25.4 21.2,25.4 18.6,31.5 16.7,31.5 16.7,31.3 16.6,30.6 16.6,29.6 16.5,28.5 16.5,27.4 16.4,26.4 16.4,25.7 16.3,25.4 
		16.3,25.4 16.3,25.4 16.2,25.4 16.2,25.4 	"/>
	<g>
		<g>
			<polyline class="st7" points="15.2,31.5 13.5,31.5 14.9,23.3 17.9,23.3 18.2,28.2 20.2,23.3 23.3,23.3 21.9,31.5 20.2,31.5 
				21.2,25.4 21.2,25.4 18.6,31.5 16.7,31.5 16.7,31.5 16.7,31.3 16.6,30.6 16.6,29.6 16.5,28.5 16.5,27.4 16.4,26.4 16.4,25.7 
				16.3,25.4 16.3,25.4 16.3,25.4 16.3,25.4 16.2,25.4 16.2,25.4 15.2,31.5 			"/>
		</g>
	</g>
	<polygon class="st6" points="59.4,30.1 59.2,31.5 57.6,31.5 57.6,31.3 57.6,31 57.6,30.9 57.6,30.8 57.6,30.9 57.5,31 57.4,31.1 
		57.2,31.2 57.1,31.2 57,31.3 56.8,31.4 56.6,31.4 56.5,31.5 56.3,31.5 56.1,31.6 55.9,31.6 55.8,31.6 55.6,31.6 55.4,31.6 
		55.2,31.6 55,31.5 54.8,31.5 54.6,31.4 54.5,31.3 54.3,31.2 54.2,31.1 54.1,31 54,30.8 54,30.7 53.9,30.6 53.9,30.4 53.8,30.3 
		53.8,30.1 53.8,30 53.8,29.9 53.8,29.7 53.8,29.5 53.8,29.2 53.9,29 54,28.8 54.1,28.6 54.2,28.4 54.3,28.3 54.4,28.1 54.6,28 
		54.8,27.8 55,27.7 55.2,27.6 55.3,27.5 55.6,27.4 55.8,27.4 56,27.4 56,27.4 56,27.3 56.1,27.3 56.1,27.3 56.2,27.3 56.3,27.3 
		56.4,27.3 56.5,27.3 56.6,27.3 56.7,27.3 56.8,27.3 56.9,27.2 57,27.2 57.1,27.2 57.2,27.2 57.3,27.2 57.4,27.2 57.6,27.2 
		57.7,27.2 57.8,27.2 58,27.2 58.1,27.3 58.1,27.3 58.1,27.3 58.2,27.2 58.2,27.1 58.2,27 58.2,26.9 58.2,26.7 58.1,26.6 58.1,26.5 
		58,26.4 57.8,26.3 57.7,26.2 57.6,26.2 57.4,26.2 57.3,26.2 57.1,26.2 56.9,26.2 56.7,26.2 56.5,26.2 56.3,26.2 56.1,26.2 
		55.9,26.3 55.7,26.3 55.5,26.3 55.3,26.4 55.2,26.4 55,26.4 54.9,26.5 54.8,26.5 54.8,26.5 55.2,25 55.4,25 55.5,24.9 55.6,24.9 
		55.8,24.9 55.9,24.8 56.1,24.8 56.3,24.8 56.4,24.8 56.6,24.7 56.8,24.7 57,24.7 57.2,24.7 57.4,24.7 57.6,24.7 57.8,24.7 58,24.7 
		58.2,24.8 58.4,24.8 58.5,24.8 58.7,24.9 58.9,25 59.1,25.1 59.3,25.2 59.5,25.3 59.7,25.4 59.8,25.6 59.9,25.7 60,25.9 60.1,26.1 
		60.1,26.3 60.1,26.6 60.1,26.8 	"/>
	<polygon class="st6" points="59.2,31.6 59.2,31.5 59.5,30.1 59.4,30.1 59.1,31.5 59.2,31.5 59.2,31.6 59.2,31.6 59.2,31.5 	"/>
	<polygon class="st6" points="57.6,31.5 57.6,31.6 59.2,31.6 59.2,31.5 57.6,31.5 57.7,31.5 57.6,31.5 57.6,31.6 57.6,31.6 	"/>
	<polygon class="st6" points="57.7,30.8 57.6,30.8 57.6,30.9 57.6,31 57.6,31.3 57.6,31.5 57.7,31.5 57.7,31.3 57.7,31 57.7,30.9 
		57.7,30.8 57.6,30.8 	"/>
	<polygon class="st6" points="55.2,31.6 55.2,31.6 55.4,31.6 55.6,31.7 55.8,31.7 55.9,31.6 56.1,31.6 56.3,31.6 56.5,31.5 
		56.7,31.5 56.8,31.4 57,31.3 57.1,31.3 57.3,31.2 57.4,31.1 57.5,31 57.6,30.9 57.7,30.8 57.6,30.8 57.5,30.9 57.4,30.9 57.3,31 
		57.2,31.1 57.1,31.2 56.9,31.3 56.8,31.3 56.6,31.4 56.5,31.5 56.3,31.5 56.1,31.5 55.9,31.6 55.8,31.6 55.6,31.6 55.4,31.6 
		55.3,31.5 55.3,31.5 	"/>
	<polygon class="st6" points="53.7,29.7 53.7,29.7 53.7,29.9 53.7,30 53.8,30.1 53.8,30.3 53.8,30.4 53.9,30.6 53.9,30.7 54,30.8 
		54.1,31 54.2,31.1 54.3,31.2 54.5,31.3 54.6,31.4 54.8,31.5 55,31.6 55.2,31.6 55.3,31.5 55,31.5 54.8,31.4 54.7,31.3 54.5,31.3 
		54.4,31.2 54.3,31 54.2,30.9 54.1,30.8 54,30.7 53.9,30.5 53.9,30.4 53.9,30.3 53.8,30.1 53.8,30 53.8,29.9 53.8,29.7 53.8,29.7 	
		"/>
	<polygon class="st6" points="56,27.3 56,27.3 55.8,27.4 55.5,27.4 55.3,27.5 55.1,27.6 54.9,27.7 54.8,27.8 54.6,27.9 54.4,28.1 
		54.3,28.2 54.1,28.4 54,28.6 53.9,28.8 53.8,29 53.8,29.2 53.7,29.5 53.7,29.7 53.8,29.7 53.8,29.5 53.9,29.3 53.9,29 54,28.8 
		54.1,28.6 54.2,28.5 54.3,28.3 54.5,28.1 54.6,28 54.8,27.9 55,27.7 55.2,27.6 55.4,27.6 55.6,27.5 55.8,27.4 56,27.4 56,27.4 	"/>
	<polygon class="st6" points="57.3,27.2 57.3,27.2 57.2,27.2 57.1,27.2 57,27.2 56.9,27.2 56.8,27.2 56.7,27.2 56.6,27.2 56.5,27.3 
		56.4,27.3 56.3,27.3 56.2,27.3 56.1,27.3 56.1,27.3 56,27.3 56,27.3 56,27.3 56,27.4 56,27.4 56,27.4 56.1,27.4 56.1,27.4 
		56.2,27.4 56.3,27.4 56.4,27.3 56.5,27.3 56.6,27.3 56.7,27.3 56.8,27.3 56.9,27.3 57,27.3 57.1,27.3 57.2,27.3 57.3,27.3 
		57.3,27.3 	"/>
	<polygon class="st6" points="58.1,27.3 58.1,27.2 58.1,27.2 58.1,27.2 58,27.2 57.8,27.2 57.7,27.2 57.6,27.2 57.4,27.2 57.3,27.2 
		57.3,27.3 57.4,27.3 57.6,27.3 57.7,27.3 57.8,27.3 58,27.3 58.1,27.3 58.1,27.3 58.1,27.3 58.2,27.3 58.1,27.3 58.2,27.3 
		58.2,27.3 	"/>
	<polygon class="st6" points="58.2,26.9 58.2,26.9 58.2,27 58.1,27.1 58.1,27.2 58.1,27.3 58.2,27.3 58.2,27.2 58.2,27.1 58.2,27 
		58.3,26.9 58.2,26.9 	"/>
	<polygon class="st6" points="57.4,26.2 57.4,26.2 57.6,26.2 57.7,26.3 57.8,26.3 57.9,26.4 58,26.5 58.1,26.6 58.1,26.7 58.2,26.9 
		58.2,26.9 58.2,26.7 58.2,26.6 58.1,26.5 58,26.4 57.9,26.3 57.7,26.2 57.6,26.2 57.4,26.2 57.4,26.2 	"/>
	<polygon class="st6" points="54.7,26.5 54.8,26.6 54.9,26.5 54.9,26.5 55.1,26.5 55.2,26.4 55.3,26.4 55.5,26.4 55.7,26.3 
		55.9,26.3 56.1,26.3 56.3,26.3 56.5,26.2 56.7,26.2 56.9,26.2 57.1,26.2 57.3,26.2 57.4,26.2 57.4,26.2 57.3,26.2 57.1,26.1 
		56.9,26.1 56.7,26.2 56.5,26.2 56.3,26.2 56.1,26.2 55.9,26.2 55.7,26.3 55.5,26.3 55.3,26.3 55.2,26.3 55,26.4 54.9,26.4 
		54.8,26.5 54.8,26.5 54.8,26.5 	"/>
	<polygon class="st6" points="55.2,25 55.2,25 54.7,26.5 54.8,26.5 55.3,25 55.2,25.1 55.2,25 55.2,25 55.2,25 	"/>
	<polygon class="st6" points="58,24.7 58,24.7 57.8,24.7 57.6,24.7 57.4,24.7 57.2,24.7 57,24.7 56.8,24.7 56.6,24.7 56.4,24.7 
		56.3,24.7 56.1,24.8 55.9,24.8 55.8,24.8 55.6,24.8 55.5,24.9 55.3,24.9 55.2,25 55.2,25.1 55.4,25 55.5,25 55.6,24.9 55.8,24.9 
		56,24.9 56.1,24.8 56.3,24.8 56.4,24.8 56.6,24.8 56.8,24.8 57,24.8 57.2,24.8 57.4,24.8 57.6,24.8 57.8,24.8 58,24.8 58,24.8 	"/>
	<polygon class="st6" points="60.1,26.8 60.1,26.8 60.2,26.6 60.2,26.3 60.1,26.1 60.1,25.9 60,25.7 59.8,25.5 59.7,25.4 59.5,25.2 
		59.3,25.1 59.2,25 59,24.9 58.8,24.9 58.6,24.8 58.4,24.8 58.2,24.7 58,24.7 58,24.8 58.2,24.8 58.3,24.8 58.5,24.9 58.7,24.9 
		58.9,25 59.1,25.1 59.3,25.2 59.5,25.3 59.6,25.4 59.8,25.6 59.9,25.8 60,25.9 60,26.1 60.1,26.3 60.1,26.6 60.1,26.8 60.1,26.8 	
		"/>
	<polygon class="st6" points="59.5,30.1 59.5,30.1 60.1,26.8 60.1,26.8 59.4,30.1 59.4,30.1 	"/>
	<polygon class="st4" points="57.9,28.5 57.9,28.5 57.9,28.4 57.8,28.4 57.8,28.4 57.7,28.4 57.6,28.4 57.5,28.4 57.4,28.4 
		57.3,28.4 57.2,28.4 57.1,28.4 57.1,28.4 57,28.5 56.9,28.5 56.8,28.5 56.7,28.5 56.7,28.5 56.6,28.5 56.6,28.5 56.5,28.6 
		56.4,28.6 56.4,28.6 56.3,28.7 56.2,28.7 56.1,28.8 56,28.9 55.9,28.9 55.9,29 55.8,29.1 55.8,29.2 55.7,29.3 55.7,29.4 55.7,29.6 
		55.7,29.8 55.8,29.9 55.9,30 56,30.1 56.1,30.1 56.2,30.1 56.3,30.1 56.5,30.1 56.7,30.1 56.8,30.1 57,30 57.1,30 57.2,29.9 
		57.3,29.9 57.4,29.8 57.5,29.7 57.6,29.6 57.7,29.6 57.7,29.5 57.8,29.4 57.8,29.3 57.8,29.3 57.8,29.2 57.9,29 57.9,28.8 
		57.9,28.7 	"/>
	<g>
		<g>
			<polygon class="st6" points="70.8,30.7 70.8,30.5 70.9,30.3 71,30.2 71.1,30.1 71.2,30 71.4,29.9 71.5,29.8 71.7,29.8 71.9,29.8 
				72,29.9 72.2,30 72.3,30.1 72.4,30.2 72.5,30.3 72.6,30.5 72.6,30.7 72.4,30.7 72.4,30.5 72.3,30.4 72.3,30.3 72.2,30.2 
				72.1,30.1 72,30 71.8,30 71.7,30 71.6,30 71.4,30 71.3,30.1 71.2,30.2 71.1,30.3 71.1,30.4 71,30.5 71,30.7 			"/>
			<polygon class="st6" points="71.4,30.7 71.4,30.3 71.7,30.3 71.8,30.3 71.9,30.3 71.9,30.3 72,30.3 72,30.4 72,30.4 72,30.5 
				72,30.5 72,30.6 72,30.6 72,30.6 72,30.7 71.7,30.7 71.8,30.7 71.8,30.6 71.8,30.6 71.9,30.6 71.9,30.6 71.9,30.6 71.9,30.6 
				71.9,30.5 71.9,30.5 71.9,30.5 71.9,30.4 71.9,30.4 71.8,30.4 71.8,30.4 71.8,30.4 71.7,30.4 71.5,30.4 71.5,30.7 			"/>
			<polygon class="st6" points="70.8,30.7 70.8,30.7 70.8,30.9 70.9,31 71,31.2 71.1,31.3 71.2,31.4 71.4,31.5 71.5,31.6 71.7,31.6 
				71.9,31.6 72,31.5 72.2,31.4 72.3,31.3 72.4,31.2 72.5,31 72.6,30.9 72.6,30.7 72.6,30.7 72.4,30.7 72.4,30.7 72.4,30.8 72.3,31 
				72.3,31.1 72.2,31.2 72.1,31.3 72,31.4 71.8,31.4 71.7,31.4 71.6,31.4 71.4,31.4 71.3,31.3 71.2,31.2 71.1,31.1 71.1,31 71,30.8 
				71,30.7 71,30.7 			"/>
			<polygon class="st6" points="71.4,30.7 71.4,31 71.5,31 71.5,30.7 71.7,30.7 71.9,31 72,31 71.8,30.7 71.9,30.7 71.9,30.7 
				71.9,30.7 72,30.7 72,30.7 71.7,30.7 71.7,30.7 71.5,30.7 71.5,30.7 			"/>
		</g>
	</g>
	<g>
		<g>
			<polyline class="st7" points="70.8,30.7 70.8,30.7 70.8,30.5 70.9,30.3 71,30.2 71.1,30.1 71.2,30 71.4,29.9 71.5,29.8 
				71.7,29.8 71.7,29.8 71.9,29.8 72,29.9 72.2,30 72.3,30.1 72.4,30.2 72.5,30.3 72.6,30.5 72.6,30.7 72.6,30.7 72.6,30.9 72.5,31 
				72.4,31.2 72.3,31.3 72.2,31.4 72,31.5 71.9,31.6 71.7,31.6 71.7,31.6 71.5,31.6 71.4,31.5 71.2,31.4 71.1,31.3 71,31.2 70.9,31 
				70.8,30.9 70.8,30.7 			"/>
		</g>
	</g>
	<g>
		<g>
			<polyline class="st7" points="71.5,31 71.4,31 71.4,30.3 71.7,30.3 71.7,30.3 71.8,30.3 71.9,30.3 71.9,30.3 72,30.3 72,30.4 
				72,30.4 72,30.5 72,30.5 72,30.5 72,30.6 72,30.6 72,30.6 72,30.7 71.9,30.7 71.9,30.7 71.9,30.7 71.8,30.7 72,31 71.9,31 
				71.7,30.7 71.5,30.7 71.5,31 			"/>
		</g>
	</g>
	<g>
		<g>
			<polyline class="st7" points="71.7,30.7 71.7,30.7 71.8,30.7 71.8,30.6 71.8,30.6 71.9,30.6 71.9,30.6 71.9,30.6 71.9,30.6 
				71.9,30.5 71.9,30.5 71.9,30.5 71.9,30.5 71.9,30.4 71.9,30.4 71.8,30.4 71.8,30.4 71.8,30.4 71.7,30.4 71.5,30.4 71.5,30.7 
				71.7,30.7 			"/>
		</g>
	</g>
	<g>
		<g>
			<polyline class="st7" points="71.7,31.4 71.7,31.4 71.8,31.4 72,31.4 72.1,31.3 72.2,31.2 72.3,31.1 72.3,31 72.4,30.8 
				72.4,30.7 72.4,30.7 72.4,30.5 72.3,30.4 72.3,30.3 72.2,30.2 72.1,30.1 72,30 71.8,30 71.7,30 71.7,30 71.6,30 71.4,30 
				71.3,30.1 71.2,30.2 71.1,30.3 71.1,30.4 71,30.5 71,30.7 71,30.7 71,30.8 71.1,31 71.1,31.1 71.2,31.2 71.3,31.3 71.4,31.4 
				71.6,31.4 71.7,31.4 			"/>
		</g>
	</g>
	<polygon class="st6" points="59.9,31.5 61.7,31.5 61.7,31.5 62.3,28 62.3,27.8 62.4,27.7 62.4,27.5 62.5,27.4 62.5,27.3 62.6,27.1 
		62.7,27 62.8,26.9 62.9,26.8 63,26.7 63.2,26.6 63.3,26.5 63.5,26.5 63.7,26.4 63.9,26.4 64.2,26.4 64.3,26.4 64.3,26.4 64.3,26.4 
		64.3,26.4 64.6,24.7 64.4,24.8 64.3,24.8 64.1,24.8 64,24.9 63.8,24.9 63.7,25 63.6,25 63.4,25.1 63.3,25.2 63.2,25.3 63.1,25.4 
		63,25.5 62.9,25.6 62.8,25.7 62.7,25.8 62.7,25.9 62.8,24.8 61.1,24.8 59.9,31.5 	"/>
	<g>
		<g>
			<polyline class="st7" points="59.9,31.5 61.7,31.5 61.7,31.5 62.3,28 62.3,28 62.3,27.8 62.4,27.7 62.4,27.5 62.5,27.4 
				62.5,27.3 62.6,27.1 62.7,27 62.8,26.9 62.9,26.8 63,26.7 63.2,26.6 63.3,26.5 63.5,26.5 63.7,26.4 63.9,26.4 64.2,26.4 
				64.2,26.4 64.3,26.4 64.3,26.4 64.3,26.4 64.3,26.4 64.6,24.7 64.6,24.7 64.4,24.8 64.3,24.8 64.1,24.8 64,24.9 63.8,24.9 
				63.7,25 63.6,25 63.4,25.1 63.3,25.2 63.2,25.3 63.1,25.4 63,25.5 62.9,25.6 62.8,25.7 62.7,25.8 62.7,25.9 62.8,24.8 61.1,24.8 
				59.9,31.5 59.9,31.5 			"/>
		</g>
	</g>
	<polygon class="st6" points="43.3,31.5 45.1,31.5 45.1,31.5 45.7,28 45.8,27.8 45.8,27.7 45.8,27.6 45.9,27.4 45.9,27.3 46,27.2 
		46.1,27.1 46.1,27 46.2,26.9 46.4,26.8 46.5,26.7 46.6,26.6 46.8,26.6 47,26.5 47.2,26.5 47.5,26.5 47.5,26.5 47.5,26.5 47.5,26.5 
		47.6,26.5 47.6,26.5 47.6,26.5 47.7,26.5 47.7,26.5 47.7,26.5 47.7,26.4 47.7,26.3 47.7,26.2 47.8,26 47.8,25.8 47.9,25.6 
		47.9,25.5 48,25.4 48.1,25.2 48.1,25.1 48.2,25 48.2,24.9 48.3,24.8 48.3,24.8 48.3,24.8 48.3,24.8 48.3,24.8 48.3,24.8 48.2,24.8 
		48.2,24.8 48.1,24.8 48.1,24.7 48,24.7 47.8,24.8 47.7,24.8 47.5,24.8 47.4,24.8 47.2,24.9 47.1,25 47,25 46.8,25.1 46.7,25.2 
		46.6,25.3 46.5,25.4 46.4,25.5 46.4,25.6 46.3,25.7 46.2,25.8 46.1,25.9 46.3,24.8 44.5,24.8 43.3,31.5 	"/>
	<g>
		<g>
			<polyline class="st7" points="43.3,31.5 45.1,31.5 45.1,31.5 45.7,28 45.7,28 45.8,27.8 45.8,27.7 45.8,27.6 45.9,27.4 
				45.9,27.3 46,27.2 46.1,27.1 46.1,27 46.2,26.9 46.4,26.8 46.5,26.7 46.6,26.6 46.8,26.6 47,26.5 47.2,26.5 47.5,26.5 47.5,26.5 
				47.5,26.5 47.5,26.5 47.5,26.5 47.6,26.5 47.6,26.5 47.6,26.5 47.7,26.5 47.7,26.5 47.7,26.5 47.7,26.5 47.7,26.4 47.7,26.3 
				47.7,26.2 47.8,26 47.8,25.8 47.9,25.6 47.9,25.5 47.9,25.5 48,25.4 48.1,25.2 48.1,25.1 48.2,25 48.2,24.9 48.3,24.8 48.3,24.8 
				48.3,24.8 48.3,24.8 48.3,24.8 48.3,24.8 48.3,24.8 48.2,24.8 48.2,24.8 48.1,24.8 48.1,24.7 48,24.7 48,24.7 47.8,24.8 
				47.7,24.8 47.5,24.8 47.4,24.8 47.2,24.9 47.1,25 47,25 46.8,25.1 46.7,25.2 46.6,25.3 46.5,25.4 46.4,25.5 46.4,25.6 46.3,25.7 
				46.2,25.8 46.1,25.9 46.3,24.8 44.5,24.8 43.3,31.5 43.3,31.5 			"/>
		</g>
	</g>
	<g>
		<g>
			<polygon class="st4" points="70.8,38.1 70.8,38.1 70.9,37.9 71,37.8 71.1,37.6 71.2,37.5 71.4,37.5 71.5,37.4 71.7,37.4 
				71.9,37.4 72,37.5 72.2,37.5 72.3,37.6 72.4,37.8 72.5,37.9 72.6,38.1 72.6,38.1 72.4,38.1 72.3,38 72.3,37.9 72.2,37.7 
				72.1,37.7 72,37.6 71.8,37.5 71.7,37.5 71.6,37.5 71.4,37.6 71.3,37.7 71.2,37.7 71.1,37.9 71.1,38 71,38.1 			"/>
			<polygon class="st4" points="71.4,38.1 71.4,37.9 71.7,37.9 71.8,37.9 71.9,37.9 71.9,37.9 72,37.9 72,38 72,38 72,38 72,38.1 
				71.9,38.1 71.9,38.1 71.9,38 71.9,38 71.9,38 71.9,38 71.8,38 71.8,38 71.8,38 71.7,38 71.5,38 71.5,38.1 			"/>
			<polygon class="st4" points="70.8,38.2 70.8,38.1 71,38.1 71,38.1 71,38.2 			"/>
			<polygon class="st4" points="71.4,38.2 71.4,38.1 71.5,38.1 71.5,38.2 71.7,38.2 71.8,38.2 71.8,38.2 71.8,38.2 71.9,38.2 
				71.9,38.2 71.9,38.1 71.9,38.1 71.9,38.1 72,38.1 72,38.1 72,38.1 72,38.2 72,38.2 72,38.2 			"/>
			<polygon class="st4" points="72.4,38.2 72.4,38.1 72.4,38.1 72.6,38.1 72.6,38.2 			"/>
			<polygon class="st4" points="70.8,38.2 70.8,38.3 70.8,38.4 70.9,38.6 71,38.8 71.1,38.9 71.2,39 71.4,39.1 71.5,39.1 71.7,39.1 
				71.9,39.1 72,39.1 72.2,39 72.3,38.9 72.4,38.8 72.5,38.6 72.6,38.4 72.6,38.3 72.6,38.2 72.4,38.2 72.4,38.3 72.4,38.4 
				72.3,38.5 72.3,38.7 72.2,38.8 72.1,38.9 72,38.9 71.8,39 71.7,39 71.6,39 71.4,38.9 71.3,38.9 71.2,38.8 71.1,38.7 71.1,38.5 
				71,38.4 71,38.3 71,38.2 			"/>
			<polygon class="st4" points="71.4,38.2 71.4,38.6 71.5,38.6 71.5,38.3 71.7,38.3 71.9,38.6 72,38.6 71.8,38.3 71.9,38.3 
				71.9,38.3 71.9,38.3 72,38.2 72,38.2 			"/>
		</g>
	</g>
</g>
</svg>
