<?xml version="1.0" encoding="iso-8859-1"?>
<!-- Generator: Adobe Illustrator 19.1.0, SVG Export Plug-In . SVG Version: 6.00 Build 0)  -->
<svg version="1.1" id="Layer_1" xmlns="http://www.w3.org/2000/svg" xmlns:xlink="http://www.w3.org/1999/xlink" x="0px" y="0px"
	 viewBox="263.446 -15.838 86 54" style="enable-background:new 263.446 -15.838 86 54;" xml:space="preserve">
<g>
	<defs>
		<rect id="SVGID_1_" x="263.446" y="-15.838" width="86" height="54"/>
	</defs>
	<clipPath id="SVGID_2_">
		<use xlink:href="#SVGID_1_"  style="overflow:visible;"/>
	</clipPath>
	<g style="clip-path:url(#SVGID_2_);">
		
			<linearGradient id="SVGID_3_" gradientUnits="userSpaceOnUse" x1="306.446" y1="38.4855" x2="306.446" y2="-15.5145" gradientTransform="matrix(1 0 0 -1 0 22.6482)">
			<stop  offset="0" style="stop-color:#F9F9F9"/>
			<stop  offset="1" style="stop-color:#E1E1E1"/>
		</linearGradient>
		<path style="fill:url(#SVGID_3_);" d="M266.446-15.837h80c1.7,0,3,1.3,3,3v48c0,1.7-1.3,3-3,3h-80c-1.7,0-3-1.3-3-3v-48
			C263.446-14.537,264.746-15.837,266.446-15.837z"/>
		<g id="Layer_x0020_1">
			
				<linearGradient id="SVGID_4_" gradientUnits="userSpaceOnUse" x1="301.9767" y1="18.5005" x2="307.7455" y2="18.5005" gradientTransform="matrix(2.8346 0 0 -2.8346 -539.3859 63.605)">
				<stop  offset="0" style="stop-color:#007B40"/>
				<stop  offset="1" style="stop-color:#55B330"/>
			</linearGradient>
			<path style="fill:url(#SVGID_4_);" d="M319.852,11.968h0.033h0.064h0.064h0.064h0.064h0.064h0.064h0.064h0.064h0.064h0.064h0.064
				h0.064h0.064h0.064h0.064h0.064h0.064h0.064h0.064h0.064h0.064h0.064h0.064h0.064h0.064h0.064h0.064h0.064h0.064h0.064h0.064
				h0.064h0.064h0.064h0.064h0.064h0.064h0.064h0.064h0.064h0.064h0.064h0.064h0.064h0.064h0.064h0.064h0.064h0.064h0.064h0.064
				h0.064h0.064h0.064h0.064h0.064h0.064h0.064h0.064h0.053l0.011,0c0.02,0,0.041,0.001,0.064,0.003
				c0.021,0.001,0.042,0.003,0.064,0.004c0.021,0.002,0.043,0.003,0.064,0.005c0.022,0.002,0.043,0.004,0.064,0.006
				c0.022,0.002,0.044,0.005,0.064,0.008c0.023,0.003,0.044,0.006,0.064,0.01c0.014,0.002,0.027,0.005,0.039,0.007l0.025,0.006
				c0.021,0.005,0.043,0.01,0.064,0.016c0.021,0.006,0.043,0.012,0.064,0.019c0.021,0.007,0.043,0.014,0.064,0.022
				c0.021,0.008,0.043,0.016,0.064,0.025c0.022,0.009,0.043,0.018,0.064,0.028c0.022,0.01,0.043,0.02,0.064,0.031
				c0.022,0.011,0.043,0.022,0.064,0.034c0.022,0.012,0.043,0.025,0.064,0.038c0.022,0.013,0.043,0.027,0.064,0.042
				c0.022,0.015,0.043,0.03,0.064,0.046c0.022,0.016,0.043,0.033,0.064,0.051c0.022,0.018,0.043,0.037,0.064,0.056
				c0.022,0.02,0.043,0.041,0.064,0.062c0.022,0.022,0.043,0.045,0.064,0.069c0.022,0.025,0.043,0.051,0.064,0.077
				c0.022,0.028,0.044,0.058,0.064,0.088c0.022,0.033,0.044,0.067,0.064,0.101c0.023,0.039,0.044,0.079,0.064,0.12
				c0.024,0.049,0.045,0.099,0.064,0.151c0.026,0.07,0.047,0.142,0.064,0.216c0.029,0.129,0.045,0.265,0.045,0.407
				c0,0.143-0.016,0.279-0.045,0.409c-0.017,0.075-0.038,0.147-0.064,0.217c-0.019,0.052-0.04,0.102-0.064,0.151
				c-0.02,0.041-0.041,0.082-0.064,0.121c-0.02,0.035-0.042,0.068-0.064,0.101c-0.02,0.03-0.042,0.059-0.064,0.088
				c-0.021,0.026-0.042,0.052-0.064,0.077c-0.021,0.024-0.042,0.047-0.064,0.069c-0.021,0.021-0.042,0.042-0.064,0.062
				c-0.021,0.019-0.042,0.038-0.064,0.056c-0.021,0.017-0.042,0.034-0.064,0.051c-0.021,0.016-0.042,0.031-0.064,0.046
				c-0.021,0.014-0.042,0.028-0.064,0.042c-0.021,0.013-0.042,0.026-0.064,0.038c-0.021,0.012-0.042,0.023-0.064,0.034
				c-0.021,0.011-0.042,0.021-0.064,0.031c-0.021,0.01-0.042,0.019-0.064,0.027c-0.021,0.009-0.042,0.017-0.064,0.024
				c-0.021,0.008-0.042,0.015-0.064,0.021c-0.021,0.007-0.043,0.013-0.064,0.019c-0.021,0.006-0.043,0.011-0.064,0.016l-0.025,0.006
				c-0.012,0.003-0.025,0.005-0.039,0.008c-0.02,0.003-0.041,0.007-0.064,0.01c-0.02,0.003-0.042,0.005-0.064,0.008
				c-0.021,0.002-0.042,0.004-0.064,0.006c-0.021,0.002-0.043,0.004-0.064,0.005c-0.022,0.002-0.043,0.003-0.064,0.004
				c-0.023,0.001-0.044,0.002-0.064,0.002l-0.034,0h-0.03h-0.064h-0.064h-0.064h-0.064h-0.064h-0.064h-0.064h-0.064h-0.064h-0.064
				h-0.064h-0.064h-0.064h-0.064H322.7h-0.064h-0.064h-0.064h-0.064h-0.064h-0.064h-0.064h-0.064h-0.064h-0.064h-0.064h-0.064
				h-0.064h-0.064h-0.064h-0.064h-0.064h-0.064h-0.064h-0.064h-0.064h-0.064h-0.064h-0.064h-0.064h-0.064h-0.064h-0.064h-0.064
				h-0.064h-0.064h-0.064h-0.064h-0.064h-0.064h-0.064h-0.064h-0.064h-0.064h-0.064h-0.064h-0.064h-0.064h-0.064h-0.033
				L319.852,11.968L319.852,11.968z M325.004,8.01c0.026,0.117,0.039,0.242,0.039,0.373c0,0.131-0.014,0.255-0.039,0.372
				c-0.017,0.075-0.038,0.148-0.064,0.217c-0.019,0.051-0.04,0.1-0.064,0.147c-0.02,0.04-0.041,0.078-0.064,0.116
				c-0.02,0.033-0.042,0.065-0.064,0.096c-0.02,0.028-0.042,0.056-0.064,0.082c-0.021,0.025-0.042,0.049-0.064,0.072
				c-0.021,0.022-0.042,0.043-0.064,0.064c-0.021,0.02-0.042,0.039-0.064,0.057c-0.021,0.018-0.042,0.035-0.064,0.051
				c-0.021,0.016-0.042,0.031-0.064,0.046c-0.021,0.014-0.042,0.028-0.064,0.041c-0.021,0.013-0.042,0.025-0.064,0.037
				c-0.021,0.012-0.042,0.023-0.064,0.034c-0.021,0.01-0.042,0.021-0.064,0.03c-0.021,0.009-0.042,0.018-0.064,0.027
				c-0.021,0.008-0.042,0.016-0.064,0.024c-0.021,0.007-0.042,0.014-0.064,0.021c-0.021,0.006-0.043,0.012-0.064,0.018
				c-0.021,0.006-0.042,0.011-0.064,0.015c-0.021,0.005-0.043,0.009-0.064,0.013l-0.016,0.003c-0.012,0.002-0.029,0.005-0.048,0.007
				c-0.019,0.002-0.041,0.005-0.064,0.007c-0.02,0.002-0.042,0.004-0.064,0.006c-0.021,0.002-0.042,0.003-0.064,0.005
				c-0.021,0.001-0.043,0.003-0.064,0.003c-0.022,0.001-0.044,0.001-0.064,0.002l-0.01,0h-0.054h-0.064h-0.064h-0.064h-0.064h-0.064
				h-0.064h-0.064h-0.064h-0.064h-0.064h-0.064h-0.064h-0.064h-0.064h-0.064h-0.064h-0.064h-0.064h-0.064h-0.064h-0.064h-0.064
				h-0.064h-0.064h-0.064h-0.064h-0.064h-0.064h-0.064h-0.064h-0.064h-0.064h-0.064h-0.064h-0.064h-0.064h-0.064h-0.064h-0.064
				h-0.064h-0.064h-0.064h-0.064h-0.064h-0.064h-0.064h-0.064h-0.064h-0.064h-0.064h-0.064h-0.064h-0.064h-0.034V6.769h0.034h0.064
				h0.064h0.064h0.064h0.064h0.064h0.064h0.064h0.064h0.064h0.064h0.064h0.064h0.064h0.064h0.064h0.064h0.064h0.064h0.064h0.064
				h0.064h0.064h0.064h0.064h0.064h0.064h0.064h0.064h0.064h0.064h0.064h0.064h0.064h0.064h0.064h0.064h0.064h0.064h0.064h0.064
				h0.064h0.064h0.064h0.064h0.064h0.064h0.064h0.064h0.064h0.064h0.064h0.064h0.064h0.027l0.037,0.001
				c0.021,0.001,0.042,0.002,0.064,0.003c0.022,0.001,0.043,0.003,0.064,0.005c0.022,0.002,0.044,0.004,0.064,0.006
				c0.023,0.002,0.045,0.005,0.064,0.007c0.019,0.002,0.036,0.004,0.048,0.006l0.016,0.003c0.021,0.004,0.043,0.008,0.064,0.013
				c0.021,0.005,0.043,0.01,0.064,0.015c0.021,0.006,0.043,0.012,0.064,0.018c0.021,0.007,0.043,0.014,0.064,0.021
				c0.021,0.008,0.043,0.015,0.064,0.024c0.022,0.009,0.043,0.018,0.064,0.027c0.022,0.01,0.043,0.02,0.064,0.03
				c0.022,0.011,0.043,0.022,0.064,0.034c0.022,0.012,0.043,0.025,0.064,0.037c0.022,0.013,0.043,0.027,0.064,0.041
				c0.022,0.015,0.043,0.03,0.064,0.046c0.022,0.016,0.043,0.034,0.064,0.051c0.022,0.018,0.043,0.037,0.064,0.057
				c0.022,0.021,0.043,0.042,0.064,0.064c0.022,0.023,0.043,0.047,0.064,0.072c0.022,0.027,0.043,0.054,0.064,0.083
				c0.022,0.031,0.044,0.063,0.064,0.096c0.023,0.037,0.044,0.076,0.064,0.116c0.024,0.047,0.045,0.097,0.064,0.147
				C324.966,7.862,324.987,7.935,325.004,8.01L325.004,8.01z M332.937-8.725h0.026l0,33.146c0,0.198-0.009,0.394-0.026,0.588
				c-0.015,0.17-0.036,0.339-0.064,0.505c-0.019,0.112-0.04,0.223-0.064,0.333c-0.02,0.089-0.041,0.178-0.064,0.266
				c-0.02,0.076-0.041,0.151-0.064,0.226c-0.02,0.068-0.042,0.135-0.064,0.202c-0.02,0.061-0.042,0.121-0.064,0.18
				c-0.021,0.056-0.042,0.111-0.064,0.166c-0.021,0.052-0.042,0.103-0.064,0.154c-0.021,0.048-0.042,0.096-0.064,0.144
				c-0.021,0.045-0.042,0.091-0.064,0.135c-0.021,0.043-0.042,0.086-0.064,0.128c-0.021,0.041-0.042,0.081-0.064,0.121
				c-0.021,0.039-0.042,0.077-0.064,0.115c-0.021,0.037-0.042,0.074-0.064,0.11c-0.021,0.036-0.042,0.071-0.064,0.106
				c-0.021,0.034-0.042,0.068-0.064,0.102c-0.021,0.033-0.042,0.065-0.064,0.097c-0.021,0.031-0.042,0.063-0.064,0.094
				c-0.021,0.03-0.042,0.061-0.064,0.091c-0.021,0.029-0.042,0.059-0.064,0.088c-0.021,0.028-0.043,0.056-0.064,0.084
				c-0.021,0.028-0.042,0.055-0.064,0.082c-0.021,0.027-0.042,0.053-0.064,0.079c-0.021,0.026-0.043,0.051-0.064,0.077
				c-0.021,0.025-0.042,0.05-0.064,0.075c-0.021,0.024-0.043,0.048-0.064,0.072c-0.021,0.024-0.043,0.047-0.064,0.07
				c-0.021,0.023-0.042,0.046-0.064,0.069c-0.021,0.022-0.043,0.044-0.064,0.066c-0.021,0.022-0.042,0.044-0.064,0.065
				c-0.021,0.021-0.043,0.042-0.064,0.062c-0.021,0.021-0.042,0.041-0.064,0.062c-0.021,0.02-0.043,0.04-0.064,0.06
				c-0.021,0.02-0.043,0.039-0.064,0.058c-0.021,0.019-0.042,0.038-0.064,0.057c-0.021,0.019-0.043,0.037-0.064,0.055
				c-0.021,0.018-0.042,0.036-0.064,0.054c-0.021,0.018-0.043,0.035-0.064,0.052c-0.021,0.017-0.042,0.034-0.064,0.051
				c-0.021,0.017-0.043,0.033-0.064,0.05c-0.021,0.016-0.042,0.033-0.064,0.049c-0.021,0.016-0.043,0.032-0.064,0.047
				c-0.021,0.016-0.043,0.031-0.064,0.047c-0.021,0.015-0.043,0.03-0.064,0.045c-0.021,0.015-0.043,0.03-0.064,0.044
				c-0.021,0.014-0.043,0.028-0.064,0.043c-0.021,0.014-0.043,0.028-0.064,0.042c-0.021,0.014-0.043,0.027-0.064,0.041
				c-0.021,0.013-0.043,0.027-0.064,0.04c-0.021,0.013-0.043,0.026-0.064,0.039l-0.064,0.038c-0.021,0.012-0.043,0.025-0.064,0.037
				c-0.021,0.012-0.043,0.024-0.064,0.036c-0.021,0.012-0.043,0.024-0.064,0.035c-0.021,0.011-0.043,0.023-0.064,0.034
				c-0.021,0.011-0.043,0.023-0.064,0.034c-0.021,0.011-0.043,0.021-0.064,0.032c-0.021,0.011-0.043,0.021-0.064,0.032
				c-0.021,0.01-0.043,0.02-0.064,0.03l-0.064,0.03l-0.064,0.029c-0.021,0.009-0.043,0.019-0.064,0.028
				c-0.021,0.009-0.043,0.019-0.064,0.028c-0.021,0.009-0.043,0.017-0.064,0.026c-0.021,0.009-0.043,0.018-0.064,0.026
				c-0.021,0.008-0.043,0.016-0.064,0.025c-0.021,0.008-0.043,0.016-0.064,0.024l-0.064,0.024c-0.021,0.008-0.043,0.015-0.064,0.023
				c-0.021,0.007-0.042,0.015-0.064,0.022c-0.021,0.007-0.043,0.014-0.064,0.021l-0.064,0.021c-0.021,0.007-0.043,0.013-0.064,0.02
				l-0.064,0.019c-0.021,0.006-0.043,0.013-0.064,0.019c-0.021,0.006-0.043,0.012-0.064,0.017c-0.021,0.006-0.043,0.012-0.064,0.017
				l-0.064,0.016l-0.064,0.016l-0.064,0.015c-0.021,0.005-0.043,0.009-0.064,0.014c-0.021,0.005-0.043,0.009-0.064,0.014
				l-0.064,0.013l-0.064,0.012c-0.021,0.004-0.043,0.008-0.064,0.012c-0.021,0.004-0.043,0.007-0.064,0.011l-0.064,0.011
				l-0.064,0.01l-0.064,0.009c-0.021,0.003-0.043,0.006-0.064,0.009c-0.021,0.003-0.043,0.005-0.064,0.007
				c-0.021,0.002-0.043,0.005-0.064,0.007c-0.021,0.002-0.043,0.005-0.064,0.007c-0.021,0.002-0.043,0.004-0.064,0.006
				c-0.021,0.002-0.043,0.004-0.064,0.006c-0.021,0.002-0.043,0.003-0.064,0.004l-0.064,0.004c-0.021,0.001-0.043,0.003-0.064,0.004
				c-0.021,0.001-0.043,0.002-0.064,0.002l-0.064,0.002l-0.064,0.002c-0.021,0-0.043,0.001-0.064,0.001l-0.064,0.001l-0.013,0
				h-0.051h-0.064h-0.064h-0.064h-0.064h-0.064h-0.064h-0.064h-0.064h-0.064h-0.064h-0.064h-0.064h-0.064h-0.064h-0.064h-0.064
				h-0.064h-0.064h-0.064h-0.064h-0.064h-0.064h-0.064h-0.064h-0.064h-0.064h-0.064h-0.064h-0.064h-0.064h-0.064h-0.064h-0.064
				h-0.064h-0.064h-0.064h-0.064h-0.064h-0.064h-0.064h-0.064h-0.064h-0.064h-0.064h-0.064h-0.064h-0.064h-0.064h-0.064h-0.064
				h-0.064h-0.064h-0.064h-0.064h-0.064H322.7h-0.064h-0.064h-0.064h-0.064h-0.064h-0.064h-0.064h-0.064h-0.064h-0.064h-0.064
				h-0.064h-0.064h-0.064h-0.064h-0.064h-0.064h-0.064h-0.064h-0.064h-0.064h-0.064h-0.064h-0.064H321.1h-0.064h-0.064h-0.064
				h-0.064h-0.064h-0.064h-0.064h-0.064h-0.064h-0.064h-0.064h-0.064h-0.064h-0.064h-0.064h-0.064h-0.064h-0.064h-0.064h-0.064
				h-0.064h-0.064h-0.064h-0.064h-0.064h-0.064h-0.064h-0.064h-0.064h-0.064h-0.064h-0.064h-0.064h-0.064h-0.064h-0.064h-0.064
				h-0.064h-0.064h-0.064h-0.064h-0.064h-0.064h-0.064h-0.064h-0.064h-0.064h-0.064h-0.064h-0.064h-0.064h-0.064h-0.064h-0.064
				h-0.064h-0.064h-0.064h-0.064h-0.064h-0.064h-0.064h-0.064h-0.064h-0.064h-0.064h-0.064h-0.064h-0.064h-0.138V17.535h0.138h0.064
				h0.064h0.064h0.064h0.064h0.064h0.064h0.064h0.064h0.064h0.064h0.064h0.064h0.064h0.064h0.064h0.064h0.064h0.064h0.064h0.064
				h0.064h0.064h0.064h0.064h0.064h0.064h0.064h0.064h0.064h0.064h0.064h0.064h0.064h0.064h0.064h0.064h0.064h0.064h0.064h0.064
				h0.064h0.064h0.064h0.064h0.064h0.064h0.064h0.064h0.064h0.064h0.064h0.064h0.064h0.064h0.064h0.064h0.064h0.064h0.064h0.064
				h0.064h0.064h0.064h0.064h0.064h0.064h0.064h0.064h0.064h0.064h0.064h0.064h0.064h0.064h0.064h0.064h0.064h0.064h0.064h0.064
				h0.064h0.064h0.064h0.064h0.064h0.064h0.064h0.064h0.064h0.064h0.064h0.064h0.064h0.064h0.064h0.064h0.064h0.064h0.064h0.064
				h0.064h0.064h0.064h0.064h0.064h0.064h0.064h0.064h0.064h0.064h0.064h0.064h0.064h0.064h0.064h0.064h0.064h0.064h0.064h0.064
				h0.064h0.064h0.064h0.064h0.064h0.064h0.064h0.064h0.064h0.064h0.064h0.064h0.064h0.064h0.064h0.064h0.064h0.064h0.064h0.064
				h0.064h0.064h0.064h0.064h0.064h0.064h0.064h0.064h0.064h0.064h0.064h0.064h0.064h0.064h0.064h0.064h0.064h0.034l0.03,0
				l0.064-0.001l0.064-0.001c0.021-0.001,0.043-0.001,0.064-0.002c0.021-0.001,0.043-0.002,0.064-0.003l0.064-0.003l0.064-0.004
				l0.064-0.004l0.064-0.005l0.064-0.006c0.021-0.002,0.043-0.004,0.064-0.006c0.021-0.002,0.043-0.005,0.064-0.007l0.064-0.008
				c0.021-0.003,0.043-0.005,0.064-0.008c0.021-0.003,0.043-0.006,0.064-0.009c0.021-0.003,0.043-0.006,0.064-0.01l0.064-0.011
				l0.064-0.012c0.021-0.004,0.043-0.008,0.064-0.012c0.021-0.004,0.043-0.009,0.064-0.013l0.064-0.014
				c0.021-0.005,0.043-0.01,0.064-0.015c0.021-0.005,0.043-0.01,0.064-0.016c0.021-0.005,0.043-0.011,0.064-0.016
				c0.021-0.006,0.043-0.011,0.064-0.017c0.021-0.006,0.043-0.012,0.064-0.018c0.021-0.006,0.043-0.013,0.064-0.019l0.064-0.02
				c0.021-0.007,0.043-0.014,0.064-0.021c0.021-0.007,0.043-0.014,0.064-0.022c0.021-0.008,0.043-0.015,0.064-0.023
				c0.022-0.008,0.043-0.016,0.064-0.024c0.021-0.008,0.043-0.017,0.064-0.025c0.021-0.009,0.043-0.017,0.064-0.026
				c0.021-0.009,0.043-0.018,0.064-0.028c0.021-0.009,0.043-0.019,0.064-0.029c0.021-0.01,0.043-0.02,0.064-0.03
				c0.021-0.01,0.043-0.021,0.064-0.031c0.022-0.011,0.043-0.022,0.064-0.033c0.021-0.011,0.043-0.023,0.064-0.034
				c0.022-0.012,0.043-0.024,0.064-0.036c0.021-0.012,0.043-0.025,0.064-0.037c0.021-0.013,0.043-0.026,0.064-0.039
				c0.022-0.013,0.043-0.027,0.064-0.041c0.022-0.014,0.043-0.028,0.064-0.043c0.022-0.015,0.043-0.029,0.064-0.044
				c0.022-0.015,0.043-0.031,0.064-0.047c0.022-0.016,0.043-0.032,0.064-0.049c0.022-0.017,0.043-0.034,0.064-0.051
				c0.022-0.018,0.043-0.036,0.064-0.054c0.022-0.019,0.043-0.037,0.064-0.056c0.022-0.02,0.043-0.039,0.064-0.06
				c0.022-0.021,0.043-0.042,0.064-0.063c0.022-0.022,0.043-0.044,0.064-0.067c0.022-0.023,0.043-0.047,0.064-0.071
				c0.022-0.025,0.043-0.05,0.064-0.075c0.022-0.026,0.043-0.053,0.064-0.08c0.022-0.028,0.043-0.057,0.064-0.086
				c0.022-0.031,0.043-0.062,0.064-0.094c0.022-0.034,0.043-0.068,0.064-0.102c0.022-0.037,0.043-0.075,0.064-0.113
				c0.022-0.041,0.044-0.083,0.064-0.126c0.023-0.048,0.044-0.096,0.064-0.145c0.023-0.056,0.044-0.113,0.064-0.171
				c0.024-0.071,0.045-0.144,0.064-0.219c0.027-0.108,0.049-0.22,0.064-0.334c0.019-0.138,0.028-0.281,0.028-0.427
				c0-0.142-0.01-0.28-0.028-0.415c-0.015-0.11-0.037-0.218-0.064-0.322c-0.019-0.071-0.04-0.141-0.064-0.21
				c-0.02-0.056-0.041-0.112-0.064-0.166c-0.02-0.047-0.041-0.094-0.064-0.139c-0.02-0.041-0.042-0.082-0.064-0.122
				c-0.021-0.037-0.042-0.073-0.064-0.109c-0.021-0.033-0.042-0.066-0.064-0.098c-0.021-0.031-0.042-0.061-0.064-0.091
				c-0.021-0.028-0.042-0.056-0.064-0.083c-0.021-0.026-0.042-0.052-0.064-0.078c-0.021-0.025-0.042-0.049-0.064-0.073
				c-0.021-0.023-0.042-0.046-0.064-0.068c-0.021-0.022-0.042-0.043-0.064-0.064c-0.021-0.02-0.042-0.041-0.064-0.061
				c-0.021-0.019-0.042-0.038-0.064-0.057c-0.021-0.018-0.042-0.037-0.064-0.055c-0.021-0.018-0.042-0.035-0.064-0.052
				c-0.021-0.017-0.042-0.033-0.064-0.049c-0.021-0.016-0.042-0.032-0.064-0.047c-0.021-0.015-0.042-0.03-0.064-0.045
				c-0.021-0.014-0.042-0.029-0.064-0.043c-0.021-0.014-0.042-0.028-0.064-0.041c-0.021-0.013-0.042-0.026-0.064-0.039
				c-0.021-0.013-0.042-0.025-0.064-0.038c-0.021-0.012-0.042-0.024-0.064-0.036c-0.021-0.012-0.042-0.023-0.064-0.034
				c-0.021-0.011-0.043-0.022-0.064-0.033c-0.021-0.011-0.042-0.021-0.064-0.032c-0.021-0.01-0.042-0.021-0.064-0.031
				c-0.021-0.01-0.043-0.019-0.064-0.029c-0.021-0.009-0.043-0.019-0.064-0.028c-0.021-0.009-0.043-0.018-0.064-0.027
				c-0.021-0.009-0.042-0.017-0.064-0.026c-0.021-0.008-0.043-0.017-0.064-0.025c-0.021-0.008-0.043-0.016-0.064-0.023
				c-0.021-0.008-0.043-0.015-0.064-0.022c-0.021-0.007-0.043-0.015-0.064-0.022c-0.021-0.007-0.043-0.014-0.064-0.021
				c-0.021-0.007-0.043-0.013-0.064-0.02l-0.064-0.019c-0.021-0.006-0.043-0.012-0.064-0.018c-0.021-0.006-0.043-0.011-0.064-0.017
				c-0.021-0.006-0.043-0.011-0.064-0.016c-0.021-0.005-0.043-0.01-0.064-0.015c-0.021-0.005-0.043-0.01-0.064-0.015
				c-0.021-0.005-0.043-0.009-0.064-0.014c-0.021-0.004-0.043-0.009-0.064-0.013l-0.064-0.012l-0.064-0.011
				c-0.021-0.004-0.043-0.007-0.064-0.011l-0.064-0.01c-0.021-0.003-0.043-0.006-0.064-0.009l-0.064-0.009l-0.064-0.008
				l-0.064-0.007l-0.064-0.007l-0.064-0.006l-0.064-0.005l-0.059-0.005l0-0.077l0.059-0.009l0.064-0.011
				c0.021-0.004,0.043-0.007,0.064-0.011l0.064-0.012c0.021-0.004,0.043-0.009,0.064-0.013l0.064-0.014
				c0.021-0.005,0.043-0.01,0.064-0.015c0.021-0.005,0.043-0.011,0.064-0.016c0.021-0.005,0.043-0.011,0.064-0.017
				c0.021-0.006,0.043-0.012,0.064-0.018c0.021-0.006,0.043-0.012,0.064-0.019c0.021-0.006,0.043-0.013,0.064-0.02
				c0.021-0.007,0.043-0.014,0.064-0.021c0.022-0.007,0.043-0.015,0.064-0.022c0.021-0.008,0.043-0.015,0.064-0.023
				c0.021-0.008,0.043-0.016,0.064-0.025c0.021-0.008,0.043-0.017,0.064-0.026c0.022-0.009,0.043-0.018,0.064-0.027
				c0.022-0.009,0.043-0.019,0.064-0.029c0.022-0.01,0.043-0.02,0.064-0.03c0.022-0.01,0.043-0.021,0.064-0.032
				c0.021-0.011,0.043-0.022,0.064-0.033c0.022-0.011,0.043-0.023,0.064-0.035c0.022-0.012,0.043-0.024,0.064-0.036
				c0.022-0.013,0.043-0.025,0.064-0.038c0.022-0.013,0.043-0.027,0.064-0.04c0.022-0.014,0.043-0.028,0.064-0.042
				c0.022-0.015,0.043-0.029,0.064-0.044c0.022-0.015,0.043-0.031,0.064-0.047c0.022-0.016,0.043-0.033,0.064-0.049
				c0.022-0.017,0.043-0.034,0.064-0.052c0.022-0.018,0.043-0.036,0.064-0.055c0.022-0.019,0.043-0.039,0.064-0.058
				c0.022-0.02,0.043-0.041,0.064-0.061c0.022-0.021,0.043-0.043,0.064-0.065c0.022-0.023,0.043-0.046,0.064-0.069
				c0.022-0.024,0.043-0.049,0.064-0.074c0.022-0.026,0.043-0.053,0.064-0.079c0.022-0.028,0.043-0.057,0.064-0.086
				c0.022-0.031,0.043-0.062,0.064-0.093c0.022-0.034,0.043-0.067,0.064-0.102c0.022-0.037,0.044-0.075,0.064-0.113
				c0.022-0.042,0.044-0.084,0.064-0.127c0.023-0.048,0.044-0.097,0.064-0.146c0.023-0.057,0.045-0.116,0.064-0.175
				c0.024-0.074,0.046-0.15,0.064-0.226c0.03-0.124,0.051-0.25,0.064-0.379c0.01-0.102,0.016-0.204,0.016-0.308
				c0-0.11-0.005-0.217-0.016-0.321c-0.013-0.133-0.035-0.262-0.064-0.386c-0.018-0.078-0.04-0.154-0.064-0.228
				c-0.019-0.059-0.041-0.117-0.064-0.174c-0.02-0.049-0.041-0.097-0.064-0.145c-0.02-0.042-0.042-0.084-0.064-0.125
				c-0.02-0.037-0.042-0.074-0.064-0.11c-0.021-0.034-0.042-0.067-0.064-0.1c-0.021-0.031-0.042-0.061-0.064-0.09
				c-0.021-0.028-0.042-0.056-0.064-0.083c-0.021-0.026-0.042-0.052-0.064-0.077c-0.021-0.024-0.042-0.048-0.064-0.071
				c-0.021-0.023-0.042-0.045-0.064-0.067c-0.021-0.021-0.042-0.042-0.064-0.063c-0.021-0.02-0.042-0.04-0.064-0.059
				c-0.021-0.019-0.042-0.037-0.064-0.056c-0.021-0.018-0.042-0.035-0.064-0.053c-0.021-0.017-0.042-0.034-0.064-0.05
				c-0.021-0.016-0.042-0.032-0.064-0.047c-0.021-0.015-0.042-0.03-0.064-0.045c-0.021-0.014-0.042-0.029-0.064-0.043
				c-0.021-0.014-0.042-0.027-0.064-0.041c-0.021-0.013-0.042-0.026-0.064-0.039c-0.021-0.013-0.042-0.025-0.064-0.037
				c-0.021-0.012-0.042-0.024-0.064-0.035c-0.021-0.011-0.042-0.023-0.064-0.034c-0.021-0.011-0.042-0.022-0.064-0.032
				c-0.021-0.01-0.042-0.021-0.064-0.031c-0.021-0.01-0.043-0.02-0.064-0.029c-0.021-0.009-0.042-0.019-0.064-0.028
				c-0.021-0.009-0.043-0.018-0.064-0.027c-0.021-0.009-0.043-0.017-0.064-0.025c-0.021-0.008-0.043-0.016-0.064-0.024
				c-0.021-0.008-0.042-0.016-0.064-0.023c-0.021-0.007-0.043-0.015-0.064-0.022c-0.021-0.007-0.043-0.014-0.064-0.021
				c-0.021-0.007-0.043-0.013-0.064-0.02c-0.021-0.006-0.042-0.013-0.064-0.019c-0.021-0.006-0.043-0.012-0.064-0.018
				c-0.021-0.006-0.043-0.011-0.064-0.017l-0.064-0.016c-0.021-0.005-0.043-0.01-0.064-0.015c-0.021-0.005-0.043-0.01-0.064-0.014
				l-0.064-0.014c-0.021-0.004-0.042-0.009-0.064-0.013c-0.021-0.004-0.043-0.008-0.064-0.012l-0.064-0.011
				c-0.021-0.004-0.043-0.007-0.064-0.011l-0.064-0.01l-0.064-0.009l-0.064-0.008l-0.064-0.008l-0.064-0.007l-0.064-0.006
				l-0.064-0.006l-0.064-0.005l-0.064-0.005l-0.064-0.004l-0.025-0.001l-0.039-0.002l-0.064-0.004l-0.064-0.004l-0.064-0.003
				l-0.064-0.003l-0.064-0.003l-0.064-0.002l-0.064-0.002l-0.064-0.001l-0.064-0.001l-0.035,0h-0.029h-0.064h-0.064h-0.064h-0.064
				h-0.064h-0.064h-0.064h-0.064h-0.064h-0.064h-0.064h-0.064h-0.064h-0.064h-0.064h-0.064h-0.064h-0.064h-0.064h-0.064h-0.064
				h-0.064h-0.064h-0.064h-0.064h-0.064h-0.064h-0.064h-0.064h-0.064h-0.064h-0.064h-0.064h-0.064h-0.064h-0.064h-0.064h-0.064
				h-0.064h-0.064h-0.064h-0.064h-0.064h-0.064h-0.064h-0.064h-0.064h-0.064h-0.064h-0.064H322.7h-0.064h-0.064h-0.064h-0.064
				h-0.064h-0.064h-0.064h-0.064h-0.064h-0.064h-0.064h-0.064h-0.064h-0.064h-0.064h-0.064h-0.064h-0.064h-0.064h-0.064h-0.064
				h-0.064h-0.064h-0.064H321.1h-0.064h-0.064h-0.064h-0.064h-0.064h-0.064h-0.064h-0.064h-0.064h-0.064h-0.064h-0.064h-0.064
				h-0.064h-0.064h-0.064h-0.064h-0.064h-0.064h-0.064h-0.064h-0.064h-0.064h-0.064h-0.064h-0.064h-0.064h-0.064h-0.064h-0.064
				h-0.064h-0.064h-0.064h-0.064h-0.064h-0.064h-0.064h-0.064h-0.064h-0.064h-0.064h-0.064h-0.064h-0.064h-0.064h-0.064h-0.064
				h-0.064h-0.064h-0.064h-0.064h-0.064h-0.064h-0.064h-0.064h-0.064h-0.064h-0.064h-0.064h-0.064h-0.064h-0.064h-0.064h-0.064
				h-0.064h-0.064h-0.064h-0.064h-0.138v-6.884c0-0.463,0.048-0.915,0.138-1.351c0.019-0.093,0.041-0.186,0.064-0.278
				c0.02-0.079,0.041-0.157,0.064-0.234c0.02-0.069,0.042-0.138,0.064-0.206c0.02-0.062,0.042-0.124,0.064-0.186
				c0.021-0.057,0.042-0.114,0.064-0.17c0.021-0.053,0.042-0.105,0.064-0.157c0.021-0.049,0.042-0.098,0.064-0.146
				c0.021-0.046,0.042-0.092,0.064-0.137c0.021-0.043,0.042-0.086,0.064-0.129c0.021-0.041,0.042-0.082,0.064-0.123
				c0.021-0.039,0.042-0.078,0.064-0.117c0.021-0.038,0.042-0.075,0.064-0.112c0.021-0.036,0.042-0.072,0.064-0.107
				c0.021-0.034,0.042-0.069,0.064-0.103c0.021-0.033,0.042-0.066,0.064-0.098c0.021-0.032,0.042-0.064,0.064-0.095
				c0.021-0.031,0.042-0.062,0.064-0.092c0.021-0.029,0.043-0.059,0.064-0.088c0.021-0.029,0.042-0.057,0.064-0.085
				c0.021-0.028,0.042-0.056,0.064-0.083c0.021-0.027,0.043-0.053,0.064-0.079c0.021-0.026,0.042-0.052,0.064-0.078
				c0.021-0.025,0.042-0.051,0.064-0.076c0.021-0.024,0.043-0.048,0.064-0.072c0.021-0.024,0.042-0.048,0.064-0.071
				c0.021-0.023,0.043-0.046,0.064-0.069c0.021-0.022,0.043-0.045,0.064-0.067c0.021-0.022,0.042-0.044,0.064-0.065
				c0.021-0.021,0.043-0.042,0.064-0.063c0.021-0.021,0.042-0.042,0.064-0.062c0.021-0.02,0.043-0.04,0.064-0.06
				c0.021-0.02,0.042-0.04,0.064-0.059c0.021-0.019,0.043-0.038,0.064-0.057c0.021-0.019,0.043-0.037,0.064-0.056
				c0.021-0.018,0.043-0.036,0.064-0.054c0.021-0.018,0.043-0.035,0.064-0.053c0.021-0.017,0.043-0.034,0.064-0.051l0.064-0.05
				l0.064-0.049c0.021-0.016,0.043-0.032,0.064-0.048c0.021-0.016,0.043-0.031,0.064-0.047l0.064-0.045
				c0.021-0.015,0.043-0.03,0.064-0.044l0.064-0.043l0.064-0.042c0.021-0.014,0.043-0.028,0.064-0.041l0.064-0.04
				c0.021-0.013,0.043-0.026,0.064-0.039c0.021-0.013,0.043-0.025,0.064-0.038c0.021-0.013,0.042-0.025,0.064-0.038
				c0.021-0.012,0.043-0.024,0.064-0.036c0.021-0.012,0.042-0.024,0.064-0.036c0.021-0.012,0.043-0.023,0.064-0.034
				c0.021-0.011,0.043-0.023,0.064-0.034c0.021-0.011,0.043-0.022,0.064-0.032c0.021-0.011,0.043-0.021,0.064-0.032l0.064-0.031
				c0.021-0.01,0.043-0.02,0.064-0.03c0.021-0.01,0.043-0.02,0.064-0.03c0.021-0.01,0.043-0.019,0.064-0.028
				c0.021-0.009,0.043-0.019,0.064-0.028c0.021-0.009,0.043-0.018,0.064-0.026c0.021-0.009,0.043-0.018,0.064-0.026l0.064-0.025
				l0.064-0.024c0.021-0.008,0.043-0.016,0.064-0.024c0.021-0.008,0.043-0.015,0.064-0.023c0.021-0.008,0.043-0.015,0.064-0.023
				c0.021-0.007,0.043-0.014,0.064-0.021l0.064-0.021c0.021-0.007,0.043-0.014,0.064-0.02c0.021-0.007,0.043-0.013,0.064-0.019
				c0.021-0.006,0.043-0.013,0.064-0.019c0.021-0.006,0.043-0.012,0.064-0.018c0.021-0.006,0.043-0.012,0.064-0.017l0.064-0.017
				c0.021-0.005,0.043-0.01,0.064-0.016c0.021-0.005,0.043-0.011,0.064-0.016c0.021-0.005,0.043-0.009,0.064-0.014l0.064-0.014
				l0.064-0.013c0.021-0.004,0.043-0.008,0.064-0.012c0.021-0.004,0.043-0.008,0.064-0.012c0.021-0.004,0.043-0.007,0.064-0.011
				l0.064-0.011c0.021-0.003,0.043-0.007,0.064-0.01c0.021-0.003,0.043-0.006,0.064-0.009c0.021-0.003,0.043-0.006,0.064-0.009
				c0.021-0.003,0.043-0.005,0.064-0.008l0.064-0.007c0.021-0.002,0.043-0.005,0.064-0.007c0.021-0.002,0.043-0.004,0.064-0.006
				l0.064-0.006l0.064-0.005c0.021-0.002,0.043-0.003,0.064-0.004c0.021-0.001,0.043-0.003,0.064-0.004
				c0.021-0.001,0.043-0.002,0.064-0.003l0.064-0.002c0.021-0.001,0.043-0.002,0.064-0.002c0.021,0,0.043-0.001,0.064-0.001
				c0.021,0,0.043-0.001,0.064-0.001l0.016,0h0.048h0.064h0.064h0.064h0.064h0.064h0.064h0.064h0.064h0.064h0.064h0.064h0.064h0.064
				h0.064h0.064h0.064h0.064h0.064h0.064h0.064h0.064h0.064h0.064h0.064h0.064h0.064h0.064h0.064h0.064h0.064h0.064h0.064h0.064
				h0.064h0.064h0.064h0.064h0.064h0.064h0.064h0.064h0.064h0.064h0.064h0.064h0.064h0.064h0.064h0.064h0.064h0.064h0.064h0.064
				h0.064h0.064h0.064h0.064h0.064h0.064h0.064h0.064h0.064h0.064h0.064h0.064h0.064h0.064h0.064h0.064h0.064h0.064h0.064h0.064
				h0.064h0.064h0.064h0.064h0.064h0.064h0.064h0.064h0.064h0.064h0.064h0.064h0.064h0.064h0.064h0.064h0.064h0.064h0.064h0.064
				h0.064h0.064h0.064h0.064h0.064h0.064h0.064h0.064h0.064h0.064h0.064h0.064h0.064h0.064h0.064h0.064h0.064h0.064h0.064h0.064
				h0.064h0.064h0.064h0.064h0.064h0.064h0.064h0.064h0.064h0.064h0.064h0.064h0.064h0.064h0.064h0.064h0.064h0.064h0.064h0.064
				h0.064h0.064h0.064h0.064h0.064h0.064h0.064h0.064h0.064h0.064h0.064h0.064h0.064h0.064h0.064h0.064h0.064L332.937-8.725
				L332.937-8.725L332.937-8.725z"/>
			
				<linearGradient id="SVGID_5_" gradientUnits="userSpaceOnUse" x1="289.0368" y1="18.5005" x2="294.8051" y2="18.5005" gradientTransform="matrix(2.8346 0 0 -2.8346 -539.3859 63.605)">
				<stop  offset="0" style="stop-color:#1D2970"/>
				<stop  offset="1" style="stop-color:#006DBA"/>
			</linearGradient>
			<path style="fill:url(#SVGID_5_);" d="M280.068,14.343c-0.046-0.022-0.091-0.044-0.137-0.066V-2.095
				c0-0.462,0.047-0.913,0.137-1.348c0.019-0.093,0.041-0.186,0.064-0.278c0.02-0.079,0.041-0.157,0.064-0.234
				c0.02-0.069,0.042-0.138,0.064-0.206c0.02-0.062,0.042-0.125,0.064-0.186c0.021-0.057,0.042-0.114,0.064-0.17
				c0.021-0.053,0.042-0.105,0.064-0.157c0.021-0.049,0.042-0.098,0.064-0.146c0.021-0.046,0.042-0.092,0.064-0.137
				c0.021-0.043,0.042-0.086,0.064-0.129c0.021-0.041,0.042-0.082,0.064-0.123c0.021-0.039,0.042-0.078,0.064-0.117
				c0.021-0.037,0.042-0.075,0.064-0.112c0.021-0.036,0.042-0.072,0.064-0.107c0.021-0.034,0.042-0.068,0.064-0.102
				c0.021-0.033,0.042-0.066,0.064-0.098c0.021-0.032,0.042-0.064,0.064-0.095c0.021-0.031,0.042-0.062,0.064-0.092
				c0.021-0.029,0.042-0.058,0.064-0.088c0.021-0.029,0.042-0.057,0.064-0.085c0.021-0.028,0.042-0.056,0.064-0.083
				c0.021-0.027,0.042-0.053,0.064-0.079c0.021-0.026,0.042-0.052,0.064-0.078c0.021-0.025,0.042-0.051,0.064-0.076
				c0.021-0.024,0.042-0.048,0.064-0.073c0.021-0.024,0.042-0.048,0.064-0.071c0.021-0.023,0.042-0.046,0.064-0.069
				c0.021-0.023,0.042-0.045,0.064-0.067c0.021-0.022,0.042-0.044,0.064-0.065c0.021-0.021,0.043-0.042,0.064-0.063
				c0.021-0.021,0.042-0.042,0.064-0.062c0.021-0.02,0.043-0.04,0.064-0.06c0.021-0.02,0.042-0.04,0.064-0.059
				c0.021-0.019,0.043-0.038,0.064-0.057c0.021-0.019,0.042-0.037,0.064-0.056c0.021-0.018,0.042-0.036,0.064-0.054
				c0.021-0.018,0.042-0.036,0.064-0.053c0.021-0.017,0.043-0.034,0.064-0.051c0.021-0.017,0.042-0.034,0.064-0.05
				c0.021-0.016,0.043-0.033,0.064-0.049c0.021-0.016,0.042-0.032,0.064-0.048l0.064-0.047c0.021-0.015,0.042-0.031,0.064-0.046
				c0.021-0.015,0.042-0.03,0.064-0.044c0.021-0.015,0.042-0.029,0.064-0.043c0.021-0.014,0.043-0.028,0.064-0.042
				c0.021-0.014,0.042-0.028,0.064-0.041c0.021-0.013,0.043-0.027,0.064-0.04c0.021-0.013,0.042-0.027,0.064-0.04
				c0.021-0.013,0.043-0.025,0.064-0.038c0.021-0.013,0.042-0.025,0.064-0.038c0.021-0.012,0.043-0.024,0.064-0.036
				c0.021-0.012,0.042-0.024,0.064-0.036c0.021-0.012,0.043-0.023,0.064-0.034c0.021-0.011,0.042-0.023,0.064-0.034
				c0.021-0.011,0.043-0.022,0.064-0.033l0.064-0.032c0.021-0.01,0.043-0.021,0.064-0.031c0.021-0.01,0.043-0.02,0.064-0.03
				c0.021-0.01,0.042-0.02,0.064-0.03c0.021-0.01,0.043-0.019,0.064-0.028c0.021-0.009,0.042-0.019,0.064-0.028
				c0.021-0.009,0.043-0.018,0.064-0.027l0.064-0.026l0.064-0.025L284.22-8.3c0.021-0.008,0.042-0.016,0.064-0.024
				c0.021-0.008,0.043-0.015,0.064-0.022c0.021-0.008,0.042-0.015,0.064-0.022l0.064-0.021l0.064-0.021
				c0.021-0.007,0.042-0.014,0.064-0.02c0.021-0.007,0.043-0.013,0.064-0.019c0.021-0.006,0.043-0.013,0.064-0.019
				c0.021-0.006,0.043-0.012,0.064-0.018l0.064-0.017c0.021-0.006,0.042-0.011,0.064-0.017c0.021-0.005,0.043-0.01,0.064-0.016
				c0.021-0.005,0.043-0.011,0.064-0.016c0.021-0.005,0.043-0.01,0.064-0.014l0.064-0.014c0.021-0.005,0.042-0.009,0.064-0.013
				c0.021-0.004,0.043-0.008,0.064-0.012c0.021-0.004,0.043-0.008,0.064-0.012c0.021-0.004,0.043-0.007,0.064-0.011l0.064-0.011
				c0.021-0.003,0.042-0.007,0.064-0.01c0.021-0.003,0.043-0.006,0.064-0.009c0.021-0.003,0.043-0.006,0.064-0.009l0.064-0.008
				l0.064-0.007c0.021-0.002,0.042-0.005,0.064-0.007c0.021-0.002,0.043-0.004,0.064-0.006l0.064-0.006
				c0.021-0.002,0.043-0.004,0.064-0.005c0.021-0.002,0.043-0.003,0.064-0.004c0.021-0.001,0.043-0.003,0.064-0.004
				c0.021-0.001,0.043-0.002,0.064-0.003l0.064-0.002c0.021-0.001,0.042-0.002,0.064-0.002c0.021-0.001,0.043,0,0.064-0.001
				c0.021,0,0.043-0.001,0.064-0.001l0.028,0h0.035h0.064h0.064h0.064h0.064h0.064h0.064h0.064h0.064h0.064h0.064h0.064h0.064h0.064
				h0.064h0.064h0.064h0.064h0.064h0.064h0.064h0.064h0.064h0.064h0.064h0.064h0.064h0.064h0.064h0.064h0.064h0.064h0.064h0.064
				h0.064h0.064h0.064h0.064h0.064h0.064h0.064h0.064h0.064h0.064h0.064h0.064h0.064h0.064h0.064h0.064h0.064h0.064h0.064h0.064
				h0.064h0.064h0.064h0.064h0.064h0.064h0.064h0.064h0.064h0.064h0.064h0.064h0.064h0.064h0.064h0.064h0.064h0.064h0.064h0.064
				h0.064h0.064h0.064h0.064h0.064h0.064h0.064h0.064h0.064h0.064h0.064h0.064h0.064h0.064h0.064h0.064h0.064h0.064h0.064h0.064
				h0.064h0.064h0.064h0.064h0.064h0.064h0.064h0.064h0.064h0.064h0.064h0.064h0.064h0.064h0.064h0.064h0.064h0.064h0.064h0.064
				h0.064h0.064h0.064h0.064h0.064h0.064h0.064h0.064h0.064h0.064h0.064h0.064h0.064h0.064h0.064h0.064h0.064h0.064h0.064h0.064
				h0.064h0.064h0.064h0.064h0.064h0.064h0.064h0.064h0.064h0.064h0.064h0.064h0.064h0.064h0.064h0.064h0.064h0.064h0.054v33.146
				c0,0.288-0.019,0.572-0.054,0.851c-0.017,0.134-0.039,0.267-0.064,0.398c-0.019,0.1-0.04,0.199-0.064,0.298
				c-0.02,0.083-0.041,0.165-0.064,0.247c-0.02,0.072-0.041,0.143-0.064,0.213c-0.02,0.064-0.042,0.127-0.064,0.191
				c-0.021,0.058-0.042,0.116-0.064,0.174c-0.021,0.054-0.042,0.107-0.064,0.16c-0.021,0.05-0.042,0.1-0.064,0.149
				c-0.021,0.047-0.042,0.093-0.064,0.14c-0.021,0.044-0.042,0.088-0.064,0.132c-0.021,0.042-0.042,0.084-0.064,0.125
				c-0.021,0.04-0.042,0.079-0.064,0.119c-0.021,0.038-0.042,0.076-0.064,0.114c-0.021,0.036-0.042,0.072-0.064,0.108
				c-0.021,0.035-0.042,0.069-0.064,0.103c-0.021,0.033-0.042,0.067-0.064,0.1c-0.021,0.032-0.042,0.065-0.064,0.096
				c-0.021,0.031-0.042,0.062-0.064,0.092c-0.021,0.03-0.042,0.059-0.064,0.089c-0.021,0.029-0.042,0.058-0.064,0.087
				c-0.021,0.028-0.042,0.056-0.064,0.083c-0.021,0.027-0.042,0.054-0.064,0.08c-0.021,0.026-0.042,0.053-0.064,0.079
				c-0.021,0.025-0.042,0.05-0.064,0.076c-0.021,0.025-0.042,0.049-0.064,0.074c-0.021,0.024-0.042,0.048-0.064,0.072
				c-0.021,0.023-0.043,0.046-0.064,0.069c-0.021,0.023-0.042,0.046-0.064,0.068c-0.021,0.022-0.042,0.044-0.064,0.065
				c-0.021,0.021-0.042,0.043-0.064,0.064c-0.021,0.021-0.042,0.042-0.064,0.062c-0.021,0.02-0.042,0.04-0.064,0.06
				c-0.021,0.02-0.042,0.04-0.064,0.059c-0.021,0.019-0.043,0.038-0.064,0.057c-0.021,0.019-0.042,0.038-0.064,0.057
				c-0.021,0.018-0.043,0.036-0.064,0.054c-0.021,0.018-0.042,0.036-0.064,0.054c-0.021,0.017-0.043,0.034-0.064,0.051
				c-0.021,0.017-0.042,0.034-0.064,0.051c-0.021,0.017-0.043,0.033-0.064,0.049c-0.021,0.016-0.042,0.033-0.064,0.049
				c-0.021,0.016-0.043,0.031-0.064,0.047c-0.021,0.015-0.042,0.031-0.064,0.046c-0.021,0.015-0.043,0.03-0.064,0.044
				c-0.021,0.015-0.042,0.03-0.064,0.044c-0.021,0.014-0.043,0.028-0.064,0.042s-0.042,0.028-0.064,0.042
				c-0.021,0.014-0.043,0.027-0.064,0.04s-0.042,0.027-0.064,0.04c-0.021,0.013-0.043,0.025-0.064,0.038
				c-0.021,0.013-0.042,0.025-0.064,0.038c-0.021,0.012-0.043,0.024-0.064,0.036c-0.021,0.012-0.042,0.024-0.064,0.036
				c-0.021,0.012-0.042,0.023-0.064,0.035l-0.064,0.034c-0.021,0.011-0.042,0.022-0.064,0.033c-0.021,0.011-0.043,0.021-0.064,0.032
				c-0.021,0.01-0.042,0.021-0.064,0.032c-0.021,0.01-0.043,0.02-0.064,0.03c-0.021,0.01-0.042,0.02-0.064,0.03
				c-0.021,0.01-0.043,0.019-0.064,0.028l-0.064,0.028l-0.064,0.027c-0.021,0.009-0.043,0.017-0.064,0.026
				c-0.021,0.009-0.042,0.017-0.064,0.026c-0.021,0.008-0.043,0.016-0.064,0.024c-0.021,0.008-0.042,0.016-0.064,0.024
				c-0.021,0.008-0.043,0.015-0.064,0.023l-0.064,0.022l-0.064,0.022c-0.021,0.007-0.043,0.014-0.064,0.021
				c-0.021,0.007-0.042,0.014-0.064,0.021c-0.021,0.007-0.043,0.013-0.064,0.019l-0.064,0.019l-0.064,0.018
				c-0.021,0.006-0.043,0.012-0.064,0.017c-0.021,0.006-0.043,0.012-0.064,0.017c-0.021,0.005-0.043,0.01-0.064,0.016
				c-0.021,0.005-0.043,0.011-0.064,0.016l-0.064,0.015l-0.064,0.014c-0.021,0.005-0.042,0.01-0.064,0.014
				c-0.021,0.004-0.043,0.008-0.064,0.012c-0.021,0.004-0.043,0.008-0.064,0.012l-0.064,0.012c-0.021,0.004-0.043,0.007-0.064,0.011
				c-0.021,0.003-0.043,0.007-0.064,0.011c-0.021,0.003-0.043,0.006-0.064,0.009l-0.064,0.009c-0.021,0.003-0.043,0.006-0.064,0.008
				c-0.021,0.003-0.043,0.005-0.064,0.007c-0.021,0.002-0.043,0.005-0.064,0.007c-0.021,0.002-0.043,0.004-0.064,0.006l-0.064,0.006
				c-0.021,0.002-0.043,0.004-0.064,0.006c-0.021,0.002-0.043,0.003-0.064,0.004l-0.064,0.004l-0.064,0.003
				c-0.021,0.001-0.043,0.002-0.064,0.002c-0.021,0.001-0.043,0.002-0.064,0.002c-0.021,0.001-0.043,0.001-0.064,0.001l-0.064,0.001
				c-0.02,0-0.039,0.001-0.059,0.001h-0.005h-0.064h-0.064h-0.064h-0.064h-0.064h-0.064h-0.064h-0.064h-0.064h-0.064h-0.064h-0.064
				h-0.064h-0.064h-0.064h-0.064h-0.064h-0.064h-0.064h-0.064h-0.064h-0.064h-0.064h-0.064h-0.064h-0.064h-0.064h-0.064h-0.064
				h-0.064h-0.064h-0.064h-0.064h-0.064h-0.064h-0.064h-0.064h-0.064h-0.064h-0.064h-0.064h-0.064h-0.064h-0.064h-0.064h-0.064
				h-0.064h-0.064h-0.064h-0.064h-0.064h-0.064h-0.064H286.2h-0.064h-0.064h-0.064h-0.064h-0.064h-0.064h-0.064h-0.064h-0.064
				h-0.064h-0.064h-0.064h-0.064h-0.064h-0.064h-0.064h-0.064h-0.064h-0.064h-0.064h-0.064h-0.064h-0.064h-0.064h-0.064h-0.064
				h-0.064h-0.064h-0.064h-0.064h-0.064h-0.064h-0.064h-0.064h-0.064h-0.064h-0.064h-0.064h-0.064h-0.064h-0.064h-0.064h-0.064
				h-0.064h-0.064h-0.064h-0.064h-0.064h-0.064h-0.064h-0.064h-0.064h-0.064h-0.064h-0.064h-0.064h-0.064h-0.064h-0.064h-0.064
				h-0.064h-0.064h-0.064h-0.064h-0.064h-0.064h-0.064h-0.064h-0.064h-0.064h-0.064h-0.064h-0.064h-0.064h-0.064h-0.064h-0.064
				h-0.064h-0.064h-0.064h-0.064h-0.064h-0.064h-0.064h-0.064h-0.064h-0.064h-0.064h-0.064h-0.064h-0.064h-0.064h-0.064h-0.064
				h-0.064h-0.064h-0.137V17.08c0,0,0.047,0.013,0.137,0.036l0.064,0.016l0.064,0.016l0.064,0.015l0.064,0.015l0.064,0.015
				l0.064,0.015l0.064,0.014l0.064,0.014l0.064,0.014l0.064,0.014l0.064,0.014l0.064,0.013l0.064,0.013l0.064,0.013l0.064,0.013
				l0.064,0.013l0.064,0.013l0.064,0.012l0.064,0.012l0.064,0.012l0.064,0.012l0.064,0.012l0.064,0.012l0.064,0.012l0.064,0.011
				l0.064,0.011l0.064,0.011l0.064,0.011l0.064,0.011l0.064,0.011l0.064,0.01l0.064,0.01l0.064,0.01l0.064,0.01l0.064,0.01
				l0.064,0.01l0.064,0.01l0.064,0.009l0.064,0.009l0.064,0.009l0.064,0.009l0.064,0.009l0.064,0.009l0.064,0.009l0.064,0.008
				l0.064,0.008l0.064,0.008l0.064,0.008l0.064,0.008l0.064,0.008l0.064,0.008l0.064,0.007l0.064,0.007l0.064,0.007l0.064,0.007
				l0.064,0.007l0.064,0.007l0.064,0.007l0.064,0.007l0.064,0.007l0.064,0.006l0.064,0.006l0.064,0.006l0.064,0.006l0.064,0.006
				l0.064,0.006l0.064,0.006l0.064,0.005l0.064,0.005l0.064,0.005l0.064,0.005l0.064,0.005l0.064,0.005l0.064,0.005l0.064,0.004
				l0.064,0.004l0.064,0.004l0.064,0.004l0.064,0.004l0.064,0.004l0.064,0.003l0.064,0.003l0.064,0.003l0.064,0.003l0.064,0.003
				l0.064,0.003l0.064,0.003l0.064,0.003l0.064,0.002l0.064,0.002l0.064,0.002l0.064,0.002l0.064,0.002l0.064,0.002l0.064,0.001
				l0.064,0.001l0.064,0.001l0.064,0.001l0.064,0.001l0.064,0.001l0.064,0.001l0.064,0l0.064,0l0.064,0l0.025,0l0.039,0l0.064,0
				l0.064,0l0.064,0l0.064,0l0.064-0.001l0.064-0.001l0.064-0.001l0.064-0.001l0.064-0.002l0.064-0.002l0.064-0.002l0.064-0.002
				l0.064-0.002l0.064-0.003l0.064-0.003l0.064-0.003l0.064-0.003l0.064-0.004l0.064-0.004l0.064-0.004l0.064-0.004l0.064-0.004
				l0.064-0.005l0.064-0.005l0.064-0.005l0.064-0.005l0.064-0.006l0.064-0.006l0.064-0.006l0.064-0.006l0.064-0.007l0.064-0.006
				l0.064-0.007l0.064-0.007l0.064-0.007l0.064-0.008l0.064-0.007l0.064-0.008l0.064-0.009l0.064-0.009l0.064-0.009
				c0.022-0.003,0.042-0.006,0.064-0.01l0.064-0.01l0.064-0.01l0.064-0.01c0.021-0.003,0.043-0.007,0.064-0.011l0.064-0.011
				c0.021-0.004,0.043-0.007,0.064-0.011c0.022-0.004,0.042-0.008,0.064-0.012l0.064-0.012l0.064-0.012l0.064-0.013
				c0.021-0.004,0.043-0.009,0.064-0.013l0.064-0.013l0.064-0.013c0.022-0.005,0.042-0.01,0.064-0.014l0.064-0.014
				c0.021-0.005,0.043-0.009,0.064-0.014c0.022-0.005,0.043-0.01,0.064-0.016l0.064-0.016c0.021-0.005,0.043-0.01,0.064-0.016
				c0.021-0.005,0.043-0.011,0.064-0.017l0.064-0.017c0.021-0.006,0.043-0.011,0.064-0.017c0.021-0.006,0.043-0.012,0.064-0.018
				l0.064-0.019c0.021-0.006,0.043-0.012,0.064-0.019l0.064-0.02l0.064-0.02c0.021-0.007,0.043-0.013,0.064-0.02l0.064-0.021
				l0.064-0.022c0.021-0.007,0.043-0.014,0.064-0.022c0.022-0.008,0.043-0.015,0.064-0.023l0.064-0.023
				c0.021-0.008,0.043-0.016,0.064-0.024c0.022-0.008,0.043-0.017,0.064-0.025c0.021-0.008,0.043-0.017,0.064-0.025l0.064-0.026
				l0.064-0.027c0.021-0.009,0.043-0.018,0.064-0.027c0.022-0.009,0.043-0.019,0.064-0.029l0.064-0.029l0.064-0.03
				c0.021-0.01,0.043-0.02,0.064-0.031c0.021-0.01,0.043-0.02,0.064-0.031c0.022-0.011,0.043-0.022,0.064-0.033
				c0.021-0.011,0.043-0.022,0.064-0.033c0.022-0.011,0.043-0.023,0.064-0.035c0.021-0.012,0.043-0.023,0.064-0.035
				c0.021-0.012,0.043-0.024,0.064-0.036c0.022-0.012,0.043-0.025,0.064-0.037c0.021-0.013,0.043-0.025,0.064-0.038
				c0.022-0.013,0.043-0.027,0.064-0.04c0.021-0.013,0.043-0.027,0.064-0.04c0.022-0.014,0.043-0.028,0.064-0.043
				c0.021-0.014,0.043-0.029,0.064-0.043c0.022-0.015,0.043-0.03,0.064-0.045c0.021-0.015,0.043-0.031,0.064-0.046
				c0.022-0.016,0.043-0.032,0.064-0.048c0.021-0.016,0.043-0.033,0.064-0.049c0.022-0.017,0.043-0.034,0.064-0.052
				c0.022-0.018,0.043-0.036,0.064-0.053c0.021-0.018,0.043-0.036,0.064-0.055c0.022-0.019,0.043-0.039,0.064-0.058
				c0.021-0.02,0.043-0.039,0.064-0.059c0.022-0.021,0.043-0.041,0.064-0.062c0.022-0.021,0.043-0.043,0.064-0.065
				c0.021-0.022,0.043-0.044,0.064-0.067c0.022-0.023,0.043-0.047,0.064-0.071c0.022-0.024,0.043-0.049,0.064-0.074
				c0.022-0.026,0.043-0.051,0.064-0.077c0.022-0.027,0.043-0.054,0.064-0.081c0.022-0.028,0.043-0.057,0.064-0.086
				c0.022-0.03,0.043-0.06,0.064-0.091c0.022-0.032,0.043-0.064,0.064-0.096c0.022-0.034,0.043-0.068,0.064-0.102
				c0.022-0.036,0.043-0.072,0.064-0.109c0.022-0.039,0.043-0.078,0.064-0.117c0.022-0.042,0.043-0.085,0.064-0.127
				c0.022-0.046,0.043-0.092,0.064-0.139c0.022-0.051,0.044-0.102,0.064-0.154c0.022-0.057,0.044-0.114,0.064-0.172
				c0.023-0.066,0.044-0.132,0.064-0.199c0.023-0.078,0.044-0.157,0.064-0.237c0.024-0.099,0.045-0.199,0.064-0.3
				c0.027-0.151,0.048-0.304,0.064-0.458c0.021-0.216,0.032-0.436,0.032-0.66V4.789h-0.032h-0.064h-0.064h-0.064h-0.064h-0.064
				h-0.064h-0.064h-0.064h-0.064h-0.064h-0.064h-0.064h-0.064h-0.064h-0.064h-0.064h-0.064h-0.064h-0.064h-0.064h-0.064h-0.064
				h-0.064h-0.064h-0.064h-0.064h-0.064h-0.064h-0.064h-0.064h-0.064h-0.064h-0.064h-0.064h-0.064h-0.064h-0.064h-0.064h-0.064
				h-0.064h-0.064h-0.064h-0.064h-0.064h-0.064h-0.064h-0.064h-0.064h-0.064h-0.064h-0.064h-0.064h-0.064h-0.064h-0.064h-0.064
				h-0.064h-0.064h-0.064h-0.064h-0.064h-0.064h-0.064h-0.064h-0.064h-0.064h-0.064h-0.064h-0.064h-0.064h-0.064h-0.064h-0.064
				h-0.064h-0.064h-0.064h-0.064h-0.064h-0.064h-0.064h-0.064h-0.064h-0.064h-0.064h-0.064h-0.064h-0.064h-0.064h-0.048v7.692
				c0,0.12-0.005,0.239-0.015,0.355c-0.013,0.148-0.034,0.292-0.064,0.433c-0.018,0.087-0.04,0.172-0.064,0.255
				c-0.019,0.067-0.041,0.132-0.064,0.196c-0.02,0.055-0.041,0.109-0.064,0.162c-0.02,0.047-0.041,0.094-0.064,0.14
				c-0.02,0.042-0.042,0.083-0.064,0.124c-0.02,0.037-0.042,0.074-0.064,0.111c-0.021,0.034-0.042,0.068-0.064,0.101
				c-0.021,0.031-0.042,0.062-0.064,0.092c-0.021,0.029-0.042,0.058-0.064,0.086c-0.021,0.027-0.042,0.053-0.064,0.079
				c-0.021,0.025-0.042,0.049-0.064,0.074c-0.021,0.023-0.042,0.046-0.064,0.069c-0.021,0.022-0.042,0.043-0.064,0.065
				c-0.021,0.021-0.042,0.041-0.064,0.061c-0.021,0.019-0.042,0.038-0.064,0.057c-0.021,0.018-0.042,0.036-0.064,0.054
				c-0.021,0.017-0.042,0.034-0.064,0.051c-0.021,0.016-0.042,0.032-0.064,0.048c-0.021,0.015-0.042,0.031-0.064,0.045
				c-0.021,0.015-0.042,0.029-0.064,0.043c-0.021,0.014-0.042,0.027-0.064,0.041c-0.021,0.013-0.042,0.026-0.064,0.039
				c-0.021,0.012-0.042,0.024-0.064,0.036c-0.021,0.012-0.042,0.023-0.064,0.034c-0.021,0.011-0.042,0.022-0.064,0.033
				c-0.021,0.01-0.042,0.021-0.064,0.031c-0.021,0.01-0.042,0.02-0.064,0.029c-0.021,0.009-0.042,0.019-0.064,0.028
				c-0.021,0.009-0.042,0.018-0.064,0.026c-0.021,0.008-0.042,0.017-0.064,0.025c-0.021,0.008-0.042,0.016-0.064,0.023
				c-0.021,0.008-0.042,0.015-0.064,0.022c-0.021,0.007-0.042,0.014-0.064,0.021c-0.021,0.007-0.042,0.013-0.064,0.019
				c-0.021,0.006-0.042,0.012-0.064,0.018c-0.021,0.006-0.042,0.012-0.064,0.017c-0.021,0.005-0.042,0.011-0.064,0.016
				c-0.021,0.005-0.042,0.01-0.064,0.015c-0.021,0.005-0.042,0.009-0.064,0.014c-0.021,0.004-0.042,0.009-0.064,0.013
				c-0.021,0.004-0.042,0.008-0.064,0.012c-0.021,0.004-0.042,0.007-0.064,0.011l-0.064,0.01c-0.021,0.003-0.042,0.006-0.064,0.009
				c-0.021,0.003-0.042,0.006-0.064,0.008l-0.064,0.007c-0.021,0.002-0.042,0.004-0.064,0.006c-0.021,0.002-0.042,0.004-0.064,0.006
				c-0.021,0.002-0.042,0.003-0.064,0.004c-0.021,0.001-0.043,0.003-0.064,0.004c-0.021,0.001-0.042,0.002-0.064,0.003
				c-0.021,0.001-0.043,0.001-0.064,0.002l-0.064,0.001c-0.021,0-0.042,0-0.064,0.001l-0.024,0l-0.04,0l-0.064,0l-0.064-0.001
				l-0.064-0.001l-0.064-0.002l-0.064-0.002l-0.064-0.003l-0.064-0.003l-0.064-0.003l-0.064-0.004l-0.064-0.004l-0.064-0.005
				l-0.064-0.005l-0.064-0.005l-0.064-0.006l-0.064-0.006l-0.064-0.007l-0.064-0.007l-0.064-0.007l-0.064-0.008l-0.064-0.008
				l-0.064-0.008l-0.064-0.009l-0.064-0.009l-0.064-0.01l-0.064-0.01l-0.064-0.01l-0.064-0.011l-0.064-0.011l-0.064-0.012
				l-0.064-0.012l-0.064-0.012l-0.064-0.013l-0.064-0.013l-0.064-0.013l-0.064-0.014l-0.064-0.014l-0.064-0.014l-0.064-0.015
				l-0.064-0.015l-0.064-0.015l-0.064-0.016l-0.064-0.016l-0.064-0.017l-0.064-0.017l-0.064-0.017l-0.064-0.018l-0.064-0.018
				l-0.064-0.018l-0.064-0.019l-0.064-0.019l-0.064-0.019l-0.064-0.02l-0.064-0.02l-0.064-0.02l-0.064-0.021l-0.064-0.021
				l-0.064-0.021l-0.064-0.022l-0.064-0.022l-0.064-0.022l-0.064-0.023l-0.064-0.023l-0.064-0.023l-0.064-0.024l-0.064-0.024
				l-0.064-0.024l-0.064-0.024l-0.064-0.025l-0.064-0.025l-0.064-0.025l-0.064-0.026l-0.064-0.026l-0.064-0.026l-0.064-0.026
				l-0.064-0.027l-0.064-0.027l-0.064-0.027l-0.064-0.028l-0.064-0.028l-0.064-0.028l-0.064-0.028l-0.064-0.029l-0.064-0.029
				l-0.064-0.029l-0.064-0.03l-0.064-0.03L280.068,14.343L280.068,14.343L280.068,14.343z"/>
			
				<linearGradient id="SVGID_6_" gradientUnits="userSpaceOnUse" x1="295.5069" y1="18.5005" x2="301.2753" y2="18.5005" gradientTransform="matrix(2.8346 0 0 -2.8346 -539.3859 63.605)">
				<stop  offset="0" style="stop-color:#6E2B2F"/>
				<stop  offset="1" style="stop-color:#E30138"/>
			</linearGradient>
			<path style="fill:url(#SVGID_6_);" d="M298.409,6.47c-0.047,0.038-0.092,0.076-0.137,0.114v-8.679
				c0-0.462,0.047-0.912,0.137-1.347c0.019-0.093,0.041-0.186,0.064-0.278c0.02-0.079,0.041-0.157,0.064-0.235
				c0.02-0.069,0.042-0.138,0.064-0.206c0.02-0.062,0.042-0.124,0.064-0.186c0.021-0.057,0.042-0.114,0.064-0.17
				c0.021-0.053,0.042-0.105,0.064-0.157c0.021-0.049,0.042-0.098,0.064-0.146c0.021-0.046,0.042-0.092,0.064-0.137
				c0.021-0.043,0.042-0.086,0.064-0.129c0.021-0.041,0.042-0.082,0.064-0.123c0.021-0.039,0.042-0.078,0.064-0.117
				c0.021-0.037,0.042-0.075,0.064-0.112c0.021-0.036,0.042-0.072,0.064-0.107c0.021-0.034,0.042-0.068,0.064-0.102
				c0.021-0.033,0.042-0.066,0.064-0.098c0.021-0.032,0.042-0.064,0.064-0.095c0.021-0.031,0.042-0.062,0.064-0.092
				c0.021-0.029,0.042-0.058,0.064-0.088c0.021-0.029,0.042-0.057,0.064-0.085c0.021-0.028,0.042-0.056,0.064-0.083
				c0.021-0.027,0.043-0.053,0.064-0.079c0.021-0.026,0.042-0.052,0.064-0.078c0.021-0.025,0.042-0.051,0.064-0.076
				c0.021-0.024,0.042-0.048,0.064-0.073c0.021-0.024,0.042-0.048,0.064-0.071c0.021-0.023,0.042-0.046,0.064-0.069
				c0.021-0.022,0.042-0.045,0.064-0.067c0.021-0.022,0.042-0.044,0.064-0.065c0.021-0.021,0.042-0.042,0.064-0.063
				c0.021-0.021,0.042-0.042,0.064-0.062c0.021-0.02,0.043-0.04,0.064-0.06c0.021-0.02,0.042-0.04,0.064-0.059
				c0.021-0.019,0.043-0.038,0.064-0.057c0.021-0.019,0.042-0.037,0.064-0.056c0.021-0.018,0.042-0.036,0.064-0.054
				c0.021-0.018,0.042-0.036,0.064-0.053c0.021-0.017,0.042-0.034,0.064-0.051c0.021-0.017,0.042-0.034,0.064-0.05
				c0.021-0.016,0.042-0.033,0.064-0.049c0.021-0.016,0.042-0.032,0.064-0.048c0.021-0.016,0.043-0.031,0.064-0.047
				c0.021-0.015,0.042-0.031,0.064-0.046c0.021-0.015,0.043-0.03,0.064-0.044c0.021-0.015,0.042-0.029,0.064-0.043
				c0.021-0.014,0.043-0.028,0.064-0.042c0.021-0.014,0.042-0.028,0.064-0.041c0.021-0.013,0.043-0.027,0.064-0.04
				c0.021-0.013,0.042-0.027,0.064-0.04c0.021-0.013,0.043-0.025,0.064-0.038c0.021-0.013,0.042-0.025,0.064-0.038
				c0.021-0.012,0.043-0.024,0.064-0.036c0.021-0.012,0.042-0.024,0.064-0.036c0.021-0.012,0.043-0.023,0.064-0.034
				c0.021-0.011,0.042-0.023,0.064-0.034l0.064-0.033l0.064-0.032c0.021-0.01,0.042-0.021,0.064-0.031
				c0.021-0.01,0.043-0.02,0.064-0.03c0.021-0.01,0.042-0.02,0.064-0.03c0.021-0.01,0.043-0.019,0.064-0.028
				c0.021-0.009,0.042-0.019,0.064-0.028c0.021-0.009,0.043-0.018,0.064-0.027l0.064-0.026c0.021-0.009,0.042-0.017,0.064-0.025
				c0.021-0.008,0.043-0.016,0.064-0.024c0.021-0.008,0.042-0.016,0.064-0.024c0.021-0.008,0.043-0.015,0.064-0.022
				c0.021-0.008,0.042-0.015,0.064-0.022c0.021-0.007,0.043-0.014,0.064-0.021l0.064-0.021c0.021-0.007,0.043-0.014,0.064-0.02
				c0.021-0.007,0.043-0.013,0.064-0.019c0.021-0.006,0.043-0.013,0.064-0.019c0.021-0.006,0.043-0.012,0.064-0.018l0.064-0.017
				c0.021-0.006,0.043-0.011,0.064-0.017c0.021-0.005,0.043-0.01,0.064-0.016c0.021-0.005,0.043-0.011,0.064-0.016
				c0.021-0.005,0.043-0.01,0.064-0.014l0.064-0.014c0.021-0.005,0.042-0.009,0.064-0.013c0.021-0.004,0.043-0.008,0.064-0.012
				c0.021-0.004,0.042-0.008,0.064-0.012l0.064-0.011l0.064-0.011c0.021-0.003,0.043-0.007,0.064-0.01
				c0.021-0.003,0.043-0.006,0.064-0.009c0.021-0.003,0.043-0.006,0.064-0.009l0.064-0.008l0.064-0.007
				c0.021-0.002,0.043-0.005,0.064-0.007c0.021-0.002,0.043-0.004,0.064-0.006l0.064-0.006c0.021-0.002,0.043-0.004,0.064-0.005
				c0.021-0.002,0.043-0.003,0.064-0.004c0.021-0.001,0.043-0.003,0.064-0.004c0.021-0.001,0.043-0.002,0.064-0.003l0.064-0.002
				c0.021-0.001,0.043-0.002,0.064-0.002c0.021-0.001,0.043,0,0.064-0.001c0.021,0,0.043-0.001,0.064-0.001l0.028,0h0.036h0.064
				h0.064h0.064h0.064h0.064h0.064h0.064h0.064h0.064h0.064h0.064h0.064h0.064h0.064h0.064h0.064h0.064h0.064h0.064h0.064h0.064
				h0.064h0.064h0.064h0.064h0.064h0.064h0.064h0.064h0.064h0.064h0.064h0.064h0.064h0.064h0.064h0.064h0.064h0.064h0.064h0.064
				h0.064h0.064h0.064h0.064h0.064h0.064h0.064h0.064h0.064h0.064h0.064h0.064h0.064h0.064h0.064h0.064h0.064h0.064h0.064h0.064
				h0.064h0.064h0.064h0.064h0.064h0.064h0.064h0.064h0.064h0.064h0.064h0.064h0.064h0.064h0.064h0.064h0.064h0.064h0.064h0.064
				h0.064h0.064h0.064h0.064h0.064h0.064h0.064h0.064h0.064h0.064h0.064h0.064h0.064h0.064h0.064h0.064h0.064h0.064h0.064h0.064
				h0.064h0.064h0.064h0.064h0.064h0.064h0.064h0.064h0.064h0.064h0.064h0.064h0.064h0.064h0.064h0.064h0.064h0.064h0.064h0.064
				h0.064h0.064h0.064h0.064h0.064h0.064h0.064h0.064h0.064h0.064h0.064h0.064h0.064h0.064h0.064h0.064h0.064h0.064h0.064h0.064
				h0.064h0.064h0.064h0.064h0.064h0.064h0.064h0.064h0.064h0.064h0.054v33.146c0,0.288-0.018,0.572-0.054,0.851
				c-0.017,0.134-0.039,0.267-0.064,0.398c-0.019,0.1-0.04,0.199-0.064,0.298c-0.02,0.083-0.041,0.165-0.064,0.247
				c-0.02,0.072-0.041,0.143-0.064,0.213c-0.02,0.064-0.042,0.127-0.064,0.19c-0.021,0.058-0.042,0.116-0.064,0.174
				c-0.021,0.054-0.042,0.107-0.064,0.16c-0.021,0.05-0.042,0.1-0.064,0.149c-0.021,0.047-0.042,0.093-0.064,0.14
				c-0.021,0.044-0.042,0.088-0.064,0.132c-0.021,0.042-0.042,0.083-0.064,0.125c-0.021,0.04-0.042,0.079-0.064,0.119
				c-0.021,0.038-0.042,0.076-0.064,0.114c-0.021,0.036-0.042,0.072-0.064,0.108c-0.021,0.035-0.042,0.069-0.064,0.103
				c-0.021,0.033-0.042,0.067-0.064,0.1c-0.021,0.032-0.042,0.065-0.064,0.097c-0.021,0.031-0.042,0.062-0.064,0.092
				c-0.021,0.03-0.042,0.059-0.064,0.089c-0.021,0.029-0.042,0.058-0.064,0.087c-0.021,0.028-0.042,0.056-0.064,0.083
				c-0.021,0.027-0.042,0.054-0.064,0.081c-0.021,0.026-0.042,0.053-0.064,0.079c-0.021,0.025-0.042,0.05-0.064,0.076
				c-0.021,0.025-0.042,0.049-0.064,0.074c-0.021,0.024-0.042,0.048-0.064,0.072c-0.021,0.023-0.043,0.046-0.064,0.069
				c-0.021,0.023-0.042,0.046-0.064,0.068c-0.021,0.022-0.042,0.044-0.064,0.065c-0.021,0.021-0.042,0.043-0.064,0.064
				c-0.021,0.021-0.042,0.042-0.064,0.062c-0.021,0.02-0.042,0.04-0.064,0.06c-0.021,0.02-0.042,0.04-0.064,0.06
				c-0.021,0.019-0.043,0.038-0.064,0.057c-0.021,0.019-0.042,0.038-0.064,0.057c-0.021,0.018-0.043,0.036-0.064,0.054
				c-0.021,0.018-0.042,0.036-0.064,0.054c-0.021,0.017-0.043,0.034-0.064,0.051c-0.021,0.017-0.042,0.034-0.064,0.051
				c-0.021,0.017-0.043,0.033-0.064,0.049c-0.021,0.016-0.042,0.033-0.064,0.049c-0.021,0.016-0.043,0.031-0.064,0.047
				c-0.021,0.015-0.042,0.031-0.064,0.046c-0.021,0.015-0.043,0.03-0.064,0.044c-0.021,0.015-0.042,0.03-0.064,0.044
				c-0.021,0.014-0.043,0.028-0.064,0.042c-0.021,0.014-0.042,0.028-0.064,0.042c-0.021,0.014-0.043,0.027-0.064,0.04
				c-0.021,0.013-0.042,0.027-0.064,0.04c-0.021,0.013-0.043,0.025-0.064,0.038c-0.021,0.013-0.042,0.025-0.064,0.038
				c-0.021,0.012-0.043,0.024-0.064,0.036l-0.064,0.036l-0.064,0.035l-0.064,0.034c-0.021,0.011-0.042,0.022-0.064,0.033
				c-0.021,0.011-0.043,0.021-0.064,0.032c-0.021,0.011-0.042,0.021-0.064,0.032c-0.021,0.01-0.043,0.02-0.064,0.03
				s-0.042,0.02-0.064,0.03c-0.021,0.01-0.043,0.019-0.064,0.028l-0.064,0.028l-0.064,0.027l-0.064,0.026
				c-0.021,0.009-0.043,0.017-0.064,0.026c-0.021,0.008-0.043,0.016-0.064,0.024c-0.021,0.008-0.042,0.016-0.064,0.024
				c-0.021,0.008-0.043,0.015-0.064,0.023l-0.064,0.023l-0.064,0.022c-0.021,0.007-0.043,0.014-0.064,0.021
				c-0.021,0.007-0.042,0.014-0.064,0.021c-0.021,0.007-0.043,0.013-0.064,0.019l-0.064,0.019l-0.064,0.018
				c-0.021,0.006-0.043,0.012-0.064,0.017c-0.021,0.006-0.042,0.012-0.064,0.017c-0.021,0.005-0.043,0.01-0.064,0.016
				c-0.021,0.005-0.043,0.011-0.064,0.016l-0.064,0.015l-0.064,0.014c-0.021,0.005-0.042,0.009-0.064,0.014
				c-0.021,0.004-0.043,0.008-0.064,0.012l-0.064,0.012l-0.064,0.012c-0.021,0.004-0.043,0.007-0.064,0.011
				c-0.021,0.003-0.043,0.007-0.064,0.011c-0.021,0.003-0.043,0.006-0.064,0.009l-0.064,0.009c-0.021,0.003-0.043,0.006-0.064,0.008
				c-0.021,0.003-0.043,0.005-0.064,0.007c-0.021,0.002-0.043,0.005-0.064,0.007c-0.021,0.002-0.043,0.004-0.064,0.006l-0.064,0.006
				c-0.021,0.002-0.042,0.004-0.064,0.006c-0.021,0.002-0.043,0.003-0.064,0.004l-0.064,0.004l-0.064,0.003
				c-0.021,0.001-0.043,0.002-0.064,0.002c-0.021,0.001-0.043,0.002-0.064,0.002c-0.021,0.001-0.043,0.001-0.064,0.001l-0.064,0.001
				c-0.02,0-0.04,0.001-0.06,0.001h-0.004h-0.064h-0.064h-0.064h-0.064h-0.064h-0.064h-0.064h-0.064h-0.064h-0.064h-0.064h-0.064
				h-0.064h-0.064h-0.064h-0.064h-0.064h-0.064h-0.064h-0.064h-0.064h-0.064h-0.064h-0.064h-0.064h-0.064h-0.064h-0.064h-0.064
				h-0.064h-0.064h-0.064h-0.064h-0.064h-0.064h-0.064h-0.064h-0.064h-0.064h-0.064h-0.064h-0.064h-0.064h-0.064h-0.064h-0.064
				h-0.064h-0.064h-0.064h-0.064h-0.064h-0.064h-0.064h-0.064h-0.064h-0.064h-0.064h-0.064h-0.064h-0.064h-0.064h-0.064h-0.064
				h-0.064h-0.064h-0.064h-0.064h-0.064h-0.064h-0.064h-0.064h-0.064h-0.064h-0.064h-0.064h-0.064h-0.064h-0.064h-0.064h-0.064
				h-0.064h-0.064h-0.064h-0.064h-0.064h-0.064h-0.064h-0.064h-0.064h-0.064h-0.064h-0.064h-0.064h-0.064h-0.064h-0.064h-0.064
				h-0.064h-0.064h-0.064h-0.064h-0.064h-0.064h-0.064h-0.064h-0.064h-0.064h-0.064h-0.064h-0.064H300.9h-0.064h-0.064h-0.064
				h-0.064h-0.064h-0.064h-0.064h-0.064h-0.064h-0.064h-0.064h-0.064h-0.064h-0.064h-0.064h-0.064h-0.064h-0.064h-0.064h-0.064
				h-0.064h-0.064h-0.064h-0.064h-0.064h-0.064h-0.064h-0.064h-0.064h-0.064h-0.064h-0.064h-0.064h-0.064h-0.064H298.6h-0.064
				h-0.064h-0.064h-0.137V15.744c0.045,0.038,0.091,0.076,0.137,0.114c0.021,0.017,0.042,0.034,0.064,0.051
				c0.021,0.017,0.042,0.033,0.064,0.05c0.021,0.016,0.042,0.032,0.064,0.049c0.021,0.016,0.042,0.031,0.064,0.047
				c0.021,0.015,0.042,0.031,0.064,0.046c0.021,0.015,0.042,0.03,0.064,0.045l0.064,0.044c0.021,0.014,0.042,0.028,0.064,0.043
				l0.064,0.042c0.021,0.014,0.042,0.027,0.064,0.041c0.021,0.013,0.042,0.026,0.064,0.04l0.064,0.039
				c0.021,0.013,0.042,0.025,0.064,0.038c0.021,0.012,0.042,0.025,0.064,0.037l0.064,0.036l0.064,0.035l0.064,0.035
				c0.021,0.011,0.042,0.023,0.064,0.034c0.021,0.011,0.043,0.022,0.064,0.033l0.064,0.032l0.064,0.032l0.064,0.031
				c0.021,0.01,0.042,0.02,0.064,0.031l0.064,0.029l0.064,0.029l0.064,0.028l0.064,0.028l0.064,0.027l0.064,0.027l0.064,0.026
				l0.064,0.025l0.064,0.025l0.064,0.024c0.021,0.008,0.042,0.016,0.064,0.024l0.064,0.023c0.021,0.008,0.042,0.016,0.064,0.023
				c0.021,0.008,0.043,0.015,0.064,0.022l0.064,0.022l0.064,0.021c0.021,0.007,0.042,0.014,0.064,0.021
				c0.021,0.007,0.043,0.014,0.064,0.02l0.064,0.02l0.064,0.02l0.064,0.02l0.064,0.019l0.064,0.019l0.064,0.018l0.064,0.018
				l0.064,0.017l0.064,0.017l0.064,0.017l0.064,0.016l0.064,0.016l0.064,0.015l0.064,0.015l0.064,0.015l0.064,0.015l0.064,0.014
				l0.064,0.014l0.064,0.014l0.064,0.013l0.064,0.013l0.064,0.013l0.064,0.012l0.064,0.012l0.064,0.012l0.064,0.012l0.064,0.011
				l0.064,0.011l0.064,0.011l0.064,0.01l0.064,0.01l0.064,0.01l0.064,0.01l0.064,0.009l0.064,0.009l0.064,0.009l0.064,0.008
				l0.064,0.008l0.064,0.008l0.064,0.008l0.064,0.008l0.064,0.007l0.064,0.007l0.064,0.007l0.064,0.007l0.064,0.007l0.064,0.006
				l0.064,0.006l0.064,0.006l0.064,0.006l0.064,0.005l0.064,0.005l0.064,0.005l0.064,0.005l0.064,0.005l0.064,0.004l0.064,0.004
				l0.064,0.004l0.064,0.004l0.064,0.004l0.064,0.004l0.064,0.003l0.064,0.003l0.064,0.003l0.064,0.003l0.064,0.003l0.064,0.003
				l0.064,0.002l0.064,0.002l0.064,0.002l0.064,0.002l0.064,0.002l0.064,0.002l0.064,0.001l0.064,0.001l0.064,0.001l0.064,0.001
				l0.064,0.001l0.064,0.001l0.064,0l0.064,0l0.064,0l0.064,0l0.064,0l0.064,0l0.064-0.001l0.064-0.001l0.064-0.001l0.064-0.001
				l0.064-0.001l0.064-0.001l0.064-0.001l0.064-0.002l0.064-0.002l0.064-0.002l0.064-0.002l0.064-0.002l0.064-0.002l0.064-0.002
				l0.064-0.003l0.064-0.003l0.064-0.003l0.031-0.001l0.033-0.002l0.064-0.003l0.064-0.003l0.064-0.003l0.064-0.004l0.064-0.004
				l0.064-0.004l0.064-0.004l0.064-0.005l0.064-0.005l0.064-0.005l0.064-0.005l0.064-0.005l0.064-0.006l0.064-0.006l0.064-0.006
				l0.064-0.006l0.064-0.006l0.064-0.006l0.064-0.007l0.064-0.007l0.064-0.007l0.064-0.007l0.064-0.007l0.064-0.008l0.064-0.008
				l0.064-0.008l0.064-0.008l0.064-0.008l0.064-0.008l0.064-0.009l0.064-0.009l0.064-0.009l0.064-0.009l0.064-0.009l0.064-0.009
				l0.064-0.009l0.064-0.01l0.064-0.01l0.064-0.01l0.064-0.01l0.064-0.01l0.064-0.01l0.064-0.01l0.064-0.01l0.064-0.011l0.064-0.011
				l0.064-0.011l0.064-0.011l0.064-0.011l0.064-0.011l0.064-0.011l0.064-0.011l0.064-0.012l0.064-0.012l0.064-0.012l0.064-0.012
				l0.064-0.012l0.064-0.012l0.064-0.012l0.064-0.012l0.064-0.013l0.064-0.013l0.064-0.013l0.064-0.013l0.064-0.013l0.064-0.013
				l0.064-0.013l0.064-0.013l0.064-0.014l0.064-0.014l0.064-0.014l0.064-0.014l0.064-0.014l0.064-0.014l0.064-0.014l0.064-0.015
				l0.064-0.015l0.064-0.015l0.064-0.015l0.064-0.015l0.064-0.016v-2.804l-0.064,0.032l-0.064,0.032l-0.064,0.031l-0.064,0.031
				l-0.064,0.031l-0.064,0.03l-0.064,0.03l-0.064,0.03l-0.064,0.029l-0.064,0.029l-0.064,0.029l-0.064,0.029l-0.064,0.028
				l-0.064,0.028l-0.064,0.028l-0.064,0.027l-0.064,0.027l-0.064,0.027l-0.064,0.026l-0.064,0.026l-0.064,0.025l-0.064,0.025
				l-0.064,0.025l-0.064,0.024l-0.064,0.024l-0.064,0.024l-0.064,0.023l-0.064,0.023l-0.064,0.023l-0.064,0.022l-0.064,0.022
				l-0.064,0.021l-0.064,0.021l-0.064,0.021l-0.064,0.02l-0.064,0.02l-0.064,0.02l-0.064,0.019l-0.064,0.019l-0.064,0.019
				l-0.064,0.018l-0.064,0.018l-0.064,0.018l-0.064,0.017l-0.064,0.017l-0.064,0.016l-0.064,0.016l-0.064,0.016l-0.064,0.015
				l-0.064,0.015l-0.064,0.015l-0.064,0.014l-0.064,0.014l-0.064,0.014l-0.064,0.013l-0.064,0.013l-0.064,0.013l-0.064,0.012
				l-0.064,0.012l-0.064,0.011l-0.064,0.011l-0.064,0.011l-0.064,0.01l-0.064,0.01l-0.064,0.01l-0.064,0.009l-0.064,0.009
				l-0.064,0.009l-0.064,0.008l-0.064,0.008l-0.064,0.008l-0.064,0.007l-0.064,0.007l-0.064,0.007l-0.064,0.006l-0.064,0.006
				l-0.064,0.006l-0.064,0.005l-0.039,0.003l-0.025,0.002l-0.064,0.004l-0.064,0.004l-0.064,0.003l-0.064,0.003l-0.064,0.003
				l-0.064,0.002l-0.064,0.002l-0.064,0.001l-0.064,0.001l-0.064,0.001c-0.021,0-0.043,0-0.064,0l-0.064,0l-0.064-0.001
				l-0.064-0.001l-0.064-0.002c-0.021-0.001-0.043-0.002-0.064-0.003c-0.021-0.001-0.043-0.002-0.064-0.003l-0.064-0.004
				l-0.064-0.004l-0.064-0.004l-0.064-0.005c-0.021-0.002-0.043-0.003-0.064-0.005c-0.021-0.002-0.043-0.004-0.064-0.006
				l-0.064-0.006l-0.064-0.007l-0.064-0.008l-0.064-0.008l-0.064-0.009c-0.021-0.003-0.043-0.006-0.064-0.009
				c-0.021-0.003-0.043-0.007-0.064-0.011c-0.021-0.004-0.043-0.007-0.064-0.011c-0.021-0.004-0.043-0.008-0.064-0.012
				c-0.021-0.004-0.043-0.008-0.064-0.012c-0.021-0.004-0.043-0.009-0.064-0.013c-0.021-0.004-0.043-0.009-0.064-0.013
				c-0.021-0.005-0.043-0.01-0.064-0.015l-0.064-0.015c-0.021-0.005-0.043-0.011-0.064-0.016c-0.021-0.005-0.043-0.011-0.064-0.017
				c-0.021-0.006-0.043-0.012-0.064-0.018c-0.021-0.006-0.043-0.012-0.064-0.018c-0.021-0.006-0.043-0.013-0.064-0.019
				c-0.021-0.007-0.043-0.013-0.064-0.02c-0.021-0.007-0.043-0.014-0.064-0.021c-0.021-0.007-0.043-0.014-0.064-0.022
				c-0.021-0.007-0.043-0.015-0.064-0.023c-0.021-0.008-0.043-0.015-0.064-0.023c-0.021-0.008-0.043-0.017-0.064-0.025
				c-0.021-0.008-0.043-0.017-0.064-0.025c-0.022-0.009-0.043-0.018-0.064-0.027c-0.021-0.009-0.043-0.018-0.064-0.028
				c-0.021-0.01-0.043-0.02-0.064-0.029c-0.021-0.01-0.043-0.02-0.064-0.03c-0.021-0.01-0.043-0.021-0.064-0.032
				c-0.021-0.011-0.043-0.022-0.064-0.033c-0.021-0.011-0.043-0.022-0.064-0.034c-0.022-0.012-0.043-0.024-0.064-0.036
				c-0.021-0.012-0.043-0.024-0.064-0.037c-0.021-0.013-0.043-0.026-0.064-0.039c-0.021-0.013-0.043-0.027-0.064-0.04
				c-0.021-0.014-0.043-0.027-0.064-0.041c-0.022-0.014-0.043-0.029-0.064-0.044c-0.021-0.015-0.043-0.03-0.064-0.045
				c-0.021-0.015-0.043-0.031-0.064-0.047c-0.022-0.016-0.043-0.033-0.064-0.049c-0.021-0.017-0.043-0.034-0.064-0.051
				c-0.021-0.018-0.043-0.035-0.064-0.053c-0.022-0.018-0.043-0.037-0.064-0.056c-0.022-0.019-0.043-0.039-0.064-0.058
				c-0.021-0.02-0.043-0.04-0.064-0.061c-0.021-0.021-0.043-0.042-0.064-0.063c-0.022-0.022-0.043-0.045-0.064-0.068
				c-0.022-0.023-0.043-0.047-0.064-0.071c-0.022-0.025-0.043-0.049-0.064-0.074c-0.022-0.026-0.043-0.052-0.064-0.078
				c-0.022-0.027-0.043-0.055-0.064-0.083c-0.022-0.029-0.043-0.058-0.064-0.088c-0.022-0.031-0.043-0.062-0.064-0.093
				c-0.022-0.033-0.043-0.066-0.064-0.1c-0.022-0.035-0.043-0.071-0.064-0.107c-0.022-0.038-0.043-0.076-0.064-0.115
				c-0.022-0.041-0.043-0.083-0.064-0.125c-0.022-0.045-0.043-0.091-0.064-0.137c-0.022-0.05-0.044-0.1-0.064-0.151
				c-0.022-0.056-0.043-0.114-0.064-0.172c-0.023-0.064-0.044-0.129-0.064-0.195c-0.023-0.077-0.044-0.155-0.064-0.234
				c-0.024-0.099-0.045-0.2-0.064-0.302c-0.028-0.152-0.049-0.309-0.064-0.469c-0.017-0.186-0.026-0.377-0.026-0.573
				c0-0.197,0.009-0.388,0.026-0.574c0.015-0.161,0.036-0.317,0.064-0.47c0.019-0.103,0.04-0.204,0.064-0.302
				c0.019-0.079,0.041-0.157,0.064-0.234c0.02-0.066,0.041-0.131,0.064-0.196c0.02-0.058,0.041-0.115,0.064-0.172
				c0.02-0.051,0.042-0.101,0.064-0.151c0.021-0.046,0.042-0.092,0.064-0.137c0.021-0.042,0.042-0.084,0.064-0.125
				c0.021-0.039,0.042-0.077,0.064-0.115c0.021-0.036,0.042-0.072,0.064-0.107c0.021-0.034,0.042-0.067,0.064-0.1
				c0.021-0.031,0.042-0.062,0.064-0.093c0.021-0.03,0.042-0.059,0.064-0.088c0.021-0.028,0.042-0.055,0.064-0.083
				c0.021-0.026,0.042-0.052,0.064-0.078c0.021-0.025,0.042-0.05,0.064-0.074c0.021-0.024,0.042-0.048,0.064-0.071
				c0.021-0.023,0.042-0.045,0.064-0.068c0.021-0.021,0.042-0.043,0.064-0.064c0.021-0.021,0.042-0.041,0.064-0.061
				c0.021-0.02,0.042-0.039,0.064-0.059c0.021-0.019,0.042-0.038,0.064-0.056c0.021-0.018,0.042-0.035,0.064-0.053
				c0.021-0.017,0.042-0.034,0.064-0.051c0.021-0.017,0.042-0.033,0.064-0.049c0.021-0.016,0.042-0.031,0.064-0.047
				c0.021-0.015,0.042-0.03,0.064-0.045c0.021-0.015,0.042-0.029,0.064-0.044c0.021-0.014,0.043-0.028,0.064-0.041
				c0.021-0.014,0.042-0.027,0.064-0.04c0.021-0.013,0.042-0.026,0.064-0.039c0.021-0.012,0.043-0.025,0.064-0.037
				c0.021-0.012,0.042-0.024,0.064-0.036c0.021-0.012,0.043-0.023,0.064-0.034c0.021-0.011,0.042-0.022,0.064-0.033
				c0.021-0.011,0.042-0.021,0.064-0.032c0.021-0.01,0.042-0.02,0.064-0.03c0.021-0.01,0.042-0.02,0.064-0.029
				c0.021-0.009,0.043-0.019,0.064-0.028c0.021-0.009,0.042-0.018,0.064-0.027c0.021-0.009,0.043-0.017,0.064-0.025
				c0.021-0.008,0.042-0.017,0.064-0.025c0.021-0.008,0.043-0.016,0.064-0.023c0.021-0.008,0.042-0.016,0.064-0.023
				c0.021-0.007,0.043-0.015,0.064-0.022c0.021-0.007,0.042-0.014,0.064-0.021c0.021-0.007,0.042-0.013,0.064-0.02
				c0.021-0.007,0.042-0.013,0.064-0.019l0.064-0.018c0.021-0.006,0.042-0.012,0.064-0.018c0.021-0.006,0.043-0.011,0.064-0.017
				c0.021-0.005,0.042-0.011,0.064-0.016l0.064-0.015c0.021-0.005,0.042-0.01,0.064-0.015c0.021-0.005,0.043-0.009,0.064-0.013
				c0.021-0.004,0.042-0.009,0.064-0.013c0.021-0.004,0.043-0.008,0.064-0.012c0.021-0.004,0.042-0.008,0.064-0.012
				c0.021-0.004,0.043-0.007,0.064-0.011s0.042-0.007,0.064-0.011l0.064-0.009l0.064-0.009l0.064-0.008l0.064-0.008l0.064-0.007
				l0.064-0.006c0.021-0.002,0.042-0.004,0.064-0.006c0.021-0.002,0.043-0.003,0.064-0.005l0.064-0.005l0.064-0.004l0.064-0.004
				l0.064-0.004c0.021-0.001,0.043-0.002,0.064-0.003c0.021-0.001,0.042-0.002,0.064-0.003l0.064-0.002l0.064-0.001l0.064-0.001
				l0.064,0c0.021,0,0.042,0,0.064,0l0.064,0.001l0.064,0.001l0.064,0.001l0.064,0.002l0.064,0.002l0.064,0.003l0.064,0.003
				l0.064,0.003l0.064,0.004l0.064,0.004l0.025,0.002l0.039,0.003l0.064,0.005l0.064,0.006l0.064,0.006l0.064,0.006l0.064,0.007
				l0.064,0.007l0.064,0.007l0.064,0.007l0.064,0.008l0.064,0.008l0.064,0.008l0.064,0.009l0.064,0.009l0.064,0.009l0.064,0.01
				l0.064,0.01l0.064,0.01l0.064,0.011l0.064,0.011l0.064,0.012l0.064,0.012l0.064,0.012l0.064,0.013l0.064,0.013l0.064,0.013
				l0.064,0.014l0.064,0.014l0.064,0.014l0.064,0.015l0.064,0.015l0.064,0.016l0.064,0.016l0.064,0.016l0.064,0.017l0.064,0.017
				l0.064,0.017l0.064,0.018l0.064,0.018l0.064,0.019l0.064,0.019l0.064,0.019l0.064,0.02l0.064,0.02l0.064,0.02l0.064,0.021
				l0.064,0.021l0.064,0.022l0.064,0.022l0.064,0.022l0.064,0.023l0.064,0.023l0.064,0.023l0.064,0.024l0.064,0.024l0.064,0.025
				l0.064,0.025l0.064,0.025l0.064,0.026l0.064,0.026l0.064,0.026l0.064,0.027l0.064,0.027l0.064,0.027l0.064,0.028l0.064,0.028
				l0.064,0.028l0.064,0.029l0.064,0.029l0.064,0.029l0.064,0.03l0.064,0.03l0.064,0.03l0.064,0.031l0.064,0.031l0.064,0.031
				l0.064,0.032l0.064,0.032l0.064,0.032V5.244l-0.064-0.016l-0.064-0.015l-0.064-0.015l-0.064-0.015l-0.064-0.015l-0.064-0.015
				l-0.064-0.014l-0.064-0.014l-0.064-0.014l-0.064-0.014l-0.064-0.014l-0.064-0.014l-0.064-0.014l-0.064-0.013l-0.064-0.013
				l-0.064-0.013l-0.064-0.013l-0.064-0.013l-0.064-0.013l-0.064-0.013l-0.064-0.013l-0.064-0.013l-0.064-0.012l-0.064-0.012
				l-0.064-0.012L311.12,4.89l-0.064-0.012l-0.064-0.012l-0.064-0.012l-0.064-0.011L310.8,4.833l-0.064-0.011l-0.064-0.011
				l-0.064-0.011l-0.064-0.011l-0.064-0.011l-0.064-0.011l-0.064-0.01l-0.064-0.01l-0.064-0.01l-0.064-0.01l-0.064-0.01l-0.064-0.01
				l-0.064-0.01l-0.064-0.009l-0.064-0.009l-0.064-0.009l-0.064-0.009l-0.064-0.009l-0.064-0.009l-0.064-0.009l-0.064-0.008
				l-0.064-0.008l-0.064-0.008l-0.064-0.008l-0.064-0.008l-0.064-0.008l-0.064-0.007l-0.064-0.007l-0.064-0.007l-0.064-0.007
				L308.82,4.55l-0.064-0.007l-0.064-0.006l-0.064-0.006l-0.064-0.006l-0.064-0.006l-0.064-0.006l-0.064-0.006l-0.064-0.005
				l-0.064-0.005l-0.064-0.005l-0.064-0.005l-0.064-0.005l-0.064-0.004l-0.064-0.004l-0.064-0.004l-0.064-0.004l-0.064-0.003
				l-0.064-0.003l-0.064-0.003l-0.033-0.002l-0.031-0.001l-0.064-0.003l-0.064-0.003l-0.064-0.003l-0.064-0.002l-0.064-0.002
				l-0.064-0.002l-0.064-0.002l-0.064-0.002l-0.064-0.002l-0.064-0.002L306.84,4.43l-0.064-0.001l-0.064-0.001l-0.064-0.001
				l-0.064-0.001l-0.064-0.001l-0.064-0.001l-0.064,0l-0.064,0l-0.064,0l-0.064,0l-0.064,0l-0.064,0l-0.064,0.001l-0.064,0.001
				l-0.064,0.001l-0.064,0.001l-0.064,0.001l-0.064,0.001l-0.064,0.002l-0.064,0.002l-0.064,0.002l-0.064,0.002l-0.064,0.002
				l-0.064,0.002l-0.064,0.003l-0.064,0.003l-0.064,0.003l-0.064,0.003l-0.064,0.003l-0.064,0.003l-0.064,0.004l-0.064,0.004
				l-0.064,0.004l-0.064,0.004l-0.064,0.004l-0.064,0.004l-0.064,0.005l-0.064,0.005l-0.064,0.005l-0.064,0.005l-0.064,0.005
				l-0.064,0.006l-0.064,0.006l-0.064,0.006l-0.064,0.006l-0.064,0.007l-0.064,0.007l-0.064,0.007l-0.064,0.007l-0.064,0.007
				l-0.064,0.008l-0.064,0.008l-0.064,0.008l-0.064,0.008l-0.064,0.008l-0.064,0.009l-0.064,0.009l-0.064,0.009l-0.064,0.01
				l-0.064,0.01l-0.064,0.01l-0.064,0.01l-0.064,0.011l-0.064,0.011l-0.064,0.011l-0.064,0.012L302.56,4.73l-0.064,0.012
				l-0.064,0.012l-0.064,0.013l-0.064,0.013l-0.064,0.013l-0.064,0.014l-0.064,0.014l-0.064,0.014l-0.064,0.015l-0.064,0.015
				l-0.064,0.015l-0.064,0.015l-0.064,0.016l-0.064,0.016l-0.064,0.017l-0.064,0.017l-0.064,0.017l-0.064,0.018l-0.064,0.018
				l-0.064,0.019l-0.064,0.019l-0.064,0.02l-0.064,0.02l-0.064,0.02c-0.021,0.007-0.043,0.014-0.064,0.02L300.9,5.155
				c-0.021,0.007-0.043,0.014-0.064,0.021l-0.064,0.022l-0.064,0.022c-0.021,0.008-0.043,0.016-0.064,0.023
				c-0.021,0.008-0.043,0.015-0.064,0.023l-0.064,0.024c-0.021,0.008-0.043,0.016-0.064,0.024l-0.064,0.025l-0.064,0.025
				l-0.064,0.026l-0.064,0.027l-0.064,0.027l-0.064,0.028l-0.064,0.028l-0.064,0.029l-0.064,0.029
				c-0.021,0.01-0.043,0.02-0.064,0.031l-0.064,0.031l-0.064,0.032l-0.064,0.032c-0.021,0.011-0.043,0.022-0.064,0.033
				c-0.021,0.011-0.043,0.023-0.064,0.034l-0.064,0.035l-0.064,0.035c-0.021,0.012-0.043,0.024-0.064,0.036
				c-0.021,0.012-0.043,0.024-0.064,0.037c-0.021,0.013-0.043,0.025-0.064,0.038c-0.021,0.013-0.043,0.026-0.064,0.039
				c-0.021,0.013-0.043,0.026-0.064,0.04c-0.021,0.014-0.043,0.027-0.064,0.041l-0.064,0.042c-0.021,0.014-0.043,0.028-0.064,0.043
				l-0.064,0.044c-0.021,0.015-0.043,0.03-0.064,0.045c-0.021,0.015-0.043,0.031-0.064,0.046c-0.021,0.016-0.043,0.031-0.064,0.047
				c-0.022,0.016-0.043,0.032-0.064,0.049c-0.021,0.016-0.043,0.033-0.064,0.05C298.451,6.436,298.43,6.453,298.409,6.47
				L298.409,6.47L298.409,6.47z"/>
		</g>
	</g>
</g>
</svg>
