<?xml version="1.0" encoding="utf-8"?>
<!-- Generator: Adobe Illustrator 19.1.0, SVG Export Plug-In . SVG Version: 6.00 Build 0)  -->
<svg version="1.1" id="Card" xmlns="http://www.w3.org/2000/svg" xmlns:xlink="http://www.w3.org/1999/xlink" x="0px" y="0px"
	 viewBox="31 -16 86 54" style="enable-background:new 31 -16 86 54;" xml:space="preserve">
<style type="text/css">
	.st0{fill:url(#SVGID_1_);}
	.st1{fill:#231F20;}
	.st2{fill:#FFFFFF;}
	.st3{fill:#004A97;}
</style>
<linearGradient id="SVGID_1_" gradientUnits="userSpaceOnUse" x1="73.8554" y1="-16" x2="73.8554" y2="38">
	<stop  offset="0" style="stop-color:#F9F9F9"/>
	<stop  offset="1" style="stop-color:#E1E1E1"/>
</linearGradient>
<path class="st0" d="M33.9-16h80c1.7,0,3,1.3,3,3v48c0,1.7-1.3,3-3,3h-80c-1.7,0-3-1.3-3-3v-48C30.9-14.7,32.2-16,33.9-16z"/>
<g>
	<g>
		<path class="st1" d="M49.5,21.3c0,0.9,0.6,1,1.2,1c2.4,0,3.2-1.8,3.2-3.5c0-2.1-1.3-3.6-3.5-3.6c-0.5,0-0.7,0-0.9,0V21.3z
			 M48.4,16c0-1-0.5-0.9-1-1v-0.3c0.4,0,0.9,0,1.3,0c0.5,0,1.1,0,1.9,0c2.9,0,4.5,1.9,4.5,3.9c0,1.1-0.7,3.9-4.6,3.9
			c-0.6,0-1.1,0-1.6,0c-0.5,0-1,0-1.5,0v-0.3c0.7-0.1,1-0.1,1-0.9V16z"/>
		<path class="st1" d="M56.7,15.7c-0.3,0-0.5-0.3-0.5-0.6c0-0.3,0.3-0.5,0.5-0.5c0.3,0,0.5,0.2,0.5,0.5C57.3,15.5,57,15.7,56.7,15.7
			 M55.5,22.3h0.2c0.3,0,0.5,0,0.5-0.4v-3c0-0.5-0.2-0.6-0.6-0.8v-0.2c0.5-0.2,1.2-0.4,1.2-0.4c0.1,0,0.1-0.1,0.2-0.1
			c0.1,0,0.1,0.1,0.1,0.2v4.3c0,0.4,0.2,0.4,0.6,0.4h0.2v0.3c-0.4,0-0.8,0-1.2,0c-0.4,0-0.8,0-1.2,0V22.3z"/>
		<path class="st1" d="M59,18.9c0-0.4-0.1-0.5-0.6-0.7V18c0.5-0.2,0.9-0.3,1.5-0.5c0,0,0.1,0,0.1,0.1v0.7c0.6-0.5,1.2-0.8,1.9-0.8
			c1,0,1.3,0.7,1.3,1.6v2.9c0,0.4,0.2,0.4,0.6,0.4h0.2v0.3c-0.4,0-0.8,0-1.2,0c-0.4,0-0.8,0-1.2,0v-0.3h0.2c0.3,0,0.5,0,0.5-0.4V19
			c0-0.6-0.4-1-1-1c-0.4,0-0.9,0.3-1.3,0.5v3.3c0,0.4,0.2,0.4,0.6,0.4h0.2v0.3c-0.4,0-0.8,0-1.2,0c-0.4,0-0.8,0-1.2,0v-0.3h0.2
			c0.3,0,0.5,0,0.5-0.4V18.9z"/>
		<path class="st1" d="M66.7,19.1c0.3,0,0.3-0.1,0.3-0.3c0-0.6-0.3-1-1-1c-0.7,0-1.2,0.5-1.3,1.3H66.7z M64.7,19.5
			c0,0.1,0,0.3,0,0.6c0.1,1.1,0.8,1.9,1.6,1.9c0.6,0,1.1-0.3,1.5-0.8l0.2,0.2c-0.5,0.7-1.2,1.3-2.1,1.3c-1.8,0-2.1-1.7-2.1-2.4
			c0-2.2,1.5-2.8,2.3-2.8c0.9,0,1.9,0.6,1.9,1.8c0,0.1,0,0.1,0,0.2l-0.1,0.1H64.7z"/>
		<path class="st1" d="M68.3,22.3h0.3c0.3,0,0.5,0,0.5-0.4v-3.1c0-0.3-0.4-0.4-0.6-0.5v-0.2c0.8-0.3,1.3-0.6,1.4-0.6
			c0.1,0,0.1,0,0.1,0.1v1h0c0.3-0.4,0.8-1.2,1.4-1.2c0.3,0,0.6,0.2,0.6,0.6c0,0.3-0.2,0.6-0.5,0.6c-0.3,0-0.3-0.3-0.7-0.3
			c-0.2,0-0.8,0.3-0.8,0.9v2.6c0,0.4,0.2,0.4,0.5,0.4h0.6v0.3c-0.6,0-1.1,0-1.6,0c-0.5,0-0.9,0-1.3,0V22.3z"/>
		<path class="st1" d="M72.6,21c0.1,0.7,0.6,1.4,1.4,1.4c0.7,0,0.9-0.4,0.9-0.8c0-1.3-2.4-0.9-2.4-2.7c0-0.6,0.5-1.4,1.7-1.4
			c0.4,0,0.8,0.1,1.3,0.3l0.1,1.1h-0.3c-0.1-0.7-0.5-1.1-1.2-1.1c-0.4,0-0.9,0.3-0.9,0.7c0,1.3,2.6,0.9,2.6,2.7
			c0,0.7-0.6,1.5-1.9,1.5c-0.4,0-1-0.2-1.4-0.4l-0.1-1.3L72.6,21z"/>
		<path class="st1" d="M85.9,16.8h-0.3c-0.2-1.3-1.1-1.8-2.4-1.8c-1.3,0-3.2,0.9-3.2,3.6c0,2.3,1.6,3.9,3.3,3.9c1.1,0,2-0.8,2.3-1.9
			l0.3,0.1l-0.3,1.6c-0.5,0.3-1.7,0.6-2.5,0.6c-2.6,0-4.3-1.7-4.3-4.2c0-2.3,2.1-3.9,4.2-3.9c0.9,0,1.8,0.3,2.6,0.6L85.9,16.8z"/>
		<path class="st1" d="M86.3,22.3h0.2c0.3,0,0.5,0,0.5-0.4v-6.2c0-0.7-0.2-0.8-0.6-0.9v-0.2c0.4-0.1,0.9-0.3,1.2-0.5
			c0.1-0.1,0.2-0.1,0.2-0.1c0.1,0,0.1,0.1,0.1,0.2v7.7c0,0.4,0.2,0.4,0.6,0.4h0.2v0.3c-0.4,0-0.8,0-1.2,0c-0.4,0-0.8,0-1.2,0V22.3z"
			/>
		<path class="st1" d="M93.5,22c0,0.2,0.1,0.2,0.3,0.2c0.1,0,0.3,0,0.4,0v0.2c-0.5,0-1.4,0.3-1.6,0.3l-0.1,0v-0.9
			c-0.7,0.5-1.2,0.9-2,0.9c-0.6,0-1.2-0.4-1.2-1.3v-2.9c0-0.3,0-0.6-0.7-0.6v-0.2c0.4,0,1.3-0.1,1.4-0.1c0.1,0,0.1,0.1,0.1,0.3v2.9
			c0,0.3,0,1.3,1,1.3c0.4,0,0.9-0.3,1.4-0.7v-3c0-0.2-0.5-0.3-0.9-0.5v-0.2c1-0.1,1.6-0.2,1.7-0.2c0.1,0,0.1,0.1,0.1,0.2V22z"/>
		<path class="st1" d="M95.7,21.3c0,0.4,0.4,1.1,1.2,1.1c1.2,0,1.7-1.2,1.7-2.2c0-1.2-0.9-2.2-1.8-2.2c-0.4,0-0.8,0.3-1.1,0.5V21.3z
			 M95.7,18.3c0.4-0.4,1.1-0.8,1.7-0.8c1.3,0,2.1,1.1,2.1,2.4c0,1.5-1.1,2.9-2.7,2.9c-0.8,0-1.3-0.3-1.6-0.4l-0.3,0.3l-0.2-0.1
			c0.1-0.7,0.2-1.3,0.2-2v-4.8c0-0.7-0.2-0.8-0.6-0.9v-0.2c0.4-0.1,0.9-0.3,1.2-0.5c0.1-0.1,0.2-0.1,0.2-0.1c0.1,0,0.1,0.1,0.1,0.2
			V18.3z"/>
		<path class="st1" d="M47.4,29.1L47.4,29.1c0.3,0,0.5,0,0.5-0.3v-3.2c0-0.3-0.2-0.3-0.5-0.3h-0.1V25c0.2,0,0.6,0,0.9,0
			c0.3,0,0.7,0,1,0v0.2h-0.1c-0.2,0-0.5,0-0.5,0.3v3.2c0,0.3,0.2,0.3,0.5,0.3h0.1v0.2c-0.3,0-0.7,0-1,0c-0.3,0-0.7,0-0.9,0V29.1z"/>
		<path class="st1" d="M49.2,29.2l0-0.1h-0.1c-0.2,0-0.5,0-0.5-0.4v-3.2c0-0.3,0.3-0.4,0.5-0.4h0.1V25c-0.3,0-0.6,0-0.9,0
			c-0.3,0-0.6,0-0.9,0v0.1h0.1c0.2,0,0.5,0,0.5,0.4v3.2c0,0.3-0.3,0.4-0.5,0.4h-0.1v0.1c0.2,0,0.6,0,0.9,0
			C48.6,29.2,48.9,29.2,49.2,29.2 M49.2,29.3c-0.3,0-0.7,0-1,0c-0.3,0-0.7,0-0.9,0h0v0v-0.2v0h0h0.1c0.2,0,0.4,0,0.4-0.3v-3.2
			c0-0.3-0.2-0.3-0.4-0.3h-0.1v0V25h0c0.2,0,0.6,0,0.9,0c0.3,0,0.7,0,1,0h0v0v0.2h0h-0.1c-0.2,0-0.4,0-0.4,0.3v3.2
			c0,0.3,0.2,0.3,0.4,0.3h0.1v0L49.2,29.3L49.2,29.3z"/>
		<path class="st1" d="M53.4,28.1L53.4,28.1l0-2.3c0-0.5-0.3-0.6-0.5-0.6h-0.1V25c0.3,0,0.6,0,0.9,0c0.2,0,0.5,0,0.8,0v0.2h-0.1
			c-0.3,0-0.5,0-0.5,0.8v2.8c0,0.2,0,0.4,0,0.6h-0.2l-3.1-3.5v2.5c0,0.5,0.1,0.7,0.6,0.7h0.1v0.2c-0.3,0-0.5,0-0.8,0
			c-0.3,0-0.6,0-0.8,0v-0.2h0.1c0.4,0,0.5-0.3,0.5-0.8v-2.6c0-0.3-0.3-0.5-0.6-0.5h-0.1V25c0.2,0,0.5,0,0.7,0c0.2,0,0.4,0,0.5,0
			L53.4,28.1z"/>
		<path class="st1" d="M53.4,28.1L53.4,28.1L53.4,28.1L53.4,28.1z M53.4,28.1L53.4,28.1L53.4,28.1z M53.6,29.3h0.2
			c0-0.2,0-0.4,0-0.6V26c0-0.7,0.3-0.8,0.6-0.8h0.1V25c-0.2,0-0.5,0-0.7,0c-0.3,0-0.6,0-0.8,0l0,0.1h0.1c0.2,0,0.6,0.1,0.6,0.6
			l0,2.3l0,0l0,0L50.7,25c-0.2,0-0.4,0-0.5,0c-0.2,0-0.5,0-0.7,0l0,0.1h0.1c0.3,0,0.6,0.2,0.6,0.6v2.6c0,0.5-0.1,0.8-0.6,0.8l-0.1,0
			v0.1c0.3,0,0.5,0,0.8,0c0.3,0,0.5,0,0.8,0v-0.1H51c-0.5,0-0.6-0.2-0.6-0.7v-2.6L53.6,29.3z M53.8,29.4l-0.3,0l-3.1-3.4v2.4
			c0,0.5,0.1,0.7,0.5,0.7h0.1v0v0.2h0c-0.3,0-0.5,0-0.8,0c-0.3,0-0.6,0-0.8,0h0v0v-0.2h0h0.1c0.4,0,0.5-0.3,0.5-0.7v-2.6
			c0-0.3-0.3-0.5-0.5-0.5h-0.1v0V25h0c0.2,0,0.5,0,0.7,0c0.2,0,0.4,0,0.6,0l2.7,3v-2.2c0-0.5-0.3-0.5-0.5-0.5h-0.2v0V25h0
			c0.3,0,0.6,0,0.9,0c0.2,0,0.5,0,0.8,0h0v0v0.2h0h-0.1c-0.3,0-0.5,0-0.5,0.7v2.8C53.8,29,53.8,29.2,53.8,29.4L53.8,29.4L53.8,29.4z
			"/>
		<path class="st1" d="M55.3,25.3c-0.5,0-0.5,0.1-0.6,0.6h-0.2c0-0.2,0.1-0.3,0.1-0.5c0-0.2,0-0.3,0-0.5h0.1c0,0.2,0.2,0.2,0.4,0.2
			h3.1c0.2,0,0.3,0,0.3-0.2l0.1,0c0,0.2,0,0.3-0.1,0.5c0,0.2,0,0.3,0,0.5l-0.2,0.1c0-0.2,0-0.6-0.5-0.6h-1v3.2
			c0,0.5,0.2,0.5,0.5,0.5h0.1v0.2c-0.2,0-0.7,0-1,0c-0.4,0-0.8,0-1,0v-0.2h0.1c0.3,0,0.5,0,0.5-0.5v-3.3H55.3z"/>
		<path class="st1" d="M57.7,29.3c-0.2,0-0.7,0-1,0c-0.4,0-0.8,0-1,0h0v0v-0.2h0h0.1c0.3,0,0.5,0,0.5-0.5v-3.2h-1v0v0h1v3.3
			c0,0.5-0.2,0.5-0.5,0.5h-0.1v0.1c0.2,0,0.7,0,1,0C57,29.2,57.4,29.2,57.7,29.3l0-0.2h-0.1c-0.3,0-0.5-0.1-0.5-0.6v-3.3h1
			c0.4,0,0.5,0.3,0.5,0.6l0.1,0c0-0.2,0-0.3,0-0.5c0-0.2,0-0.3,0.1-0.5l-0.1,0c0,0.2-0.2,0.2-0.4,0.2h-3.1h0c-0.1,0-0.3,0-0.4-0.2
			h-0.1c0,0.2,0,0.3,0,0.5c0,0.2,0,0.3-0.1,0.5h0.1c0.1-0.4,0.1-0.6,0.6-0.6v0v0c-0.5,0-0.4,0.1-0.5,0.5l0,0h0h-0.2l0,0
			c0-0.2,0.1-0.3,0.1-0.5c0-0.2,0-0.3,0-0.5v0h0h0.2l0,0c0,0.2,0.2,0.2,0.3,0.2h0h3.1c0.2,0,0.3,0,0.3-0.2l0,0l0,0l0.2,0l0,0
			c0,0.2,0,0.3-0.1,0.5c0,0.2,0,0.3,0,0.5v0l0,0l-0.2,0.1l0,0c0-0.2,0-0.6-0.4-0.6h-1v3.2c0,0.5,0.2,0.5,0.5,0.5h0.1v0L57.7,29.3
			L57.7,29.3z"/>
		<path class="st1" d="M59,29.1L59,29.1c0.3,0,0.5,0,0.5-0.3v-3.2c0-0.3-0.2-0.3-0.5-0.3H59V25c0.4,0,1,0,1.5,0c0.5,0,1.1,0,1.6,0
			c0,0.3,0,0.7,0,0.9l-0.2,0c0-0.4-0.1-0.7-0.7-0.7h-0.8v1.6H61c0.4,0,0.4-0.2,0.5-0.5h0.2c0,0.2,0,0.5,0,0.7c0,0.2,0,0.5,0,0.7
			l-0.2,0c0-0.4-0.1-0.6-0.5-0.6h-0.7v1.4c0,0.4,0.4,0.4,0.7,0.4c0.7,0,1.1,0,1.2-0.7l0.2,0c-0.1,0.3-0.2,0.6-0.2,1
			c-0.4,0-1.1,0-1.6,0c-0.6,0-1.3,0-1.6,0V29.1z"/>
		<path class="st1" d="M62.2,29.2c0.1-0.3,0.1-0.6,0.2-0.9l-0.1,0C62.1,29,61.8,29,61,29c-0.4,0-0.8,0-0.8-0.4v-1.4H61
			c0.4,0,0.5,0.3,0.5,0.6l0.1,0c0-0.2,0-0.5,0-0.7c0-0.2,0-0.5,0-0.7h-0.1c0,0.3-0.1,0.5-0.5,0.5h-0.8v-1.7h0.9
			c0.6,0,0.7,0.3,0.8,0.7l0.1,0c0-0.2,0-0.4,0-0.6c0-0.1,0-0.2,0-0.3c-0.4,0-1,0-1.5,0c-0.5,0-1.1,0-1.5,0v0.1h0.1
			c0.2,0,0.5,0,0.5,0.4v3.2c0,0.3-0.3,0.4-0.5,0.4H59v0.1c0.4,0,1.1,0,1.6,0C61.1,29.2,61.8,29.2,62.2,29.2 M62.2,29.3
			c-0.4,0-1.1,0-1.6,0c-0.5,0-1.3,0-1.6,0h0v0v-0.2v0h0h0.1c0.2,0,0.4,0,0.4-0.3v-3.2c0-0.3-0.2-0.3-0.4-0.3H59v0V25h0
			c0.4,0,1,0,1.5,0c0.5,0,1.1,0,1.6,0h0l0,0c0,0.1,0,0.2,0,0.3c0,0.2,0,0.4,0,0.6l0,0l0,0L61.9,26l0,0c0-0.4-0.1-0.7-0.7-0.7h-0.8
			l0,1.5H61c0.4,0,0.4-0.2,0.5-0.5l0,0h0h0.2l0,0c0,0.2,0,0.5,0,0.7c0,0.2,0,0.5,0,0.7l0,0l0,0l-0.2,0l0,0c0-0.4,0-0.6-0.4-0.6h-0.7
			v1.4c0,0.4,0.3,0.4,0.7,0.4c0.7,0,1,0,1.2-0.7l0,0l0,0l0.2,0.1l0,0C62.4,28.6,62.3,29,62.2,29.3L62.2,29.3L62.2,29.3z"/>
		<path class="st1" d="M64.1,27.1h0.3c0.6,0,0.9-0.2,0.9-1c0-0.5-0.3-0.9-0.9-0.9c-0.2,0-0.3,0-0.3,0V27.1z M63.3,25.7
			c0-0.4-0.2-0.5-0.4-0.5h-0.1V25c0.2,0,0.6,0,0.9,0c0.4,0,0.7,0,1,0c0.8,0,1.5,0.2,1.5,1.1c0,0.5-0.4,0.9-0.8,1.1l1,1.6
			c0.2,0.3,0.3,0.3,0.6,0.4v0.2c-0.2,0-0.4,0-0.6,0c-0.2,0-0.4,0-0.6,0c-0.5-0.6-0.9-1.3-1.3-2h-0.4v1.3c0,0.5,0.2,0.5,0.5,0.5h0.1
			v0.2c-0.3,0-0.7,0-1,0c-0.3,0-0.6,0-0.9,0v-0.2h0.1c0.2,0,0.4-0.1,0.4-0.3V25.7z"/>
		<path class="st1" d="M64.4,27.1c0.6,0,0.9-0.2,0.9-0.9c0-0.5-0.3-0.9-0.9-0.9c-0.2,0-0.2,0-0.3,0v1.8H64.4z M64.1,27.1L64.1,27.1
			l0-1.9l0,0c0.1,0,0.2,0,0.4,0c0.6,0,0.9,0.4,0.9,0.9c0,0.7-0.4,1-1,1H64.1z M64.1,27.3h0.4l0,0c0.4,0.7,0.8,1.4,1.2,2
			c0.2,0,0.4,0,0.6,0c0.2,0,0.4,0,0.6,0v-0.1c-0.3,0-0.4-0.1-0.6-0.4l-1.1-1.6l0,0c0.5-0.2,0.8-0.5,0.8-1.1c0-0.8-0.7-1-1.4-1
			c-0.3,0-0.6,0-1,0c-0.4,0-0.7,0-0.9,0v0.1h0.1c0.2,0,0.5,0,0.5,0.5v3.1c0,0.2-0.2,0.4-0.5,0.4h-0.1v0.1c0.3,0,0.6,0,0.9,0
			c0.3,0,0.7,0,1,0v-0.1h-0.1c-0.3,0-0.5,0-0.5-0.5L64.1,27.3L64.1,27.3z M66.9,29.3c-0.2,0-0.4,0-0.6,0c-0.2,0-0.4,0-0.6,0
			c-0.5-0.6-0.9-1.3-1.3-2h-0.4v1.3c0,0.5,0.2,0.5,0.5,0.5h0.1v0v0.2h0c-0.3,0-0.7,0-1,0c-0.3,0-0.6,0-0.9,0h0v0v-0.2h0h0.1
			c0.2,0,0.4-0.1,0.4-0.3v-3.1c0-0.4-0.2-0.4-0.4-0.4h-0.1v0V25h0c0.2,0,0.6,0,0.9,0c0.4,0,0.7,0,1,0c0.8,0,1.5,0.2,1.5,1.1
			c0,0.6-0.4,0.9-0.8,1.1l1,1.5c0.2,0.3,0.3,0.3,0.6,0.4l0,0v0L66.9,29.3L66.9,29.3z"/>
		<path class="st1" d="M71,28.1L71,28.1l0-2.3c0-0.5-0.3-0.6-0.5-0.6h-0.1V25c0.3,0,0.6,0,0.9,0c0.3,0,0.5,0,0.8,0v0.2h-0.1
			c-0.3,0-0.5,0-0.5,0.8v2.8c0,0.2,0,0.4,0,0.6h-0.2L68,25.9v2.5c0,0.5,0.1,0.7,0.6,0.7h0.1v0.2c-0.3,0-0.5,0-0.8,0
			c-0.3,0-0.6,0-0.8,0v-0.2h0.1c0.4,0,0.5-0.3,0.5-0.8v-2.6c0-0.3-0.3-0.5-0.6-0.5h-0.1V25c0.2,0,0.5,0,0.7,0c0.2,0,0.4,0,0.5,0
			L71,28.1z"/>
		<path class="st1" d="M71,28.1L71,28.1L71,28.1L71,28.1z M71,28.1L71,28.1L71,28.1z M71.2,29.3h0.2c0-0.2,0-0.4,0-0.6V26
			c0-0.7,0.3-0.8,0.6-0.8H72V25c-0.2,0-0.5,0-0.7,0c-0.3,0-0.6,0-0.8,0v0.1h0.1c0.2,0,0.6,0.1,0.6,0.6l0,2.3l0,0l0,0L68.3,25
			c-0.2,0-0.4,0-0.5,0c-0.2,0-0.5,0-0.7,0v0.1h0.1c0.3,0,0.6,0.2,0.6,0.6v2.6c0,0.5-0.1,0.8-0.6,0.8l-0.1,0v0.1c0.3,0,0.5,0,0.8,0
			c0.3,0,0.5,0,0.8,0v-0.1h-0.1c-0.5,0-0.6-0.2-0.6-0.7v-2.6L71.2,29.3z M71.4,29.4l-0.3,0L68,25.9v2.4c0,0.5,0.1,0.7,0.5,0.7h0.1v0
			v0.2h0c-0.3,0-0.5,0-0.8,0c-0.3,0-0.6,0-0.8,0h0v0v-0.2h0h0.1c0.4,0,0.5-0.3,0.5-0.7v-2.6c0-0.3-0.3-0.5-0.5-0.5h-0.1v0V25h0
			c0.2,0,0.5,0,0.7,0c0.2,0,0.4,0,0.6,0l2.7,3v-2.2c0-0.5-0.3-0.5-0.5-0.5h-0.2v0V25h0c0.3,0,0.6,0,0.9,0c0.2,0,0.5,0,0.7,0h0v0v0.2
			h0h-0.1c-0.3,0-0.5,0-0.5,0.7v2.8C71.4,29,71.4,29.2,71.4,29.4L71.4,29.4L71.4,29.4z"/>
		<path class="st1" d="M73.9,25.7L73.9,25.7l-0.6,1.7h1.1L73.9,25.7z M73,28.4c-0.1,0.2-0.1,0.4-0.1,0.5c0,0.2,0.3,0.2,0.5,0.2h0.1
			v0.2c-0.2,0-0.5,0-0.7,0c-0.2,0-0.4,0-0.7,0v-0.2h0c0.2,0,0.4-0.1,0.5-0.4l1-2.8c0.1-0.2,0.2-0.5,0.2-0.8c0.2-0.1,0.4-0.2,0.6-0.3
			c0,0,0,0,0,0c0,0,0,0,0,0c0,0,0,0.1,0.1,0.2l1.1,3.2c0.1,0.2,0.1,0.4,0.2,0.6c0.1,0.2,0.2,0.2,0.4,0.2h0v0.2c-0.3,0-0.5,0-0.8,0
			c-0.3,0-0.6,0-0.9,0v-0.2h0.1c0.1,0,0.4,0,0.4-0.2c0-0.1-0.1-0.2-0.1-0.4l-0.2-0.7h-1.4L73,28.4z"/>
		<path class="st1" d="M73.8,25.7L73.8,25.7L73.8,25.7z M73.3,27.4h1.1l-0.5-1.6L73.3,27.4z M73.2,27.5l0.6-1.8h0h0v0l0,0l0,0v0h0
			l0.6,1.8H73.2z M74.5,29.2c0.3,0,0.6,0,0.9,0c0.3,0,0.5,0,0.8,0v-0.1h0c-0.2,0-0.4-0.1-0.4-0.3c-0.1-0.2-0.2-0.4-0.2-0.6L74.4,25
			c0,0,0-0.1-0.1-0.1c0,0,0,0,0,0h0c0,0,0,0,0,0c-0.1,0.1-0.4,0.2-0.5,0.2c0,0.2-0.1,0.5-0.2,0.8l-1,2.8c-0.1,0.3-0.3,0.4-0.6,0.4h0
			v0.1c0.2,0,0.4,0,0.6,0c0.2,0,0.5,0,0.7,0v-0.1h0c-0.2,0-0.5,0-0.5-0.2c0-0.1,0.1-0.3,0.1-0.5l0,0l0,0l0.2-0.7h1.4l0.2,0.7
			c0.1,0.2,0.1,0.4,0.1,0.4c0,0.2-0.3,0.2-0.4,0.2h0V29.2z M76.2,29.3c-0.3,0-0.5,0-0.8,0c-0.3,0-0.6,0-0.9,0l0,0v0v-0.2h0h0.1
			c0.1,0,0.4,0,0.4-0.1c0-0.1-0.1-0.2-0.1-0.4l-0.2-0.7h-1.3L73,28.4c-0.1,0.2-0.1,0.4-0.1,0.5c0,0.1,0.2,0.2,0.4,0.2h0.1v0v0.2l0,0
			c-0.2,0-0.5,0-0.7,0c-0.2,0-0.4,0-0.7,0l0,0v0v-0.2h0h0c0.2,0,0.4-0.1,0.5-0.4l1-2.8c0.1-0.2,0.2-0.5,0.2-0.8
			c0.2-0.1,0.4-0.2,0.6-0.3c0,0,0,0,0.1,0c0,0,0,0,0.1,0c0,0.1,0,0.1,0.1,0.2l1.1,3.2c0.1,0.2,0.1,0.4,0.2,0.6
			c0.1,0.2,0.2,0.2,0.4,0.2h0.1v0L76.2,29.3L76.2,29.3z"/>
		<path class="st1" d="M76.5,25.3c-0.5,0-0.5,0.1-0.6,0.6h-0.2c0-0.2,0.1-0.3,0.1-0.5c0-0.2,0-0.3,0-0.5H76c0,0.2,0.2,0.2,0.4,0.2
			h3.1c0.2,0,0.3,0,0.3-0.2l0.1,0c0,0.2,0,0.3-0.1,0.5c0,0.2,0,0.3,0,0.5l-0.2,0.1c0-0.2,0-0.6-0.5-0.6h-1v3.2
			c0,0.5,0.2,0.5,0.5,0.5h0.1v0.2c-0.2,0-0.7,0-1,0c-0.4,0-0.8,0-1,0v-0.2H77c0.3,0,0.5,0,0.5-0.5v-3.3H76.5z"/>
		<path class="st1" d="M78.9,29.3c-0.2,0-0.7,0-1,0c-0.4,0-0.8,0-1,0h0v0v-0.2h0H77c0.3,0,0.5,0,0.5-0.5l0-3.2h-1v0v0h1v3.3
			c0,0.5-0.2,0.5-0.5,0.5h-0.1v0.1c0.2,0,0.7,0,1,0C78.2,29.2,78.6,29.2,78.9,29.3l0-0.2h-0.1c-0.3,0-0.5-0.1-0.5-0.6v-3.3h1
			c0.4,0,0.5,0.3,0.5,0.6l0.1,0c0-0.2,0-0.3,0-0.5c0-0.2,0-0.3,0.1-0.5l-0.1,0c0,0.2-0.2,0.2-0.4,0.2h-3.1h0c-0.1,0-0.3,0-0.4-0.2
			h-0.1c0,0.2,0,0.3,0,0.5c0,0.2,0,0.3-0.1,0.5h0.1c0.1-0.4,0.1-0.6,0.6-0.6v0v0c-0.5,0-0.4,0.1-0.5,0.5l0,0h0h-0.2l0,0
			c0-0.2,0.1-0.3,0.1-0.5c0-0.2,0-0.3,0-0.5v0h0H76l0,0c0,0.2,0.2,0.2,0.3,0.2h0h3.1c0.2,0,0.3,0,0.3-0.2l0,0l0,0l0.2,0l0,0
			c0,0.2,0,0.3-0.1,0.5c0,0.2,0,0.3,0,0.5v0l0,0l-0.2,0.1l0,0c0-0.2,0-0.6-0.4-0.6h-1v3.2c0,0.5,0.2,0.5,0.5,0.5h0.1v0L78.9,29.3
			L78.9,29.3z"/>
		<path class="st1" d="M80.2,29.1L80.2,29.1c0.3,0,0.5,0,0.5-0.3v-3.2c0-0.3-0.2-0.3-0.5-0.3h-0.1V25c0.2,0,0.6,0,0.9,0
			c0.3,0,0.7,0,1,0v0.2H82c-0.2,0-0.5,0-0.5,0.3v3.2c0,0.3,0.2,0.3,0.5,0.3h0.1v0.2c-0.3,0-0.7,0-1,0c-0.3,0-0.7,0-0.9,0V29.1z"/>
		<path class="st1" d="M82,29.2v-0.1H82c-0.2,0-0.5,0-0.5-0.4v-3.2c0-0.3,0.3-0.4,0.5-0.4H82V25c-0.3,0-0.6,0-0.9,0
			c-0.3,0-0.6,0-0.9,0v0.1h0.1c0.2,0,0.5,0,0.5,0.4v3.2c0,0.3-0.3,0.4-0.5,0.4h-0.1v0.1c0.2,0,0.6,0,0.9,0
			C81.4,29.2,81.8,29.2,82,29.2 M82.1,29.3c-0.3,0-0.7,0-1,0c-0.3,0-0.7,0-0.9,0h0v0v-0.2v0h0h0.1c0.2,0,0.4,0,0.4-0.3v-3.2
			c0-0.3-0.2-0.3-0.4-0.3h-0.1v0V25h0c0.2,0,0.6,0,0.9,0c0.3,0,0.7,0,1,0h0v0v0.2h0H82c-0.2,0-0.4,0-0.4,0.3v3.2
			c0,0.3,0.2,0.3,0.4,0.3h0.1v0L82.1,29.3L82.1,29.3z"/>
		<path class="st1" d="M84.6,29.1c1.2,0,1.4-1,1.4-1.9c0-0.9-0.5-2-1.5-2c-1.1,0-1.4,1-1.4,1.8C83.1,28.1,83.6,29.1,84.6,29.1
			 M84.5,24.9c1.3,0,2.3,0.8,2.3,2.1c0,1.4-1,2.3-2.3,2.3c-1.3,0-2.3-0.9-2.3-2.2C82.3,25.9,83.2,24.9,84.5,24.9"/>
		<path class="st1" d="M83.1,27c0-0.8,0.3-1.8,1.4-1.8c1,0,1.5,1.1,1.5,2c0,0.9-0.2,2-1.4,2v0v0c1.2,0,1.4-1,1.4-1.9
			c0-0.9-0.5-1.9-1.5-1.9C83.4,25.2,83.1,26.2,83.1,27c0.1,1.1,0.5,2.1,1.5,2.1v0v0C83.6,29.1,83.1,28.1,83.1,27 M82.2,27.2
			c0-1.3,1-2.3,2.3-2.3v0v0C83.2,25,82.3,25.9,82.2,27.2c0.1,1.3,1,2.2,2.3,2.2c1.3,0,2.3-0.9,2.3-2.3c0-1.3-1-2.1-2.3-2.1v0v0
			c1.3,0,2.4,0.8,2.4,2.1c0,1.4-1,2.4-2.3,2.4C83.2,29.4,82.2,28.5,82.2,27.2"/>
		<path class="st1" d="M90.9,28.1L90.9,28.1l0-2.3c0-0.5-0.3-0.6-0.5-0.6h-0.1V25c0.3,0,0.6,0,0.9,0c0.3,0,0.5,0,0.8,0v0.2h-0.1
			c-0.3,0-0.5,0-0.5,0.8v2.8c0,0.2,0,0.4,0,0.6h-0.2l-3.1-3.5v2.5c0,0.5,0.1,0.7,0.6,0.7h0.1v0.2c-0.3,0-0.5,0-0.8,0
			c-0.3,0-0.6,0-0.8,0v-0.2h0.1c0.4,0,0.5-0.3,0.5-0.8v-2.6c0-0.3-0.3-0.5-0.6-0.5H87V25c0.2,0,0.5,0,0.7,0c0.2,0,0.4,0,0.5,0
			L90.9,28.1z"/>
		<path class="st1" d="M90.9,28.1L90.9,28.1L90.9,28.1L90.9,28.1z M90.9,28.1L90.9,28.1L90.9,28.1z M91.1,29.3h0.2
			c0-0.2,0-0.4,0-0.6V26c0-0.7,0.3-0.8,0.6-0.8h0.1V25c-0.2,0-0.5,0-0.7,0c-0.3,0-0.6,0-0.8,0v0.1h0.1c0.2,0,0.6,0.1,0.6,0.6l0,2.3
			l0,0l0,0L88.2,25c-0.2,0-0.4,0-0.5,0c-0.2,0-0.5,0-0.7,0v0.1h0.1c0.3,0,0.6,0.2,0.6,0.6v2.6c0,0.5-0.1,0.8-0.6,0.8l-0.1,0v0.1
			c0.3,0,0.5,0,0.8,0c0.3,0,0.5,0,0.8,0v-0.1h-0.1c-0.5,0-0.6-0.2-0.6-0.7v-2.6L91.1,29.3z M91.3,29.4l-0.3,0L88,25.9v2.4
			c0,0.5,0.1,0.7,0.5,0.7h0.1v0v0.2h0c-0.3,0-0.5,0-0.8,0c-0.3,0-0.6,0-0.8,0h0v0v-0.2h0h0.1c0.4,0,0.5-0.3,0.5-0.7v-2.6
			c0-0.3-0.3-0.5-0.5-0.5H87v0V25h0c0.2,0,0.5,0,0.7,0c0.2,0,0.4,0,0.6,0l2.7,3v-2.2c0-0.5-0.3-0.5-0.5-0.5h-0.2v0V25h0
			c0.3,0,0.6,0,0.9,0c0.2,0,0.5,0,0.8,0h0v0v0.2h0h-0.1c-0.3,0-0.5,0-0.5,0.7v2.8C91.3,29,91.3,29.2,91.3,29.4L91.3,29.4L91.3,29.4z
			"/>
		<path class="st1" d="M93.8,25.7L93.8,25.7l-0.6,1.7h1.1L93.8,25.7z M92.9,28.4c-0.1,0.2-0.1,0.4-0.1,0.5c0,0.2,0.3,0.2,0.5,0.2
			h0.1v0.2c-0.2,0-0.5,0-0.7,0c-0.2,0-0.4,0-0.7,0v-0.2h0c0.2,0,0.4-0.1,0.5-0.4l1-2.8c0.1-0.2,0.2-0.5,0.2-0.8
			c0.2-0.1,0.4-0.2,0.6-0.3c0,0,0,0,0,0c0,0,0,0,0,0c0,0,0,0.1,0.1,0.2l1.1,3.2c0.1,0.2,0.1,0.4,0.2,0.6c0.1,0.2,0.2,0.2,0.4,0.2h0
			v0.2c-0.3,0-0.5,0-0.8,0c-0.3,0-0.6,0-0.9,0v-0.2h0.1c0.1,0,0.4,0,0.4-0.2c0-0.1-0.1-0.2-0.1-0.4l-0.2-0.7h-1.4L92.9,28.4z"/>
		<path class="st1" d="M93.7,25.7L93.7,25.7L93.7,25.7z M93.2,27.4h1.1l-0.5-1.6L93.2,27.4z M93.2,27.5l0.6-1.8h0h0v0l0,0l0,0v0h0
			l0.6,1.8H93.2z M94.4,29.2c0.3,0,0.6,0,0.9,0c0.3,0,0.5,0,0.8,0l0-0.1h0c-0.2,0-0.4-0.1-0.4-0.3c-0.1-0.2-0.2-0.4-0.2-0.6L94.3,25
			c0,0,0-0.1-0.1-0.1c0,0,0,0,0,0h0c0,0,0,0,0,0c-0.1,0.1-0.4,0.2-0.5,0.2c0,0.2-0.1,0.5-0.2,0.8l-1,2.8c-0.1,0.3-0.3,0.4-0.6,0.4h0
			v0.1c0.2,0,0.4,0,0.6,0c0.2,0,0.5,0,0.7,0v-0.1h0c-0.2,0-0.5,0-0.5-0.2c0-0.1,0.1-0.3,0.1-0.5l0,0l0,0l0.2-0.7h1.4l0.2,0.7
			c0.1,0.2,0.1,0.4,0.1,0.4c0,0.2-0.3,0.2-0.4,0.2h0V29.2z M96.1,29.3c-0.3,0-0.5,0-0.8,0c-0.3,0-0.6,0-0.9,0l0,0v0v-0.2h0h0.1
			c0.1,0,0.4,0,0.4-0.2c0-0.1-0.1-0.2-0.1-0.4l-0.2-0.7h-1.3l-0.2,0.6c-0.1,0.2-0.1,0.4-0.1,0.5c0,0.1,0.2,0.2,0.4,0.2h0.1v0v0.2
			l0,0c-0.2,0-0.5,0-0.7,0c-0.2,0-0.4,0-0.7,0l0,0v0v-0.2h0h0c0.2,0,0.4-0.1,0.5-0.4l1-2.8c0.1-0.2,0.2-0.5,0.2-0.8
			c0.2-0.1,0.4-0.2,0.6-0.3c0,0,0,0,0.1,0c0,0,0,0,0.1,0c0,0,0,0.1,0.1,0.2l1.1,3.2c0.1,0.2,0.1,0.4,0.2,0.6
			c0.1,0.2,0.2,0.2,0.4,0.2h0.1v0L96.1,29.3L96.1,29.3z"/>
		<path class="st1" d="M97.7,28.7c0,0.2,0.2,0.3,0.4,0.3c0.2,0,0.5,0,0.8,0c0.3,0,0.5-0.2,0.6-0.3c0.1-0.1,0.2-0.3,0.2-0.4h0.2
			c-0.1,0.3-0.2,0.7-0.2,1c-0.5,0-1.1,0-1.6,0c-0.5,0-1.1,0-1.6,0v-0.2h0.1c0.2,0,0.5,0,0.5-0.4v-3.1c0-0.3-0.2-0.3-0.5-0.3h-0.1V25
			c0.3,0,0.6,0,1,0c0.3,0,0.6,0,0.9,0v0.2h-0.2c-0.2,0-0.4,0-0.4,0.3V28.7z"/>
		<path class="st1" d="M99.5,29.2c0.1-0.3,0.2-0.7,0.2-1h-0.1c0,0.1-0.1,0.3-0.2,0.4c-0.1,0.2-0.3,0.3-0.6,0.3c-0.2,0-0.3,0-0.5,0
			c-0.1,0-0.2,0-0.3,0c-0.2,0-0.4-0.1-0.4-0.4v-3.1c0-0.3,0.2-0.4,0.4-0.4h0.1V25c-0.3,0-0.6,0-0.9,0c-0.3,0-0.6,0-0.9,0v0.1h0.1
			c0.2,0,0.5,0,0.5,0.4v3.1c0,0.4-0.3,0.4-0.5,0.4h-0.1v0.1c0.5,0,1.1,0,1.6,0C98.5,29.2,99,29.2,99.5,29.2 M99.6,29.3
			c-0.5,0-1.1,0-1.6,0c-0.5,0-1.1,0-1.6,0h0v0v-0.2h0h0.1c0.2,0,0.4,0,0.4-0.4v-3.1c0-0.3-0.2-0.3-0.4-0.3h-0.1v0V25h0
			c0.3,0,0.6,0,1,0c0.3,0,0.6,0,0.9,0h0v0v0.2h0h-0.2c-0.2,0-0.4,0-0.4,0.3v3.1c0,0.2,0.2,0.3,0.3,0.3c0.1,0,0.2,0,0.3,0
			c0.1,0,0.3,0,0.5,0c0.2,0,0.5-0.2,0.6-0.3c0.1-0.1,0.1-0.3,0.2-0.4l0,0h0h0.2l0,0C99.7,28.6,99.7,28.9,99.6,29.3L99.6,29.3
			L99.6,29.3z"/>
		<path class="st1" d="M99.6,25.5L99.6,25.5c0.2,0,0.2-0.1,0.2-0.2c0-0.1-0.1-0.1-0.1-0.1h-0.1V25.5z M99.4,25.8L99.4,25.8
			C99.5,25.8,99.5,25.8,99.4,25.8l0.1-0.6c0-0.1,0-0.1-0.1-0.1v0h0.3c0.1,0,0.2,0.1,0.2,0.2c0,0.1-0.1,0.2-0.2,0.2l0.1,0.1
			c0,0.1,0.1,0.1,0.1,0.2v0h-0.1c-0.1,0-0.1-0.1-0.2-0.3h-0.1v0.2c0,0,0,0,0.1,0.1v0H99.4z M99.7,26c0.3,0,0.5-0.2,0.5-0.5
			c0-0.3-0.2-0.5-0.5-0.5c-0.3,0-0.5,0.2-0.5,0.5C99.2,25.8,99.4,26,99.7,26 M99.7,24.8c0.4,0,0.6,0.3,0.6,0.6
			c0,0.4-0.3,0.6-0.6,0.6c-0.4,0-0.6-0.3-0.6-0.6C99.1,25.1,99.3,24.8,99.7,24.8"/>
	</g>
	<g>
		<circle class="st2" cx="72" cy="3.5" r="10.3"/>
		<path class="st3" d="M72,14C66,14,61.2,9.2,61.2,3.4C61.2-3,66-7.4,72-7.4h2.8c5.8,0,11.2,4.4,11.2,10.8c0,5.8-5.3,10.6-11.2,10.6
			H72z M72-6.5c-5.4,0-9.8,4.4-9.8,9.8c0,5.4,4.4,9.8,9.8,9.8c5.4,0,9.8-4.4,9.8-9.8C81.8-2.1,77.4-6.5,72-6.5z M69.8,9.1V-2.5
			c-2.3,0.9-4,3.1-4,5.8C65.8,5.9,67.4,8.2,69.8,9.1z M78.2,3.3c0-2.6-1.7-4.9-4-5.8V9.1C76.5,8.2,78.2,5.9,78.2,3.3z"/>
	</g>
</g>
</svg>
