<?xml version="1.0" encoding="utf-8"?>
<!-- Generator: Adobe Illustrator 22.0.0, SVG Export Plug-In . SVG Version: 6.00 Build 0)  -->
<svg version="1.1" id="Card" xmlns="http://www.w3.org/2000/svg" xmlns:xlink="http://www.w3.org/1999/xlink" x="0px" y="0px"
	 viewBox="0 0 86 54" style="enable-background:new 0 0 86 54;" xml:space="preserve">
<style type="text/css">
	.st0{fill:url(#SVGID_1_);}
	.st1{fill:#FCCF00;}
	.st2{fill:#D70029;}
</style>
<linearGradient id="SVGID_1_" gradientUnits="userSpaceOnUse" x1="43" y1="1672" x2="43" y2="1726" gradientTransform="matrix(1 0 0 1 0 -1672)">
	<stop  offset="0" style="stop-color:#F9F9F9"/>
	<stop  offset="1" style="stop-color:#E1E1E1"/>
</linearGradient>
<path class="st0" d="M3,0h80c1.7,0,3,1.3,3,3v48c0,1.7-1.3,3-3,3H3c-1.7,0-3-1.3-3-3V3C0,1.3,1.3,0,3,0z"/>
<g>
	<polygon class="st1" points="78,12.8 78,41.6 8,41.6 8,12.8 	"/>
	<path class="st2" d="M20.3,22.3l-2.2,3.1c0,0,11.6,0,12.2,0c0.6,0,0.6,0.2,0.3,0.6c-0.3,0.4-0.8,1.1-1.1,1.5
		c-0.2,0.2-0.4,0.6,0.5,0.6c1,0,5,0,5,0s0.8-1.1,1.5-2c0.9-1.2,0.1-3.9-3.2-3.9C30.3,22.3,20.3,22.3,20.3,22.3L20.3,22.3z"/>
	<path class="st2" d="M17.2,32.1l4.5-6.1c0,0,5,0,5.6,0c0.6,0,0.6,0.2,0.3,0.6c-0.3,0.4-0.8,1.1-1.1,1.5c-0.2,0.2-0.4,0.6,0.5,0.6
		c1,0,7.4,0,7.4,0c-0.6,0.8-2.6,3.4-6.2,3.4C25.2,32.1,17.2,32.1,17.2,32.1L17.2,32.1z"/>
	<polygon class="st2" points="42.9,28.9 40.5,32.1 34,32.1 36.5,28.9 	"/>
	<polygon class="st2" points="52.8,28.1 37,28.1 41.4,22.3 47.8,22.3 45.3,25.6 48.2,25.6 50.6,22.3 57,22.3 	"/>
	<polygon class="st2" points="52.2,28.9 49.7,32.1 43.3,32.1 45.7,28.9 	"/>
	<polygon class="st2" points="8,30.2 17.5,30.2 17,30.8 8,30.8 	"/>
	<polygon class="st2" points="8,28.9 18.5,28.9 18,29.6 8,29.6 	"/>
	<polygon class="st2" points="8,31.4 16.5,31.4 16,32.1 8,32.1 	"/>
	<polygon class="st2" points="78,30.8 68.5,30.8 69,30.2 78,30.2 	"/>
	<polygon class="st2" points="78,32.1 67.6,32.1 68.1,31.4 78,31.4 	"/>
	<polygon class="st2" points="70.1,28.9 78,28.9 78,29.6 69.6,29.6 	"/>
	<polygon class="st2" points="65.9,22.3 61.6,28.1 54.8,28.1 59.2,22.3 	"/>
	<path class="st2" d="M54.3,28.9c0,0-0.5,0.6-0.7,0.9c-0.8,1.1-0.1,2.3,2.5,2.3c3.1,0,10.3,0,10.3,0l2.4-3.4H54.3V28.9z"/>
</g>
</svg>
