<?xml version="1.0" encoding="utf-8"?>
<!-- Generator: Adobe Illustrator 22.0.0, SVG Export Plug-In . SVG Version: 6.00 Build 0)  -->
<svg version="1.1" id="Card" xmlns="http://www.w3.org/2000/svg" xmlns:xlink="http://www.w3.org/1999/xlink" x="0px" y="0px"
	 viewBox="0 0 86 54" style="enable-background:new 0 0 86 54;" xml:space="preserve">
<style type="text/css">
	.st0{fill:url(#SVGID_1_);}
	.st1{fill:#1B0F5B;}
</style>
<linearGradient id="SVGID_1_" gradientUnits="userSpaceOnUse" x1="43" y1="1672" x2="43" y2="1726" gradientTransform="matrix(1 0 0 1 0 -1672)">
	<stop  offset="0" style="stop-color:#F9F9F9"/>
	<stop  offset="1" style="stop-color:#E1E1E1"/>
</linearGradient>
<path class="st0" d="M3,0h80c1.7,0,3,1.3,3,3v48c0,1.7-1.3,3-3,3H3c-1.7,0-3-1.3-3-3V3C0,1.3,1.3,0,3,0z"/>
<g>
	<path class="st1" d="M21.1,8.8c17.4,0,34.9,0,52.3,0c-0.3,1.1-0.4,2.2-0.7,3.3c-0.7,3.3-1.4,6.7-2,9.9c-0.7,3.1-1.2,6.3-1.9,9.5
		c-0.8,4.2-1.8,8.6-2.6,12.8c-0.1,0.5-0.3,0.8-1,0.8c-15.9,0-31.9,0-47.8,0c-0.3,0-0.4,0-0.7,0V45c1-0.4,1.9-0.7,2.9-1.1
		c4-1.5,8-3.1,12-4.6c4.2-1.6,8.6-3.3,12.8-4.9s8.4-3.3,12.7-4.9c1.8-0.7,3.7-1.5,5.4-2.2c1.9-0.7,3.1-2,3.5-4.2
		c0.3-1.1,0.4-2.2-0.3-3.3c-0.7-1-1.6-1.4-2.7-1.5c-1.2-0.1-2.5,0-3.5,0c-0.3,0-0.7-0.1-1-0.3c-1.9-1.8-4.2-2.6-6.7-3
		c-2.6-0.5-5.2-1.1-7.8-1.6c-4.2-0.8-8.3-1.6-12.5-2.5c-2.7-0.5-5.3-1.1-8-1.6C22.8,9.2,21.9,9.1,21.1,8.8L21.1,8.8z"/>
	<path class="st1" d="M58.3,19.7c1.4,0,2.7,0,4.1,0c2.2,0,2.6,0.7,2.3,2.7c-0.1,1-0.4,2-1.1,2.7c-0.1,0.1-0.3,0.3-0.5,0.4
		c0,0-0.1,0-0.1-0.1c0.1-0.4,0.1-1,0.3-1.4c0.1-0.5,0.1-1,0.3-1.5c0.1-0.5-0.1-0.7-0.7-0.8c-0.3,0-0.7,0-1,0c-2.9,0-5.6,0-8.4,0
		c-0.3,0-0.5,0-0.7,0c0-0.1,0-0.1,0-0.3c0.1-0.1,0.3-0.1,0.5-0.3c1.2-0.3,2.5-0.5,3.5-1c0.4-0.1,0.7-0.4,1.1-0.7c0,0,0-0.1-0.1-0.1
		c-7.6,0-15.3,0-22.9,0c1.2,3.5,2.5,7.1,3.7,10.5c2.3-1,4.6-1.9,6.9-2.7c4.1-1.5,8.2-3,12.5-3.5c1.4-0.1,2.6-0.4,4,0.3
		c0.1,0.1,0.4,0.3,0.5,0.4v0.1c-0.3,0-0.5,0.1-0.8,0c-2.6-0.1-4.9,0.5-7.2,1.5c-4.9,1.9-9.9,4-14.7,6c-7.2,3.1-14.3,6.5-21.5,9.8
		c-1.8,0.8-3.5,1.8-5.2,2.7c-0.1,0-0.3,0.1-0.4,0.3c1.8-9.4,3.5-18.7,5.3-28.1c0.8,0,1.6,0,2.5,0c9.7,0,19.5-0.1,29.1-0.1
		c2.2,0,4.4,0.1,6.4,0.8C56.9,18.2,57.8,18.8,58.3,19.7z"/>
</g>
</svg>
