<?xml version="1.0" encoding="utf-8"?>
<!-- Generator: Adobe Illustrator 22.0.0, SVG Export Plug-In . SVG Version: 6.00 Build 0)  -->
<svg version="1.1" id="Card" xmlns="http://www.w3.org/2000/svg" xmlns:xlink="http://www.w3.org/1999/xlink" x="0px" y="0px"
	 viewBox="0 0 86 54" style="enable-background:new 0 0 86 54;" xml:space="preserve">
<style type="text/css">
	.st0{fill:url(#SVGID_1_);}
	.st1{fill:#009CDE;}
	.st2{fill:#003087;}
</style>
<linearGradient id="SVGID_1_" gradientUnits="userSpaceOnUse" x1="43" y1="56" x2="43" y2="2" gradientTransform="matrix(1 0 0 -1 0 56)">
	<stop  offset="0" style="stop-color:#F9F9F9"/>
	<stop  offset="1" style="stop-color:#E1E1E1"/>
</linearGradient>
<path class="st0" d="M3,0h80c1.7,0,3,1.3,3,3v48c0,1.7-1.3,3-3,3H3c-1.7,0-3-1.3-3-3V3C0,1.3,1.3,0,3,0z"/>
<g>
	<path class="st1" d="M54.6,18.2h-5.2c-0.3,0-0.6,0.3-0.7,0.6L46.6,32c0,0.3,0.2,0.5,0.4,0.5h2.6c0.3,0,0.5-0.2,0.5-0.4l0.6-3.8
		c0-0.3,0.3-0.6,0.7-0.6h1.6c3.4,0,5.3-1.6,5.9-4.9c0.2-1.4,0-2.5-0.6-3.3C57.6,18.6,56.3,18.2,54.6,18.2L54.6,18.2z M55.2,23
		c-0.3,1.9-1.7,1.9-3.1,1.9h-0.8l0.6-3.4c0-0.2,0.2-0.4,0.4-0.4h0.3c0.9,0,1.8,0,2.3,0.5C55.2,21.9,55.3,22.4,55.2,23z"/>
	<path class="st2" d="M17.8,18.2h-5.2c-0.3,0-0.6,0.3-0.7,0.6L9.9,32c0,0.3,0.2,0.5,0.4,0.5h2.5c0.3,0,0.6-0.3,0.7-0.6l0.6-3.6
		c0-0.3,0.3-0.6,0.7-0.6h1.6c3.4,0,5.3-1.6,5.9-4.9c0.2-1.4,0-2.5-0.6-3.3C20.9,18.6,19.6,18.2,17.8,18.2L17.8,18.2z M18.4,23
		c-0.3,1.9-1.7,1.9-3.1,1.9h-0.8l0.6-3.4c0-0.2,0.2-0.4,0.4-0.4h0.3c0.9,0,1.8,0,2.3,0.5C18.5,21.9,18.5,22.4,18.4,23z M33.2,22.9
		h-2.5c-0.2,0-0.4,0.2-0.4,0.4L30.2,24l-0.2-0.3c-0.5-0.8-1.7-1-2.9-1c-2.7,0-5,2.1-5.5,5c-0.2,1.4,0.1,2.8,0.9,3.8
		c0.8,0.9,1.8,1.3,3.1,1.3c2.2,0,3.4-1.4,3.4-1.4L28.9,32c0,0.3,0.2,0.5,0.4,0.5h2.2c0.3,0,0.6-0.3,0.7-0.6l1.3-8.5
		C33.7,23.2,33.5,22.9,33.2,22.9L33.2,22.9z M29.8,27.8c-0.2,1.4-1.4,2.4-2.8,2.4c-0.7,0-1.3-0.2-1.7-0.7c-0.4-0.4-0.5-1-0.4-1.7
		c0.2-1.4,1.4-2.4,2.8-2.4c0.7,0,1.3,0.2,1.6,0.7C29.8,26.5,29.9,27.1,29.8,27.8L29.8,27.8z"/>
	<path class="st1" d="M70,22.9h-2.5c-0.2,0-0.4,0.2-0.4,0.4L67,24l-0.2-0.3c-0.5-0.8-1.7-1-2.9-1c-2.7,0-5,2.1-5.5,5
		c-0.2,1.4,0.1,2.8,0.9,3.8c0.8,0.9,1.8,1.3,3.1,1.3c2.2,0,3.4-1.4,3.4-1.4L65.7,32c0,0.3,0.2,0.5,0.4,0.5h2.2
		c0.3,0,0.6-0.3,0.7-0.6l1.3-8.5C70.4,23.2,70.3,22.9,70,22.9L70,22.9z M66.5,27.8c-0.2,1.4-1.4,2.4-2.8,2.4c-0.7,0-1.3-0.2-1.7-0.7
		c-0.4-0.4-0.5-1-0.4-1.7c0.2-1.4,1.4-2.4,2.8-2.4c0.7,0,1.3,0.2,1.6,0.7C66.5,26.5,66.7,27.1,66.5,27.8L66.5,27.8z"/>
	<path class="st2" d="M46.4,22.9h-2.5c-0.2,0-0.5,0.1-0.6,0.3l-3.4,5l-1.5-4.8C38.3,23.2,38,23,37.7,23h-2.4c-0.3,0-0.5,0.3-0.4,0.6
		l2.7,8L35,35.2c-0.2,0.3,0,0.7,0.3,0.7h2.5c0.2,0,0.5-0.1,0.6-0.3l8.2-11.9C46.9,23.3,46.7,22.9,46.4,22.9L46.4,22.9z"/>
	<path class="st1" d="M72.9,18.5L70.8,32c0,0.3,0.2,0.5,0.4,0.5h2.1c0.3,0,0.6-0.3,0.7-0.6l2.1-13.2c0-0.3-0.2-0.5-0.4-0.5h-2.4
		C73.1,18.2,72.9,18.3,72.9,18.5L72.9,18.5z"/>
</g>
</svg>
