<?xml version="1.0" encoding="utf-8"?>
<!-- Generator: Adobe Illustrator 19.1.0, SVG Export Plug-In . SVG Version: 6.00 Build 0)  -->
<svg version="1.1" id="Card" xmlns="http://www.w3.org/2000/svg" xmlns:xlink="http://www.w3.org/1999/xlink" x="0px" y="0px"
	 viewBox="31 -16 86 54" style="enable-background:new 31 -16 86 54;" xml:space="preserve">
<style type="text/css">
	.st0{fill:url(#SVGID_1_);}
	.st1{fill:#105EA5;}
	.st2{fill:#F4A636;}
</style>
<linearGradient id="SVGID_1_" gradientUnits="userSpaceOnUse" x1="74" y1="-16" x2="74" y2="38">
	<stop  offset="0" style="stop-color:#F9F9F9"/>
	<stop  offset="1" style="stop-color:#E1E1E1"/>
</linearGradient>
<path class="st0" d="M34-16h80c1.7,0,3,1.3,3,3v48c0,1.7-1.3,3-3,3H34c-1.7,0-3-1.3-3-3v-48C31-14.7,32.3-16,34-16z"/>
<g id="Visa_1_">
	<path class="st1" d="M58,0.6l-5.3,14.3L52.1,12c-1.3-3.6-4.2-7.3-7.5-8.8l4.9,18.4h5.7l8.5-20.9L58,0.6L58,0.6z"/>
	<polygon class="st1" points="62.5,21.5 65.9,0.5 71.3,0.5 67.9,21.5 	"/>
	<path class="st1" d="M87.6,1.1c-1.1-0.4-2.8-0.9-4.9-0.9c-5.4,0-9.1,2.8-9.2,6.9c0,3,2.7,4.7,4.7,5.7c2.1,1,2.8,1.7,2.8,2.6
		c0,1.4-1.7,2-3.2,2c-2.2,0-3.3-0.3-5.1-1.1L72.1,16l-0.8,4.7c1.3,0.6,3.6,1.1,6,1.1c5.7,0,9.4-2.8,9.4-7.2c0-2.4-1.4-4.2-4.6-5.7
		c-1.9-1-3.1-1.6-3-2.6c0-0.9,1-1.8,3.1-1.8c1.8,0,3.1,0.4,4.1,0.8l0.5,0.2L87.6,1.1L87.6,1.1z"/>
	<path class="st1" d="M101.5,0.6h-4.2C96,0.6,95,1,94.5,2.3l-8,19.2h5.7c0,0,0.9-2.6,1.1-3.2c0.6,0,6.1,0,6.9,0
		c0.2,0.7,0.7,3.1,0.7,3.1h5L101.5,0.6L101.5,0.6z M94.8,14.1c0.4-1.2,2.2-5.9,2.2-5.9c0,0.1,0.4-1.2,0.7-2L98,8c0,0,1,5,1.3,6.1
		C98.4,14.1,95.8,14.1,94.8,14.1L94.8,14.1z"/>
	<path class="st2" d="M47.7,0.5H39l-0.1,0.4C45.7,2.6,50.2,6.9,52,12l-1.9-9.6C49.9,1,48.9,0.6,47.7,0.5L47.7,0.5z"/>
</g>
</svg>
