<?xml version="1.0" encoding="utf-8"?>
<!-- Generator: Adobe Illustrator 22.0.0, SVG Export Plug-In . SVG Version: 6.00 Build 0)  -->
<svg version="1.1" id="Card" xmlns="http://www.w3.org/2000/svg" xmlns:xlink="http://www.w3.org/1999/xlink" x="0px" y="0px"
	 viewBox="0 0 86 54" style="enable-background:new 0 0 86 54;" xml:space="preserve">
<style type="text/css">
	.st0{fill:url(#SVGID_1_);}
	.st1{fill:#EA6000;}
	.st2{fill:#3B1E86;}
</style>
<linearGradient id="SVGID_1_" gradientUnits="userSpaceOnUse" x1="43.05" y1="-1616" x2="43.05" y2="-1670" gradientTransform="matrix(1 0 0 -1 0 -1616)">
	<stop  offset="0" style="stop-color:#F9F9F9"/>
	<stop  offset="1" style="stop-color:#E1E1E1"/>
</linearGradient>
<path class="st0" d="M3,0h80c1.7,0,3,1.3,3,3v48c0,1.7-1.3,3-3,3H3c-1.7,0-3-1.3-3-3V3C0,1.3,1.3,0,3,0z"/>
<g>
	<polygon class="st1" points="64.4,35.6 61.8,32.8 59.4,35.6 54.3,35.6 59.3,29.9 54.3,24.1 59.5,24.1 62.1,26.9 64.5,24.1 
		69.7,24.1 64.6,29.9 69.8,35.6 	"/>
	<polygon class="st1" points="44.2,35.6 44.2,17.6 54.3,17.6 54.3,21.6 48.4,21.6 48.4,24.1 54.3,24.1 54.3,28 48.4,28 48.4,31.5 
		54.3,31.5 54.3,35.6 	"/>
	<path class="st2" d="M40,17.6V25l0,0c-0.9-1.1-2.1-1.4-3.5-1.4c-2.8,0-4.9,1.9-5.6,4.4c-0.8-2.8-2.9-4.4-6.2-4.4
		c-2.6,0-4.7,1.2-5.7,3.2v-2.5h-5.4v-2.6h5.8v-4H8.8v18h4.8v-7.6h4.8c-0.1,0.6-0.2,1.2-0.2,1.8c0,3.7,2.9,6.4,6.5,6.4
		c3,0,5.1-1.4,6.2-4.1h-4.1c-0.6,0.8-0.9,1.1-2.1,1.1c-1.3,0-2.3-1.2-2.3-2.5h8.4c0.4,3,2.7,5.6,5.8,5.6c1.4,0,2.7-0.7,3.4-1.9l0,0
		v1.2h4.2V17.6H40L40,17.6z M22.5,28c0.2-1.2,1.2-1.9,2.2-1.9c1.2,0,2.1,0.7,2.3,1.9C27.2,28,22.5,28,22.5,28L22.5,28z M37.4,32.8
		c-1.5,0-2.6-1.4-2.6-2.9c0-1.6,0.8-3.2,2.6-3.2s2.5,1.5,2.5,3.2C39.9,31.4,39.2,32.8,37.4,32.8L37.4,32.8z"/>
	<path class="st1" d="M72.1,33.4c0-1.4,1.2-2.6,2.6-2.6s2.6,1.2,2.6,2.6c0,1.4-1.2,2.6-2.6,2.6C73.3,35.9,72.1,34.8,72.1,33.4
		L72.1,33.4z M76.8,33.4c0-1.2-0.9-2.1-2.1-2.1s-2.1,0.9-2.1,2.1s0.9,2.1,2.1,2.1S76.8,34.5,76.8,33.4L76.8,33.4z M74.1,33.5v1.3
		h-0.5v-3h0.9c0.6,0,1.2,0.1,1.2,0.8c0,0.4-0.2,0.6-0.6,0.7l0,0c0.5,0.1,0.5,0.2,0.5,0.6c0,0.2,0.1,0.6,0.2,0.9h-0.6
		c0-0.1-0.1-0.4-0.1-0.6s0-0.5-0.1-0.7c-0.1-0.1-0.2-0.1-0.5-0.1h-0.5V33.5z M74.7,33c0.5,0,0.6-0.2,0.6-0.5s-0.1-0.4-0.5-0.4h-0.6
		V33H74.7L74.7,33z"/>
</g>
</svg>
