<?xml version="1.0" standalone="no"?><!DOCTYPE svg PUBLIC "-//W3C//DTD SVG 1.1//EN" "http://www.w3.org/Graphics/SVG/1.1/DTD/svg11.dtd"><svg t="1561971059688" class="icon" viewBox="0 0 1024 1024" version="1.1" xmlns="http://www.w3.org/2000/svg" p-id="1981" xmlns:xlink="http://www.w3.org/1999/xlink" width="64" height="64"><defs><style type="text/css"></style></defs><path d="M315.076923 541.538462v-59.076924c0-15.753846-13.784615-29.538462-29.538461-29.538461h-216.615385c-15.753846 0-29.538462 13.784615-29.538462 29.538461v59.076924c0 15.753846 13.784615 29.538462 29.538462 29.538461h216.615385c15.753846 0 29.538462-13.784615 29.538461-29.538461z m37.415385 88.615384c-11.815385-11.815385-29.538462-11.815385-41.353846 0L157.538462 783.753846c-11.815385 11.815385-11.815385 29.538462 0 41.353846l41.353846 41.353846c11.815385 11.815385 29.538462 11.815385 41.353846 0l153.6-153.6c11.815385-11.815385 11.815385-29.538462 0-41.353846L352.492308 630.153846z m319.015384-236.307692c11.815385 11.815385 29.538462 11.815385 41.353846 0l153.6-153.6c11.815385-11.815385 11.815385-29.538462 0-41.353846L825.107692 157.538462c-11.815385-11.815385-29.538462-11.815385-41.353846 0L630.153846 309.169231c-11.815385 11.815385-11.815385 29.538462 0 41.353846l41.353846 43.323077zM240.246154 157.538462c-11.815385-11.815385-29.538462-11.815385-41.353846 0L157.538462 198.892308c-11.815385 11.815385-11.815385 29.538462 0 41.353846l153.6 153.6c11.815385 11.815385 29.538462 11.815385 41.353846 0l41.353846-41.353846c11.815385-11.815385 11.815385-29.538462 0-41.353846L240.246154 157.538462z m474.584615 472.615384c-11.815385-11.815385-29.538462-11.815385-41.353846 0L630.153846 671.507692c-11.815385 11.815385-11.815385 29.538462 0 41.353846l153.6 153.6c11.815385 11.815385 29.538462 11.815385 41.353846 0l41.353846-41.353846c11.815385-11.815385 11.815385-29.538462 0-41.353846L714.830769 630.153846z m-173.292307 78.769231h-59.076924c-15.753846 0-29.538462 13.784615-29.538461 29.538461v216.615385c0 15.753846 13.784615 29.538462 29.538461 29.538462h59.076924c15.753846 0 29.538462-13.784615 29.538461-29.538462v-216.615385c0-15.753846-13.784615-29.538462-29.538461-29.538461z m413.538461-256h-216.615385c-15.753846 0-29.538462 13.784615-29.538461 29.538461v59.076924c0 15.753846 13.784615 29.538462 29.538461 29.538461h216.615385c15.753846 0 29.538462-13.784615 29.538462-29.538461v-59.076924c0-15.753846-13.784615-29.538462-29.538462-29.538461z m-413.538461-413.538462h-59.076924c-15.753846 0-29.538462 13.784615-29.538461 29.538462v216.615385c0 15.753846 13.784615 29.538462 29.538461 29.538461h59.076924c15.753846 0 29.538462-13.784615 29.538461-29.538461v-216.615385c0-15.753846-13.784615-29.538462-29.538461-29.538462z" p-id="1982" fill="#dbdbdb"></path></svg>